<?xml version="1.0" standalone="no"?>
<!DOCTYPE svg PUBLIC "-//W3C//DTD SVG 1.1//EN" "http://www.w3.org/Graphics/SVG/1.1/DTD/svg11.dtd" >
<svg>
<metadata>
Created by FontForge 20090914 at Mon Nov  1 13:01:58 2021
 By www-data
Copyright (c) 2011 by Anna Giedrys (http://ancymonic.com), with Reserved Font Names "Signika".
</metadata>
<defs>
<font id="Signika-Light" horiz-adv-x="398" >
  <font-face 
    font-family="Signika"
    font-weight="300"
    font-stretch="normal"
    units-per-em="1000"
    panose-1="2 1 0 3 2 6 0 0 0 4"
    ascent="800"
    descent="-200"
    x-height="490.004"
    cap-height="686"
    bbox="-130 -247.999 938.999 883.003"
    underline-thickness="50"
    underline-position="-100"
    unicode-range="U+000D-U+20AC"
  />
<missing-glyph horiz-adv-x="0" 
 />
    <glyph glyph-name=".notdef" horiz-adv-x="0" 
 />
    <glyph glyph-name="CR.001" unicode="&#xd;" horiz-adv-x="186" 
 />
    <glyph glyph-name="space" unicode=" " horiz-adv-x="220" 
 />
    <glyph glyph-name="exclam" unicode="!" horiz-adv-x="277" 
d="M108 186l-7 481c19.333 14.667 46 22 80 22l5 -5l-19 -498c-4 -1.33301 -8.5 -2.33301 -13.5 -3s-10.167 -1 -15.5 -1c-12.667 0 -22.667 1.33301 -30 4zM91 83c13.333 7.33301 29.335 11.001 48.002 11.001c7.33301 0 14.333 -0.333008 21 -1s12.334 -2.5 17.001 -5.5
s8.33398 -8 11.001 -15s4 -16.833 4 -29.5s-1.33301 -22.5 -4 -29.5s-6.33398 -12 -11.001 -15s-10.334 -4.66699 -17.001 -5s-14 -0.5 -22 -0.5s-15.333 0.166992 -22 0.5s-12.334 2 -17.001 5s-8.33398 8 -11.001 15s-4 16.833 -4 29.5c0 19.333 2.33301 32.666 7 39.999z
" />
    <glyph glyph-name="quotedbl" unicode="&#x22;" horiz-adv-x="355" 
d="M215 736c10.667 7.33301 24.833 11.001 42.5 11.001s31.834 -3.66699 42.501 -11c4 -14 6 -25.167 6 -33.5s-1.33301 -20.5 -4 -36.5c-10.667 -52 -18.667 -101.667 -24 -149c-4.66699 -3.33301 -11.334 -5 -20.001 -5s-16 1.66699 -22 5
c-4 42.667 -9.5 82.167 -16.5 118.5s-10.5 58.666 -10.5 66.999s2 19.5 6 33.5zM55.999 736.001c11.333 7.33301 25.501 11.001 42.501 11.001s31.167 -3.66699 42.5 -11c4 -14 6 -25.167 6 -33.5s-1.66699 -20.5 -5 -36.5c-10 -52 -17.667 -101.667 -23 -149
c-4.66699 -3.33301 -11.334 -5 -20.001 -5s-16 1.66699 -22 5c-4 42.667 -9.5 82.167 -16.5 118.5s-10.5 58.666 -10.5 66.999s2 19.5 6 33.5z" />
    <glyph glyph-name="numbersign" unicode="#" horiz-adv-x="605" 
d="M406 479l35.002 153c8.66699 2.66699 20.167 4 34.5 4s26.166 -1.33301 35.499 -4l-35 -153h101c7.33301 -22 7.33301 -43.667 0 -65h-115l-41 -182h111c8.66699 -22 8.66699 -43.667 0 -65h-126l-34 -153c-8 -4 -19.5 -6 -34.5 -6s-26.5 2 -34.5 6l34 153h-130l-34 -153
c-8 -4 -19.667 -6 -35 -6s-27 2 -35 6l34 153h-106c-8.66699 22 -8.66699 43.667 0 65h121l41 182h-118c-7.33301 21.333 -7.33301 43 0 65h132l35 153c8.66699 2.66699 20.167 4 34.5 4s26.166 -1.33301 35.499 -4l-35 -153h129zM263.002 414l-41 -182h129l41 182h-129z
" />
    <glyph glyph-name="dollar" unicode="$" horiz-adv-x="494" 
d="M39 101c0.666992 24 11.332 44.001 31.999 60.001c64.667 -38 125.667 -57 183 -57c34 0 61.833 7 83.5 21s32.5 34 32.5 60c0 21.333 -7.16699 40.166 -21.5 56.499s-36.5 29.833 -66.5 40.5l-103 37c-78 28 -117 73.667 -117 137c0 38 12.5 70.333 37.5 97
s60.5 43.334 106.5 50.001v84c3.33301 1.33301 8 2.16602 14 2.49902s12 0.5 18 0.5c14.667 0 26 -1 34 -3v-82c51.333 -3.33301 103 -17.333 155 -42c0 -25.333 -9.33301 -45.333 -28 -60c-52.667 25.333 -104 38 -154 38c-32.667 0 -58.834 -7 -78.501 -21
s-29.5 -32 -29.5 -54s6.33301 -38.5 19 -49.5s33.334 -21.5 62.001 -31.5l100 -36c38 -13.333 69 -33.166 93 -59.499s36 -59.833 36 -100.5c0 -20 -4 -38.833 -12 -56.5s-19.667 -33.334 -35 -47.001s-34.166 -24.667 -56.499 -33s-47.5 -12.833 -75.5 -13.5v-77
c-5.33301 -1.33301 -10.833 -2 -16.5 -2h-17.5h-16.5c-5.66699 0 -10.834 0.666992 -15.501 2v80c-63.333 8 -117.666 27.667 -162.999 59z" />
    <glyph glyph-name="percent" unicode="%" horiz-adv-x="861" 
d="M764 28c-26.667 -26.667 -60.666 -39.998 -101.999 -39.998c-46.667 0 -83.334 16.167 -110.001 48.5s-40 82.5 -40 150.5c0 67.333 13 117.166 39 149.499s63 48.5 111 48.5s85 -16.333 111 -49s39 -82.334 39 -149.001c0 -73.333 -16 -126.333 -48 -159z
M661.001 332.002c-54 0 -81 -48.667 -81 -146c0 -96.667 27 -145 81 -145c54.667 0 82 48.333 82 145c0 97.333 -27.333 146 -82 146zM302.001 655.002c31.333 -32.667 47.001 -85.334 47.001 -158.001c0 -68 -13.333 -118.167 -40 -150.5s-63.334 -48.5 -110.001 -48.5
c-46 0 -82.333 16.167 -109 48.5s-40 82.5 -40 150.5c0 66.667 12.833 116.334 38.5 149.001s62.5 49 110.5 49c44 0 78.333 -13.333 103 -40zM199.002 642.002c-54 0 -81 -48.667 -81 -146c0 -96.667 27 -145 81 -145c54.667 0 82 48.333 82 145
c0 97.333 -27.333 146 -82 146zM205.002 0.00195312l377.001 683c8.66699 3.33301 21 5 37 5c7.33301 0 14.333 -0.5 21 -1.5s12 -2.16699 16 -3.5l-376 -683c-4.66699 -2 -10.334 -3.33301 -17.001 -4s-13.667 -1 -21 -1s-14.333 0.333008 -21 1s-12 2 -16 4z" />
    <glyph glyph-name="ampersand" unicode="&#x26;" horiz-adv-x="604" 
d="M480 147l5.99805 -147.004c-10 -2 -22 -3 -36 -3s-26 1 -36 3l-6 39c-51.333 -34 -106.666 -51 -165.999 -51c-58.667 0 -104.334 17.5 -137.001 52.5s-49 81.5 -49 139.5c0 22 3.5 43 10.5 63s16.667 38.167 29 54.5s26.5 30.5 42.5 42.5s33 20.667 51 26
c-30 10.667 -55 30.167 -75 58.5s-30 59.833 -30 94.5c0 24.667 4.83301 47.834 14.5 69.501s23.5 40.334 41.5 56.001s39.5 28 64.5 37s53.167 13.5 84.5 13.5c9.33301 0 23.333 -0.666992 42 -2s37.167 -3.16602 55.5 -5.49902s41.5 -9.16602 69.5 -20.499
c0 -26.667 -7 -47 -21 -61c-28 8 -53.667 14.167 -77 18.5s-44.666 6.5 -63.999 6.5c-41.333 0 -73.166 -10.5 -95.499 -31.5s-33.5 -49.5 -33.5 -85.5s11.333 -64.5 34 -85.5s57 -31.5 103 -31.5h179c41.333 0 71 4.33301 89 13c6.66699 -8.66699 10 -21 10 -37
c0 -28 -21.667 -42 -65 -42h-36v-63zM405.998 266.996l0.000976562 36.5c0 11 0.333008 20.167 1 27.5h-114c-26 0 -48.833 -4.16699 -68.5 -12.5s-36 -19.333 -49 -33s-22.667 -29.667 -29 -48s-9.5 -37.5 -9.5 -57.5c0 -40 10.667 -71.333 32 -94s51 -34 89 -34
c57.333 0 106.666 17 147.999 51v164z" />
    <glyph glyph-name="quotesingle" unicode="'" horiz-adv-x="194" 
d="M51 736c11.333 7.33301 25.501 11.001 42.501 11.001s31.167 -3.66699 42.5 -11c4 -14 6 -25.167 6 -33.5s-1.33301 -20.5 -4 -36.5c-10.667 -52 -18.667 -101.667 -24 -149c-4.66699 -3.33301 -11.334 -5 -20.001 -5s-16 1.66699 -22 5
c-4 42.667 -9.5 82.167 -16.5 118.5s-10.5 58.666 -10.5 66.999s2 19.5 6 33.5z" />
    <glyph glyph-name="parenleft" unicode="(" horiz-adv-x="308" 
d="M294 -127c-8.66699 -21.333 -24 -35.667 -46 -43c-28 28 -53.333 61.333 -76 100s-41.834 80 -57.501 124s-27.834 89.333 -36.501 136s-13 92 -13 136s4.33301 89.333 13 136s20.834 92 36.501 136s34.834 85.167 57.501 123.5s48 71.5 76 99.5
c22 -5.33301 37.333 -19.333 46 -42c-98 -123.333 -147 -274.333 -147 -453c0 -179.333 49 -330.333 147 -453z" />
    <glyph glyph-name="parenright" unicode=")" horiz-adv-x="308" 
d="M13 779c10 22.667 25.6689 36.668 47.002 42.001c28 -28 53.167 -61.167 75.5 -99.5s41.5 -79.5 57.5 -123.5s28.333 -89.333 37 -136s13 -92 13 -136s-4.33301 -89.333 -13 -136s-20.834 -92 -36.501 -136s-34.834 -85.333 -57.501 -124s-48 -72 -76 -100
c-21.333 7.33301 -37 21.666 -47 42.999c98.667 122.667 148 273.667 148 453s-49.333 330.333 -148 453z" />
    <glyph glyph-name="asterisk" unicode="*" horiz-adv-x="495" 
d="M49 562c-1.33301 9.33301 0.500977 20.835 5.50098 34.502s10.833 24.5 17.5 32.5l48 -15c17.333 -5.33301 52.666 -22.333 105.999 -51c-10 44 -15 83 -15 117l1 51c8.66699 4 20.5 6 35.5 6s26.833 -2 35.5 -6l1 -51
c0.666992 -21.333 -4.66602 -60.666 -15.999 -117.999c45.333 26.667 81.333 44 108 52l48 14c6.66699 -6.66699 12.167 -16.834 16.5 -30.501s6.16602 -25.834 5.49902 -36.501l-48 -16c-25.333 -8.66699 -64.333 -16 -117 -22c38 -33.333 65.667 -62.333 83 -87l28 -41
c-5.33301 -8.66699 -13.666 -17.167 -24.999 -25.5s-22.333 -13.5 -33 -15.5l-29 40c-16.667 20 -36 54.667 -58 104c-18.667 -45.333 -37.334 -80 -56.001 -104l-31 -40c-9.33301 2 -19.833 7.16699 -31.5 15.5s-20.167 17.166 -25.5 26.499l29 40
c12.667 17.333 40 46.333 82 87c-50 4 -89 11.333 -117 22z" />
    <glyph glyph-name="plus" unicode="+" horiz-adv-x="530" 
d="M229 324l-1 38v144c10 2.66699 22.667 4 38 4s27.333 -1.33301 36 -4v-144l-1 -38l37 1h133c2.66699 -14.667 4 -26.834 4 -36.501s-1.33301 -20.5 -4 -32.5h-133l-37 1l1 -38v-144c-8.66699 -2.66699 -20.667 -4 -36 -4s-28 1.33301 -38 4v144l1 38l-37 -1h-133
c-2.66699 8 -4 19.333 -4 34s1.33301 26.334 4 35.001h133z" />
    <glyph glyph-name="comma" unicode="," horiz-adv-x="254" 
d="M181 91c7.33301 -13.333 10.9971 -32.998 10.9971 -58.998c0 -40.667 -11.167 -77.334 -33.5 -110.001s-54.833 -57 -97.5 -73c-8 4.66699 -13.5 10.334 -16.5 17.001s-4.5 14.667 -4.5 24c50.667 25.333 76.334 59 77.001 101c-10.667 2 -19 4.16699 -25 6.5
s-10.667 5.5 -14 9.5s-5.5 9.33301 -6.5 16s-1.5 15 -1.5 25c0 14 1.66699 24.667 5 32s7.83301 12.666 13.5 15.999s12.334 5.16602 20.001 5.49902s15.834 0.5 24.501 0.5c21.333 0 37.333 -3.66699 48 -11z" />
    <glyph glyph-name="hyphen" unicode="-" horiz-adv-x="335" 
d="M283 231h-230c-2.66699 8 -4 19 -4 33s1.33301 26 4 36h230c2 -10.667 3 -22.667 3 -36s-1 -24.333 -3 -33z" />
    <glyph glyph-name="period" unicode="." horiz-adv-x="250" 
d="M73 3c-5.33301 9.33301 -8 24 -8 44c0 14 1.5 24.833 4.5 32.5s7.33301 13.167 13 16.5s12.167 5.16602 19.5 5.49902s15.333 0.5 24 0.5s16.5 -0.166992 23.5 -0.5s13.167 -2.33301 18.5 -6s9.5 -9.16699 12.5 -16.5s4.5 -18 4.5 -32c0 -12.667 -1 -22.667 -3 -30
s-5.33301 -12.666 -10 -15.999s-10.667 -5.5 -18 -6.5s-16.333 -1.5 -27 -1.5c-23.333 0 -41.333 3.33301 -54 10z" />
    <glyph glyph-name="slash" unicode="/" horiz-adv-x="407" 
d="M10 -81l317 839c26 -2.66699 48 -11 66 -25l-317 -839c-22 0 -44 8.33301 -66 25z" />
    <glyph glyph-name="zero" unicode="0" horiz-adv-x="530" 
d="M129 606c34.667 36 79.667 53.998 135 53.998c72 0 125.167 -27.333 159.5 -82s51.5 -139.667 51.5 -255c0 -111.333 -16.5 -195 -49.5 -251s-86.5 -84 -160.5 -84c-72 0 -125.333 28 -160 84s-51.334 140 -50.001 252c0 36 1.16699 68.167 3.5 96.5
s6.33301 53.833 12 76.5s13.334 42.834 23.001 60.501s21.5 33.834 35.5 48.501zM184 82.998c20.667 -22.667 47.667 -34.001 81 -34.001c22 0 41.167 4.83301 57.5 14.5s29.833 25.5 40.5 47.5s18.667 50.5 24 85.5s8 77.5 8 127.5s-2.66699 92.5 -8 127.5
s-13.333 63.5 -24 85.5s-24.167 37.833 -40.5 47.5s-35.5 14.5 -57.5 14.5c-22.667 0 -42.167 -4.83301 -58.5 -14.5s-29.833 -25.5 -40.5 -47.5s-18.5 -50.5 -23.5 -85.5s-7.5 -77.5 -7.5 -127.5c0 -123.333 16.333 -203.666 49 -240.999z" />
    <glyph glyph-name="one" unicode="1" horiz-adv-x="530" 
d="M256 63l-0.999023 62.999v282c0 0.666992 1 42 3 124c-37.333 -50.667 -87.333 -89.334 -150 -116.001c-17.333 11.333 -28.333 26.666 -33 45.999c45.333 27.333 84.166 58 116.499 92s54.5 65.333 66.5 94c10.667 2.66699 22.5 4 35.5 4s24.833 -1.33301 35.5 -4v-522
l-1 -63l54 1h77c2 -11.333 3 -22.166 3 -32.499s-1 -20.833 -3 -31.5h-354c-2 10.667 -3 21.334 -3 32.001s1 21.334 3 32.001h97z" />
    <glyph glyph-name="two" unicode="2" horiz-adv-x="530" 
d="M467 68c0 -23.333 -3.16211 -40.501 -9.49512 -51.501s-20.5 -16.5 -42.5 -16.5h-317c-23.333 18 -35 34.667 -35 50c-0.666992 29.333 10.166 59.833 32.499 91.5s55.166 66.5 98.499 104.5l92 80c29.333 25.333 51.166 49.833 65.499 73.5s21.5 52.167 21.5 85.5
c0 32.667 -10.5 59.5 -31.5 80.5s-46.833 31.5 -77.5 31.5s-58 -9 -82 -27s-43 -42 -57 -72c-28 3.33301 -46.333 13 -55 29c8 18.667 18.333 36.167 31 52.5s27.667 30.5 45 42.5s36.666 21.333 57.999 28s44.666 10 69.999 10s48.833 -4.5 70.5 -13.5
s40.5 -21.5 56.5 -37.5s28.5 -34.833 37.5 -56.5s13.5 -45.167 13.5 -70.5s-3.16699 -47.666 -9.5 -66.999s-15.166 -37.333 -26.499 -54s-24.833 -32.5 -40.5 -47.5l-50.5 -47.5l-80 -69c-66.667 -57.333 -102.334 -102 -107.001 -134c18.667 1.33301 38 2.5 58 3.5
s40.667 1.5 62 1.5h209z" />
    <glyph glyph-name="three" unicode="3" horiz-adv-x="530" 
d="M426 560l-120 -131c-6 -7.33301 -19.667 -19.333 -41 -36h12c26 0 50.333 -4 73 -12s42.667 -20 60 -36s30.833 -36.167 40.5 -60.5s14.5 -53.166 14.5 -86.499c0 -32.667 -5.83301 -62 -17.5 -88s-28 -48 -49 -66s-44.667 -31.833 -71 -41.5s-53.5 -14.5 -81.5 -14.5
c-78 0 -141.667 20.333 -191 61c5.33301 22 17 39.667 35 53c46.667 -34.667 93.334 -52 140.001 -52c48 0 86 13.5 114 40.5s42 63.5 42 109.5c0 45.333 -11.167 79.666 -33.5 102.999s-50.833 35 -85.5 35s-62.334 -6.33301 -83.001 -19
c-17.333 9.33301 -28.333 23 -33 41l143 158c14 15.333 26.667 28.5 38 39.5s21.333 20.167 30 27.5l-3 4c-10.667 -2.66699 -26.167 -4.66699 -46.5 -6s-46.5 -2 -78.5 -2h-154c-2 8 -3 16.667 -3 26c0 12 2 25.667 6 41h342c12 -22 18 -39.333 18 -52
c0 -11.333 -5.66699 -23.333 -17 -36z" />
    <glyph glyph-name="four" unicode="4" horiz-adv-x="530" 
d="M376 152l1 -42.999v-109c-11.333 -2 -24 -3 -38 -3s-26 1 -36 3v109l1 43l-42 -1h-196c-12 21.333 -18 35.666 -18 42.999s7 28 21 62l174 397c10 2.66699 22.167 2.66699 36.5 0s25.833 -6.66699 34.5 -12l-142 -324c-25.333 -55.333 -41.333 -89.333 -48 -102l2 -3
c38 2 73 3 105 3h73l-1 39v104c0 36 15.667 54 47 54h23l4 -3v-152l-1 -42l40 1h67c1.33301 -8 2 -18.333 2 -31s-1.66699 -24 -5 -34h-64z" />
    <glyph glyph-name="five" unicode="5" horiz-adv-x="530" 
d="M432 648c3.33301 -12 5.00098 -22.332 5.00098 -30.999c0 -24 -11.333 -36 -34 -36h-179h-33c-9.33301 0 -16.666 0.333008 -21.999 1v-64l-7 -117c34.667 18.667 70.334 28 107.001 28c58.667 0 106.167 -18.167 142.5 -54.5s54.5 -89.833 54.5 -160.5
c0 -34.667 -5.5 -66 -16.5 -94s-26.833 -51.667 -47.5 -71s-44.834 -34.333 -72.501 -45s-57.5 -16 -89.5 -16c-65.333 0 -123.333 20 -174 60c3.33301 21.333 14.666 38.666 33.999 51.999c24.667 -17.333 49 -30 73 -38s46.667 -12 68 -12c42 0 76.667 14.5 104 43.5
s41 70.167 41 123.5c0 28 -3.5 51.5 -10.5 70.5s-17 34.333 -30 46s-28.167 20.167 -45.5 25.5s-36 8 -56 8c-42 0 -82.333 -17 -121 -51c-14.667 2 -26.334 10.333 -35.001 25l13 301l6 6h325z" />
    <glyph glyph-name="six" unicode="6" horiz-adv-x="530" 
d="M133 46l-15.001 18.0029c-8 8.66699 -15.5 21.667 -22.5 39s-13.167 37.833 -18.5 61.5s-9.5 49.667 -12.5 78s-4.5 58.166 -4.5 89.499c0 50.667 5.33301 96.334 16 137.001s26.5 75.167 47.5 103.5s47 50 78 65s66.833 22.5 107.5 22.5c56 0 100.667 -10 134 -30
c-3.33301 -26 -13.333 -44.333 -30 -55c-34 15.333 -68 23 -102 23c-29.333 0 -54.666 -5.83301 -75.999 -17.5s-39 -27.834 -53 -48.501s-24.5 -45.334 -31.5 -74.001s-10.833 -60 -11.5 -94c44.667 44.667 96 67 154 67c58.667 0 104.167 -18.333 136.5 -55
s48.5 -89.334 48.5 -158.001c0 -33.333 -4.83301 -64 -14.5 -92s-23.5 -52.333 -41.5 -73s-39.5 -36.667 -64.5 -48s-52.5 -17 -82.5 -17c-60 0 -107.333 19.333 -142 58zM276.999 365.003c-23.333 0 -47.667 -6.5 -73 -19.5s-47 -30.5 -65 -52.5v-16
c0 -34 2.83301 -65 8.5 -93s14.167 -52 25.5 -72s25.5 -35.5 42.5 -46.5s37.167 -16.5 60.5 -16.5c38 0 68 14.333 90 43s33 68 33 118c0 103.333 -40.667 155 -122 155z" />
    <glyph glyph-name="seven" unicode="7" horiz-adv-x="530" 
d="M75 648l387.003 -0.000976562c10 -18 15 -33.167 15 -45.5s-4.33301 -25.166 -13 -38.499l-31 -45c-56 -84.667 -98.833 -163 -128.5 -235s-49.5 -156.667 -59.5 -254l-3 -30c-10 -2.66699 -23.667 -4 -41 -4s-30.333 1.33301 -39 4l4 38
c17.333 160.667 75.666 314.334 174.999 461.001l10 15c9.33301 14 26.666 37.667 51.999 71l-3 3c-18.667 -4.66699 -72.334 -7 -161.001 -7h-167c-2 8.66699 -3 18.667 -3 30s2 23.666 6 36.999z" />
    <glyph glyph-name="eight" unicode="8" horiz-adv-x="530" 
d="M54 162c0 38 11.334 72.668 34.001 104.001s52 55.666 88 72.999c-69.333 35.333 -104 86.333 -104 153c0 24.667 5 47.334 15 68.001s23.667 38.334 41 53.001s37.666 26.167 60.999 34.5s48.666 12.5 75.999 12.5c26.667 0 51.834 -4 75.501 -12s44 -19.333 61 -34
s30.5 -31.834 40.5 -51.501s15 -41.5 15 -65.5c0 -34 -9.33301 -63.833 -28 -89.5s-43 -46.167 -73 -61.5c79.333 -39.333 119 -98 119 -176c0 -28 -5.5 -53.167 -16.5 -75.5s-26.333 -41.5 -46 -57.5s-42.667 -28.167 -69 -36.5s-54.5 -12.5 -84.5 -12.5
c-30.667 0 -58.667 4 -84 12s-47 19.5 -65 34.5s-31.833 33.167 -41.5 54.5s-14.5 45.666 -14.5 72.999zM238.001 316.001l-0.999023 0.00195312c-32.667 -14 -58.334 -34.333 -77.001 -61s-28 -58 -28 -94c0 -17.333 3.33301 -33 10 -47s15.834 -26 27.501 -36
s25.5 -17.833 41.5 -23.5s33 -8.5 51 -8.5c18.667 0 36.167 2.83301 52.5 8.5s30.5 14 42.5 25s21.5 24 28.5 39s10.5 32.167 10.5 51.5s-3.66699 36.666 -11 51.999s-17.5 28.833 -30.5 40.5s-28.333 21.667 -46 30s-36.834 15.166 -57.501 20.499zM283.002 372.003
l11.999 -4.00098c26.667 13.333 47.5 31 62.5 53s22.5 48 22.5 78c0 14.667 -3 28.334 -9 41.001s-14.167 23.5 -24.5 32.5s-22.666 16.167 -36.999 21.5s-29.5 8 -45.5 8c-32 0 -59 -10 -81 -30s-33 -46 -33 -78c0 -59.333 44.333 -100 133 -122z" />
    <glyph glyph-name="nine" unicode="9" horiz-adv-x="530" 
d="M397 602l15.002 -18.001c7.33301 -9.33301 15 -22.666 23 -39.999s14.5 -37.666 19.5 -60.999s8.83301 -49.166 11.5 -77.499s4 -58.166 4 -89.499c0 -50.667 -5.33301 -96.334 -16 -137.001s-26.5 -75.167 -47.5 -103.5s-47 -50 -78 -65s-66.833 -22.5 -107.5 -22.5
c-56.667 0 -101.334 10 -134.001 30c3.33301 26 13.333 44.333 30 55c34 -15.333 68 -23 102 -23c28.667 0 53.667 5.83301 75 17.5s39.166 28 53.499 49s25 45.667 32 74s10.833 59.5 11.5 93.5c-44.667 -44.667 -96 -67 -154 -67c-58.667 0 -104.167 18.167 -136.5 54.5
s-48.5 88.833 -48.5 157.5c0 34 5 65.167 15 93.5s23.833 52.666 41.5 72.999s39 36.166 64 47.499s52.5 17 82.5 17c60 0 107.333 -19.333 142 -58zM253.002 282.999c23.333 0 47.668 6.33301 73.001 19s47 30 65 52v17c0 34.667 -2.83301 66 -8.5 94
s-14.334 52 -26.001 72s-26.167 35.333 -43.5 46s-37.333 16 -60 16c-36.667 0 -66.167 -14.333 -88.5 -43s-33.5 -68 -33.5 -118c0 -103.333 40.667 -155 122 -155z" />
    <glyph glyph-name="colon" unicode=":" horiz-adv-x="254" 
d="M75 3c-5.33301 9.33301 -8 24 -8 44c0 14 1.5 24.833 4.5 32.5s7.33301 13.167 13 16.5s12.167 5.16602 19.5 5.49902s15.333 0.5 24 0.5s16.5 -0.166992 23.5 -0.5s13.167 -2.33301 18.5 -6s9.5 -9.16699 12.5 -16.5s4.5 -18 4.5 -32c0 -12.667 -1 -22.667 -3 -30
s-5.33301 -12.666 -10 -15.999s-10.667 -5.5 -18 -6.5s-16.333 -1.5 -27 -1.5c-23.333 0 -41.333 3.33301 -54 10zM75 343c-5.33301 9.33301 -8 24 -8 44c0 14 1.5 24.833 4.5 32.5s7.33301 13.167 13 16.5s12.167 5.16602 19.5 5.49902s15.333 0.5 24 0.5
s16.5 -0.166992 23.5 -0.5s13.167 -2.33301 18.5 -6s9.5 -9.16699 12.5 -16.5s4.5 -18 4.5 -32c0 -12.667 -1 -22.667 -3 -30s-5.33301 -12.666 -10 -15.999s-10.667 -5.5 -18 -6.5s-16.333 -1.5 -27 -1.5c-23.333 0 -41.333 3.33301 -54 10z" />
    <glyph glyph-name="semicolon" unicode=";" horiz-adv-x="258" 
d="M179 91c7.33301 -13.333 10.9971 -32.998 10.9971 -58.998c0 -40.667 -11.167 -77.334 -33.5 -110.001s-54.833 -57 -97.5 -73c-8 4.66699 -13.5 10.334 -16.5 17.001s-4.5 14.667 -4.5 24c50.667 25.333 76.334 59 77.001 101c-10.667 2 -19 4.16699 -25 6.5
s-10.667 5.5 -14 9.5s-5.5 9.33301 -6.5 16s-1.5 15 -1.5 25c0 14 1.66699 24.667 5 32s7.83301 12.666 13.5 15.999s12.334 5.16602 20.001 5.49902s15.834 0.5 24.501 0.5c21.333 0 37.333 -3.66699 48 -11zM76.9971 343.002c-5.33301 9.33301 -8 24 -8 44
c0 14 1.5 24.833 4.5 32.5s7.33301 13.167 13 16.5s12.167 5.16602 19.5 5.49902s15.333 0.5 24 0.5s16.5 -0.166992 23.5 -0.5s13.167 -2.33301 18.5 -6s9.5 -9.16699 12.5 -16.5s4.5 -18 4.5 -32c0 -12.667 -1 -22.667 -3 -30s-5.33301 -12.666 -10 -15.999
s-10.667 -5.5 -18 -6.5s-16.333 -1.5 -27 -1.5c-23.333 0 -41.333 3.33301 -54 10z" />
    <glyph glyph-name="less" unicode="&#x3c;" horiz-adv-x="530" 
d="M55 321l377 206c21.333 -14.667 33.333 -34.667 36 -60l-268 -141l-37.5 -18.5l-29.5 -14.5v-7l29.5 -14.5l37.5 -18.5l268 -141c-4 -26 -16 -46 -36 -60l-377 206c-6 24.667 -6 45.667 0 63z" />
    <glyph glyph-name="equal" unicode="=" horiz-adv-x="530" 
d="M471 171h-412c-2.66699 8.66699 -4 20.167 -4 34.5s1.33301 25.833 4 34.5h412c2.66699 -8.66699 4 -20.167 4 -34.5s-1.33301 -25.833 -4 -34.5zM471 343h-412c-2.66699 8.66699 -4 20 -4 34s1.33301 26 4 36h412c2.66699 -10 4 -22 4 -36s-1.33301 -25.333 -4 -34z" />
    <glyph glyph-name="greater" unicode="&#x3e;" horiz-adv-x="530" 
d="M475 259l-377.999 -206c-20.667 15.333 -32.334 35.333 -35.001 60l268 141l37.5 18.5l29.5 14.5v7l-29.5 14.5l-37.5 18.5l-268 141c2.66699 25.333 14.667 45.333 36 60l377 -206c6 -24.667 6 -45.667 0 -63z" />
    <glyph glyph-name="question" unicode="?" horiz-adv-x="382" 
d="M16 648c59.333 30.667 117.334 46.001 174.001 46.001s101.167 -14.833 133.5 -44.5s48.5 -69.5 48.5 -119.5c0 -76.667 -43.333 -140.334 -130 -191.001l-63 -37l-8 -116c-7.33301 -2.66699 -17 -4 -29 -4s-21.667 1.33301 -29 4l-4 149l6 10l46 24
c44 22.667 76.833 47.167 98.5 73.5s32.5 53.5 32.5 81.5c0 30 -9.5 54.333 -28.5 73s-46.5 28 -82.5 28c-19.333 0 -40.333 -2.83301 -63 -8.5s-47.334 -14.834 -74.001 -27.501c-16.667 14.667 -26 34.334 -28 59.001zM96.001 83.001
c13.333 6.66699 29.002 10.001 47.002 10.001c8 0 15.333 -0.166992 22 -0.5s12.334 -2 17.001 -5s8.33398 -8 11.001 -15s4 -16.833 4 -29.5s-1.33301 -22.5 -4 -29.5s-6.33398 -12 -11.001 -15s-10.334 -4.66699 -17.001 -5s-14 -0.5 -22 -0.5s-15.333 0.166992 -22 0.5
s-12.334 2 -17.001 5s-8.33398 8 -11.001 15s-4 16.833 -4 29.5c0 19.333 2.33301 32.666 7 39.999z" />
    <glyph glyph-name="at" unicode="@" horiz-adv-x="932" 
d="M645 413l-0.996094 -259.002c0 -30 4 -51 12 -63s21 -18 39 -18c16 0 31 4.33301 45 13s26.167 22 36.5 40s18.666 40.5 24.999 67.5s9.5 59.167 9.5 96.5c0 48 -7.83301 92 -23.5 132s-38 74.333 -67 103s-64 51 -105 67s-86.833 24 -137.5 24
c-50 0 -96.167 -9.83301 -138.5 -29.5s-78.833 -46.667 -109.5 -81s-54.667 -75.166 -72 -122.499s-26 -98.666 -26 -153.999s7.5 -104.666 22.5 -147.999s36 -80 63 -110s59.667 -52.833 98 -68.5s80.5 -23.5 126.5 -23.5c80 0 148.667 12 206 36c14.667 -12 22 -30 22 -54
c-76 -27.333 -153.333 -41 -232 -41c-56 0 -107.333 9.16699 -154 27.5s-86.834 45 -120.501 80s-59.834 77.667 -78.501 128s-28 107.5 -28 171.5s10.667 123.167 32 177.5s50.666 101.333 87.999 141s81.833 70.834 133.5 93.501s107.834 34 168.501 34
s116 -9.5 166 -28.5s92.667 -45.5 128 -79.5s62.833 -74.667 82.5 -122s29.5 -99.333 29.5 -156c0 -41.333 -5.16699 -78.833 -15.5 -112.5s-24.5 -62.334 -42.5 -86.001s-39 -42 -63 -55s-49.333 -19.5 -76 -19.5c-54.667 0 -90.334 22 -107.001 66
c-18 -20.667 -39.5 -37.667 -64.5 -51s-50.833 -20 -77.5 -20c-48 0 -86.333 19.5 -115 58.5s-43 92.833 -43 161.5c0 33.333 4.5 65.166 13.5 95.499s22 56.833 39 79.5s37.833 40.667 62.5 54s52.667 20 84 20c61.333 0 116.333 -21.667 165 -65zM453.004 70.998
c10 0 20.665 2 31.998 6s22.333 9.5 33 16.5s20.667 15.333 30 25s17.333 19.834 24 30.501v236c-24 24 -55 36 -93 36c-19.333 0 -36.666 -5.16699 -51.999 -15.5s-28.166 -24.166 -38.499 -41.499s-18.333 -37.333 -24 -60s-8.5 -46.334 -8.5 -71.001
c0 -50.667 8 -90.334 24 -119.001s40.333 -43 73 -43z" />
    <glyph glyph-name="A" unicode="A" horiz-adv-x="596" 
d="M431 178l-69.999 -1h-134l-70 1l-58 -179c-8.66699 -2 -19.334 -3 -32.001 -3s-25.667 1.66699 -39 5l-2 3l229 679c11.333 2 26.333 3 45 3s32.334 -1 41.001 -3l229 -679c-10.667 -6.66699 -24 -10 -40 -10s-27.333 2.66699 -34 8s-12.334 16 -17.001 32zM179.001 243
l57.998 1h115c0.666992 0 8.83398 -0.166992 24.501 -0.5s26.834 -0.5 33.501 -0.5l-63 190c-25.333 78 -42.333 133.667 -51 167h-5c-12.667 -49.333 -24 -89 -34 -119z" />
    <glyph glyph-name="B" unicode="B" horiz-adv-x="600" 
d="M105 0l-6.00098 6.00391v671l6 6l195 3c72.667 0 125.834 -15.833 159.501 -47.5s50.5 -75.834 50.5 -132.501c0 -32.667 -8.66699 -61.834 -26 -87.501s-41.333 -43.834 -72 -54.501c18 -5.33301 35 -13.333 51 -24s30 -23.834 42 -39.501s21.333 -33.667 28 -54
s10 -42.5 10 -66.5c0 -23.333 -4.5 -46 -13.5 -68s-22.833 -41.5 -41.5 -58.5s-42.667 -30.667 -72 -41s-64.333 -15.5 -105 -15.5zM174.999 60.0039l142.001 0.999023c28 0 51.333 3.83301 70 11.5s33.5 17.5 44.5 29.5s18.833 26 23.5 42s7 32.667 7 50
c0 14.667 -2.66699 29.834 -8 45.501s-14 30 -26 43s-27.833 23.667 -47.5 32s-43.834 12.5 -72.501 12.5h-133v-267zM175 623.003l0.00195312 -232h123c24.667 0 45.5 3 62.5 9s30.667 14.333 41 25s17.666 23 21.999 37s6.5 29 6.5 45c0 76.667 -43 115 -129 115h-76
c-20.667 0 -37.334 0.333008 -50.001 1z" />
    <glyph glyph-name="C" unicode="C" horiz-adv-x="600" 
d="M476 467c0 20 -2.83203 39.833 -8.49902 59.5s-15 37.334 -28 53.001s-29.667 28.167 -50 37.5s-44.833 14 -73.5 14c-56.667 0 -100.5 -25 -131.5 -75s-46.5 -121 -46.5 -213c0 -92.667 16 -163.834 48 -213.501s77.333 -74.5 136 -74.5c59.333 0 119.333 26.333 180 79
c20.667 -12 34.667 -28.667 42 -50c-28 -28.667 -62.5 -51.834 -103.5 -69.501s-84.5 -26.5 -130.5 -26.5c-44.667 0 -83 9.16699 -115 27.5s-58.167 43.5 -78.5 75.5s-35.333 69.167 -45 111.5s-14.5 87.5 -14.5 135.5c0 59.333 6.66699 111.333 20 156
s31.666 81.834 54.999 111.501s50.666 52 81.999 67s65 22.5 101 22.5s68.667 -5.33301 98 -16s54.333 -24.667 75 -42s36.667 -37.333 48 -60s17 -46 17 -70c0 -30 -14.333 -45 -43 -45c-9.33301 0 -20.666 1.66699 -33.999 5z" />
    <glyph glyph-name="D" unicode="D" horiz-adv-x="638" 
d="M476 47c-9.33301 -8 -20.666 -15.1699 -33.999 -21.5029s-27.5 -11.666 -42.5 -15.999s-30 -7.66602 -45 -9.99902s-28.167 -3.5 -39.5 -3.5c-12 0 -35.333 0.333008 -70 1s-81.334 1.66699 -140.001 3l-6 6v671l6 6c58 2 125.667 3 203 3c52 0 95.333 -9 130 -27
s62.5 -42.5 83.5 -73.5s35.833 -67.667 44.5 -110s13 -87.5 13 -135.5c0 -33.333 -1.5 -64.166 -4.5 -92.499s-8.5 -54.5 -16.5 -78.5s-18.667 -46.167 -32 -66.5s-30 -38.833 -50 -55.5zM175 60.9971l132.001 -1.00195c38 0 69.333 7.5 94 22.5s44.167 34.833 58.5 59.5
s24.333 52.334 30 83.001s8.5 61.334 8.5 92.001c0 44.667 -2.33301 85.667 -7 123s-14.334 69.5 -29.001 96.5s-35 48 -61 63s-57.333 22.5 -94 22.5l-132 1v-562z" />
    <glyph glyph-name="E" unicode="E" horiz-adv-x="563" 
d="M173 103l-1.00098 -38.001c22.667 1.33301 43.334 2 62.001 2h274c0 -14 -0.666992 -24.667 -2 -32c-4.66699 -23.333 -21 -35 -49 -35h-315c-13.333 0 -23.833 4.5 -31.5 13.5s-11.5 21.167 -11.5 36.5v627l6 6h386c1.33301 -8 2 -18.5 2 -31.5s-1.66699 -24.5 -5 -34.5
h-316l1 -62v-177l60 1h207c2 -12 3 -23.167 3 -33.5s-1 -21.166 -3 -32.499h-207c-25.333 0 -45.333 0.333008 -60 1v-211z" />
    <glyph glyph-name="F" unicode="F" horiz-adv-x="514" 
d="M175 378l54.999 0.999023h205c2 -12 3 -23.167 3 -33.5s-1 -21.166 -3 -32.499h-205c-23.333 0 -41.666 0.333008 -54.999 1v-314c-10 -2 -22.667 -3 -38 -3s-28 1 -38 3v677l6 6h379c3.33301 -10 5 -20.667 5 -32c0 -23.333 -15.667 -35 -47 -35h-159
c-52.667 0 -89 0.666992 -109 2l1 -140v-100z" />
    <glyph glyph-name="G" unicode="G" horiz-adv-x="637" 
d="M355 344l151.999 0.000976562c21.333 0 36.666 -4.16699 45.999 -12.5s14 -21.833 14 -40.5v-259c-71.333 -29.333 -150.666 -44 -237.999 -44c-49.333 0 -92.333 9.83301 -129 29.5s-65 46.5 -85 80.5c-38.667 66.667 -58 146.334 -58 239.001
c0 62.667 8.16699 117.667 24.5 165s38.166 84.666 65.499 111.999c54 54 118.667 81 194 81c40.667 0 81.334 -6.66699 122.001 -20s75 -31.666 103 -54.999c-5.33301 -24.667 -19 -44.334 -41 -59.001c-54 43.333 -117 65 -189 65c-57.333 0 -104.666 -23 -141.999 -69
s-56 -119.667 -56 -221c0 -187.333 68.333 -281 205 -281c53.333 0 103 7.66699 149 23v136c0 29.333 0.333008 49.666 1 60.999h-109c-23.333 0 -35 12 -35 36c0 8.66699 2 19.667 6 33z" />
    <glyph glyph-name="H" unicode="H" horiz-adv-x="668" 
d="M494 386l-0.999023 74v223c8.66699 2 20.667 3 36 3s28.666 -1 39.999 -3v-683c-11.333 -2 -24.333 -3 -39 -3s-27 1 -37 3v246l1 74l-61 -1h-198l-61 1l1 -74v-246c-10 -2 -22.667 -3 -38 -3s-28 1 -38 3v683c10 2 22.667 3 38 3s28 -1 38 -3v-223l-1 -74l61 1h198z" />
    <glyph glyph-name="I" unicode="I" horiz-adv-x="282" 
d="M103 0v683c9.33301 2 21.5 3 36.5 3s28.167 -1 39.5 -3v-683c-11.333 -2 -24.5 -3 -39.5 -3s-27.167 1 -36.5 3z" />
    <glyph glyph-name="J" unicode="J" horiz-adv-x="436" 
d="M41 90c36.667 -22.667 76 -34.001 118 -34.001c42.667 0 72.5 12.833 89.5 38.5s25.5 69.5 25.5 131.5v457c10.667 2 23.667 3 39 3s28 -1 38 -3v-442c0 -32 -1.33301 -59.167 -4 -81.5s-6.5 -41.333 -11.5 -57s-10.5 -28.5 -16.5 -38.5s-12.333 -18.667 -19 -26
c-29.333 -32 -74 -48 -134 -48c-58.667 0 -110.667 13.667 -156 41c4.66699 22.667 15 42.334 31 59.001z" />
    <glyph glyph-name="K" unicode="K" horiz-adv-x="583" 
d="M561 21c-11.333 -17.333 -26.834 -25.999 -46.501 -25.999s-33.167 3.83301 -40.5 11.5s-14.333 20.5 -21 38.5l-64 163c-16 40.667 -33.833 69.167 -53.5 85.5s-44.334 24.5 -74.001 24.5s-58.5 -0.666992 -86.5 -2v-316c-10 -2 -22.667 -3 -38 -3s-28 1 -38 3v683
c10 2 22.667 3 38 3s28 -1 38 -3v-299l73 2c12.667 0 24 8 34 24l147 238c8.66699 14 16.334 23.667 23.001 29s15.334 8 26.001 8s26 -0.666992 46 -2l6 -8l-168 -272c-10 -16 -20.333 -28.333 -31 -37c32 -4.66699 57 -16.834 75 -36.501s35.667 -50.167 53 -91.5l61 -156
c11.333 -28 25 -48.333 41 -61z" />
    <glyph glyph-name="L" unicode="L" horiz-adv-x="506" 
d="M262 68h213c0 -14.667 -1 -25.667 -3 -33c-4 -23.333 -20.333 -35 -49 -35h-280c-12.667 0 -23.167 4.5 -31.5 13.5s-12.5 21.5 -12.5 37.5v629l6 6h30c16 0 26.667 -3.83301 32 -11.5s8 -20.5 8 -38.5v-571c30 2 59 3 87 3z" />
    <glyph glyph-name="M" unicode="M" horiz-adv-x="793" 
d="M84 1l52.999 682.001c12.667 2 29.834 3 51.501 3s38.167 -1 49.5 -3l115 -351c6 -16.667 14 -43.334 24 -80.001s15.667 -58.667 17 -66h5c9.33301 46 23 94.667 41 146l115 351c14 2 30.833 3 50.5 3s36.5 -1 50.5 -3l53 -682c-12 -3.33301 -24.5 -5 -37.5 -5
s-25.167 1 -36.5 3l-29 414c-2 30 -4.66699 93 -8 189h-5l-158 -495c-16 -2.66699 -29.333 -4 -40 -4s-22.667 1.33301 -36 4l-159 495h-5c-0.666992 -16.667 -1.83398 -48.167 -3.50098 -94.5s-3.16699 -77.833 -4.5 -94.5l-28 -414c-12 -2 -24.667 -3 -38 -3
s-25.666 1.66699 -36.999 5z" />
    <glyph glyph-name="N" unicode="N" horiz-adv-x="671" 
d="M567 686l6.00195 -5v-681c-12.667 -2 -28.334 -3 -47.001 -3s-34.667 1 -48 3l-243 453c-20 37.333 -42.667 83.333 -68 138h-3c4 -124 6 -196 6 -216v-375c-14 -2 -26.333 -3 -37 -3s-22 1 -34 3v683c12 2 27.167 3 45.5 3s34.166 -1 47.499 -3l243 -453
c16 -28.667 39.333 -75.667 70 -141h3c-4.66699 85.333 -7 161.333 -7 228v319c0 18 2.66699 30.833 8 38.5s16 11.5 32 11.5h26z" />
    <glyph glyph-name="O" unicode="O" horiz-adv-x="653" 
d="M146 443c-3.33301 -16 -5.49707 -32.501 -6.49707 -49.501s-1.5 -34.167 -1.5 -51.5c0 -30 2.33301 -61.833 7 -95.5s13.667 -65 27 -94s32.333 -53 57 -72s57 -28.5 97 -28.5c26.667 0 50 4.66699 70 14s37 21.5 51 36.5s25.167 32.5 33.5 52.5s15 40.833 20 62.5
s8.5 43.167 10.5 64.5s3 41.333 3 60c0 29.333 -2.33301 61 -7 95s-13.834 65.333 -27.501 94s-32.667 52.5 -57 71.5s-56.5 28.5 -96.5 28.5c-30 0 -55.667 -5.5 -77 -16.5s-38.833 -25.333 -52.5 -43s-24.334 -37.667 -32.001 -60s-13.834 -45.166 -18.501 -68.499z
M163.003 45.999c-70.667 62.667 -106 161 -106 295c0 52.667 5.83301 100.834 17.5 144.501s28.834 81 51.501 112s50.834 55 84.501 72s72.167 25.5 115.5 25.5c46 0 86 -9.5 120 -28.5s62.167 -44.667 84.5 -77s38.833 -69.833 49.5 -112.5s16 -87.667 16 -135
c0 -52.667 -5.83301 -100.834 -17.5 -144.501s-28.834 -81 -51.501 -112s-50.834 -55 -84.501 -72s-72.5 -25.5 -116.5 -25.5c-66 0 -120.333 19.333 -163 58z" />
    <glyph glyph-name="P" unicode="P" horiz-adv-x="556" 
d="M105 683l191 2.99902c32.667 0 62.667 -4.66699 90 -14s50.5 -23.166 69.5 -41.499s33.833 -40.833 44.5 -67.5s16 -57 16 -91c0 -68.667 -20 -121.667 -60 -159s-93.333 -56 -160 -56h-121v-257c-10 -2 -22.667 -3 -38 -3s-28 1 -38 3v677zM175 622.999
l-0.00195312 -303c13.333 0.666992 30.166 1 50.499 1h72.5c25.333 0 46.833 4.16699 64.5 12.5s31.834 19.5 42.501 33.5s18.334 30.333 23.001 49s7 38.334 7 59.001c0 18.667 -2.33301 37 -7 55s-12.5 33.667 -23.5 47s-25.667 24.166 -44 32.499
s-41.166 12.5 -68.499 12.5h-69c-19.333 0 -35.333 0.333008 -48 1z" />
    <glyph glyph-name="Q" unicode="Q" horiz-adv-x="642" 
d="M462 -98l-122 87l-14 -1c-90 0 -157.333 31 -202 93s-67 148.667 -67 260c0 55.333 5.5 104.833 16.5 148.5s27.5 80.834 49.5 111.501s49.5 54 82.5 70s71.167 24 114.5 24c44 0 82.5 -8.16699 115.5 -24.5s60.5 -39.666 82.5 -69.999s38.667 -67.166 50 -110.499
s17 -92 17 -146c0 -42 -3.5 -81.167 -10.5 -117.5s-17.167 -68.833 -30.5 -97.5s-29.833 -52.834 -49.5 -72.501s-41.167 -33.834 -64.5 -42.501l22 -15c16.667 -12 31 -21.667 43 -29s22.667 -13.333 32 -18s18 -7.83398 26 -9.50098s16.667 -2.83398 26 -3.50098
c-1.33301 -17.333 -7.33301 -31.166 -18 -41.499s-24.334 -15.5 -41.001 -15.5c-19.333 0 -38.666 6.66699 -57.999 20zM320 631c-121.333 0 -182 -96 -182 -288s60.667 -288 182 -288c122 0 183 96 183 288s-61 288 -183 288z" />
    <glyph glyph-name="R" unicode="R" horiz-adv-x="592" 
d="M105 683l202.004 3.00195c68.667 0 122 -17.333 160 -52s57 -83.334 57 -146.001c0 -44.667 -11.667 -83.167 -35 -115.5s-55.333 -54.5 -96 -66.5c27.333 -8.66699 49.666 -35.667 66.999 -81l52 -135c7.33301 -18.667 14.666 -33.834 21.999 -45.501
s14.333 -20.167 21 -25.5c-10.667 -16.667 -28.334 -25 -53.001 -25c-14 0 -24.833 3.66699 -32.5 11s-15.167 20.333 -22.5 39l-58 152c-11.333 30 -24.833 52.833 -40.5 68.5s-38.834 23.5 -69.501 23.5h-104v-288c-12 -2 -25 -3 -39 -3c-14.667 0 -27 1 -37 3v677z
M175.004 623.002l0.000976562 -271c14 0.666992 31.167 1.16699 51.5 1.5s44.5 0.5 72.5 0.5s51.167 3.66699 69.5 11s33.166 17 44.499 29s19.333 26.167 24 42.5s7 33.5 7 51.5c0 18.667 -2.33301 36.167 -7 52.5s-12.667 30.5 -24 42.5s-26.5 21.5 -45.5 28.5
s-42.833 10.5 -71.5 10.5h-72c-20 0 -36.333 0.333008 -49 1z" />
    <glyph glyph-name="S" unicode="S" horiz-adv-x="555" 
d="M39 63c2 24.667 13.668 44.9971 35.001 60.9971c68 -46 134.667 -69 200 -69c47.333 0 84.666 10 111.999 30s41 47.333 41 82c0 51.333 -35.333 92.666 -106 123.999l-117 51c-90 38.667 -135 94.667 -135 168c0 25.333 5.33301 49.333 16 72s25.5 42.334 44.5 59.001
s41.833 29.834 68.5 39.501s56.334 14.5 89.001 14.5c64.667 0 130.667 -16 198 -48c0 -26 -10.333 -47.333 -31 -64c-32.667 16.667 -62.834 28.667 -90.501 36s-53.167 11 -76.5 11c-21.333 0 -40.5 -3 -57.5 -9s-31.667 -13.833 -44 -23.5s-21.833 -21 -28.5 -34
s-10 -26.5 -10 -40.5c0 -29.333 8.5 -52.166 25.5 -68.499s40.833 -30.833 71.5 -43.5l113 -49c99.333 -43.333 149 -103.666 149 -180.999c0 -58 -19.667 -104.667 -59 -140s-100.333 -53 -183 -53c-81.333 0 -156.333 25 -225 75z" />
    <glyph glyph-name="T" unicode="T" horiz-adv-x="483" 
d="M335 617l-54.999 1.00195v-618c-10.667 -2 -23.334 -3 -38.001 -3s-27.667 1 -39 3v618l-54 -1h-128c-2 11.333 -3 22.166 -3 32.499s1 21.5 3 33.5h440c4 -8.66699 6 -19.334 6 -32.001c0 -22.667 -15.667 -34 -47 -34h-85z" />
    <glyph glyph-name="U" unicode="U" horiz-adv-x="666" 
d="M576 683v-449.999c0 -40 -5.83301 -75.167 -17.5 -105.5s-28 -55.833 -49 -76.5s-46.5 -36.334 -76.5 -47.001s-63.333 -16 -100 -16s-70 5.33301 -100 16s-55.5 26.334 -76.5 47.001s-37.167 46.167 -48.5 76.5s-17 65.5 -17 105.5v447l6 6h30
c16 0 26.667 -3.83301 32 -11.5s8 -20.5 8 -38.5v-402c0 -58.667 14.5 -103.834 43.5 -135.501s69.833 -47.5 122.5 -47.5s93.5 15.5 122.5 46.5s43.5 76.5 43.5 136.5v449c10 2 22.667 3 38 3c14.667 0 27.667 -1 39 -3z" />
    <glyph glyph-name="V" unicode="V" horiz-adv-x="557" 
d="M290 74l173.997 608.999c9.33301 2 20.333 3 33 3s24.334 -1.33301 35.001 -4l4 -6l-204 -677c-20 -2 -38.167 -3 -54.5 -3s-28.666 2.5 -36.999 7.5s-15.166 15.833 -20.499 32.5l-193 641c17.333 8 33.333 12 48 12c21.333 0 35.333 -12.333 42 -37l119 -403
c10.667 -35.333 26 -90.666 46 -165.999c1.33301 -6 4 -9 8 -9z" />
    <glyph glyph-name="W" unicode="W" horiz-adv-x="821" 
d="M168 38l-129.001 642.001c12.667 6 26.167 9 40.5 9s24.333 -3 30 -9s10.167 -16.667 13.5 -32l74 -383l34 -192c0.666992 -4.66699 1.5 -7.5 2.5 -8.5s3.16699 -1.5 6.5 -1.5l123 605c14.667 2 32.334 3 53.001 3s36.667 -1 48 -3l113 -595
c1.33301 -6.66699 4 -10 8 -10c6 33.333 19 100.666 39 201.999l88 418c10 2 22 3 36 3s26 -1.33301 36 -4l4 -5l-149 -676c-16.667 -3.33301 -36.167 -5 -58.5 -5s-37.5 2.83301 -45.5 8.5s-13.333 16.5 -16 32.5l-56 296l-47 255h-6c-19.333 -106 -36 -191 -50 -255
l-70 -333c-18 -2.66699 -41.5 -4 -70.5 -4s-46.167 14 -51.5 42z" />
    <glyph glyph-name="X" unicode="X" horiz-adv-x="572" 
d="M452 683c3.33301 1.33301 7.99805 2.33398 13.998 3.00098s12 1 18 1c7.33301 0 14.5 -0.5 21.5 -1.5s12.833 -2.83301 17.5 -5.5l3 -6l-193 -312l215 -350c-15.333 -12 -31 -18 -47 -18c-9.33301 0 -18.666 2.5 -27.999 7.5s-17.666 13.167 -24.999 24.5l-167 271
l-181 -297c-4 -1.33301 -8.83301 -2.33301 -14.5 -3s-11.834 -1 -18.501 -1c-7.33301 0 -14.666 0.5 -21.999 1.5s-13.666 2.83301 -18.999 5.5l-3 6l219 351l-191 311c7.33301 5.33301 15.166 9.66602 23.499 12.999s16.833 5 25.5 5c20.667 0 37.667 -10.667 51 -32
l143 -232z" />
    <glyph glyph-name="Y" unicode="Y" horiz-adv-x="481" 
d="M290 421l104.001 262c5.33301 1.33301 10.833 2.33301 16.5 3s11.5 1 17.5 1c11.333 0 23.666 -1.66699 36.999 -5l3 -6l-188 -454v-222c-11.333 -2 -24.333 -3 -39 -3c-15.333 0 -28 1 -38 3v225l-188 449c8 4.66699 16 8.5 24 11.5s15.667 4.5 23 4.5
c9.33301 0 17.833 -2.83301 25.5 -8.5s14.167 -15.167 19.5 -28.5l96 -232c4.66699 -11.333 10.5 -26.333 17.5 -45s14.833 -42 23.5 -70h5c1.33301 6 5.5 18.5 12.5 37.5z" />
    <glyph glyph-name="Z" unicode="Z" horiz-adv-x="553" 
d="M65 90l269 418.999c10 15.333 35.667 52 77 110l-3 3c-22.667 -4.66699 -75 -7 -157 -7h-170c-2 8.66699 -3 18.667 -3 30s2 24 6 38h396c7.33301 -26 11 -43.667 11 -53s-4 -21 -12 -35l-267 -414c-6 -10 -32.333 -48 -79 -114l3 -3c34.667 3.33301 69.667 5 105 5h131
c56.667 0 96.667 5.33301 120 16c4.66699 -14 7 -27.333 7 -40c0 -30 -18.667 -45 -56 -45h-379c-7.33301 24 -11 41.833 -11 53.5s4 23.834 12 36.501z" />
    <glyph glyph-name="bracketleft" unicode="[" horiz-adv-x="316" 
d="M283 -134l-177 -7.00098l-6 6v937l6 6l177 -7c1.33301 -5.33301 2 -13.166 2 -23.499s-2 -21.5 -6 -33.5l-103 -3v-815l103 -3c4 -13.333 6 -24.833 6 -34.5s-0.666992 -17.167 -2 -22.5z" />
    <glyph glyph-name="backslash" unicode="\" horiz-adv-x="407" 
d="M330 -106l-317 839c19.333 15.333 41.333 23.666 66 24.999l317 -839c-20 -15.333 -42 -23.666 -66 -24.999z" />
    <glyph glyph-name="bracketright" unicode="]" horiz-adv-x="316" 
d="M209 -141l-177 7.00098c-1.33301 5.33301 -2 12.833 -2 22.5s2 21.167 6 34.5l103 3v815l-103 3c-4 12 -6 23.167 -6 33.5s0.666992 18.166 2 23.499l177 7l7 -6v-937z" />
    <glyph glyph-name="asciicircum" unicode="^" horiz-adv-x="530" 
d="M305 648l171.999 -342c-7.33301 -2.66699 -19.333 -4 -36 -4s-30 1.33301 -40 4l-101 207l-32 72h-6l-32 -72l-101 -207c-10 -2.66699 -23.333 -4 -40 -4s-28.667 1.33301 -36 4l172 342c26.667 6.66699 53.334 6.66699 80.001 0z" />
    <glyph glyph-name="underscore" unicode="_" horiz-adv-x="510" 
d="M510 -143h-510c-2 8 -3 18.167 -3 30.5s1 22.5 3 30.5h510c2 -8 3 -18.167 3 -30.5s-1 -22.5 -3 -30.5z" />
    <glyph glyph-name="grave" unicode="`" 
d="M131 722l137 -154.001c-7.33301 -17.333 -19 -28 -35 -32l-163 130c12 28.667 32.333 47.334 61 56.001z" />
    <glyph glyph-name="a" unicode="a" horiz-adv-x="504" 
d="M448 31c-7.33301 -18.667 -18.668 -31.3291 -34.001 -37.9961c-32.667 12 -53.334 35.333 -62.001 70c-51.333 -50 -101.666 -75 -150.999 -75c-25.333 0 -47.333 4 -66 12s-34.167 18.667 -46.5 32s-21.666 28.666 -27.999 45.999s-9.5 35.666 -9.5 54.999
c0 26.667 4.5 50.167 13.5 70.5s21.333 37.166 37 50.499s34.167 23.333 55.5 30s44.333 10 69 10c50 0 90.667 -3 122 -9v50c0 68 -30 102 -90 102c-46 0 -100.333 -13.667 -163 -41c-17.333 15.333 -26 34.666 -26 57.999c72 31.333 137.333 47 196 47
c103.333 0 155 -55.667 155 -167v-206c-0.666992 -24 1.5 -43.833 6.5 -59.5s12.167 -28.167 21.5 -37.5zM347.998 131.005l-0.00195312 100.001c-16 2.66699 -32.667 4.5 -50 5.5s-35.666 1.5 -54.999 1.5c-38 0 -67 -8.83301 -87 -26.5s-30 -40.834 -30 -69.501
c0 -28 7 -50.167 21 -66.5s33 -24.5 57 -24.5c24.667 0 49.834 6.83301 75.501 20.5s48.5 33.5 68.5 59.5z" />
    <glyph glyph-name="b" unicode="b" horiz-adv-x="524" 
d="M88 25l0.000976562 704l6 6h27c16 0 26.667 -3.83301 32 -11.5s8 -20.5 8 -38.5v-247c41.333 40.667 89 61 143 61s95.667 -22.5 125 -67.5s44 -107.833 44 -188.5c0 -40 -5.5 -75.5 -16.5 -106.5s-26.167 -57.167 -45.5 -78.5s-41.833 -37.5 -67.5 -48.5
s-52.834 -16.5 -81.501 -16.5c-57.333 0 -115.333 10.667 -174 32zM161.001 364v-296.998c30 -11.333 63.667 -17 101 -17c38.667 0 71 17 97 51s39 83 39 147c0 32 -2.66699 59.667 -8 83s-12.833 42.666 -22.5 57.999s-20.5 26.666 -32.5 33.999s-25 11 -39 11
c-28 0 -53.5 -6.5 -76.5 -19.5s-42.5 -29.833 -58.5 -50.5z" />
    <glyph glyph-name="c" unicode="c" horiz-adv-x="469" 
d="M355 317l0.00292969 11.001c0 14.667 -2 29 -6 43s-10.167 26.333 -18.5 37s-19 19.167 -32 25.5s-28.5 9.5 -46.5 9.5c-38 0 -68 -17.333 -90 -52s-33 -84 -33 -148s10.833 -111.833 32.5 -143.5s51.167 -47.5 88.5 -47.5c39.333 0 84.333 18.333 135 55
c18 -10.667 29.667 -26.334 35 -47.001c-51.333 -48 -109 -72 -173 -72c-32 0 -60 6.33301 -84 19s-44.333 29.834 -61 51.501s-29.167 47.334 -37.5 77.001s-12.5 61.5 -12.5 95.5c0 46 5.16699 86.167 15.5 120.5s24.666 62.666 42.999 84.999s39.833 39 64.5 50
s51 16.5 79 16.5c28.667 0 53.667 -4.5 75 -13.5s39.166 -20.5 53.499 -34.5s25.166 -29.333 32.499 -46s11 -32.334 11 -47.001c0 -32 -13 -48 -39 -48c-9.33301 0 -20 1 -32 3z" />
    <glyph glyph-name="d" unicode="d" horiz-adv-x="525" 
d="M238 499c40 0 81.6689 -13.668 125.002 -41.001v271l6 6h27c15.333 0 25.666 -3.83301 30.999 -11.5s8 -20.5 8 -38.5v-547c0 -52.667 9.33301 -88.334 28 -107.001c-6.66699 -18 -17.667 -30.667 -33 -38c-30.667 10.667 -51 33 -61 67c-41.333 -48 -90 -72 -146 -72
c-58 0 -101.167 22.667 -129.5 68s-42.5 108.333 -42.5 189c0 40.667 5.33301 76.834 16 108.501s24.667 58.334 42 80.001s37.166 38 59.499 49s45.5 16.5 69.5 16.5zM233.002 51.999c22.667 0 45.832 6.83398 69.499 20.501s43.834 32.5 60.501 56.5v261
c-44 30 -82.667 45 -116 45c-34 0 -62.667 -16.167 -86 -48.5s-35 -80.833 -35 -145.5s10.167 -112.334 30.5 -143.001s45.833 -46 76.5 -46z" />
    <glyph glyph-name="e" unicode="e" horiz-adv-x="503" 
d="M440 223h-309.994c3.33301 -113.333 46.333 -170 129 -170c45.333 0 93.666 14 144.999 42c14.667 -13.333 23.667 -30.333 27 -51c-54.667 -37.333 -116 -56 -184 -56c-34.667 0 -64.334 6.5 -89.001 19.5s-44.834 31 -60.501 54s-27.167 50.167 -34.5 81.5
s-11 65.666 -11 102.999c0 38 4.5 72.667 13.5 104s22.167 58.333 39.5 81s38.166 40.334 62.499 53.001s52.166 19 83.499 19c30.667 0 58.167 -5.5 82.5 -16.5s44.666 -26 60.999 -45s28.833 -41.667 37.5 -68s13 -54.5 13 -84.5c0 -12 -0.5 -23.5 -1.5 -34.5
s-2.16699 -21.5 -3.5 -31.5zM130.006 280h240v13c0 46 -9.66699 83 -29 111s-48.333 42 -87 42c-38 0 -67.5 -15 -88.5 -45s-32.833 -70.333 -35.5 -121z" />
    <glyph glyph-name="f" unicode="f" horiz-adv-x="320" 
d="M108 0v435l-86 -1c-2 10 -3 19.333 -3 28c0 9.33301 1 19 3 29l83 -2c-2.66699 30 -4.5 53.5 -5.5 70.5s-1.5 28.167 -1.5 33.5c0 21.333 3.16699 40.833 9.5 58.5s15.5 33 27.5 46s26.5 23.167 43.5 30.5s36.167 11 57.5 11c42 0 81.667 -7 119 -21
c0 -21.333 -6 -38.333 -18 -51c-19.333 5.33301 -36.333 9.33301 -51 12s-27.667 4 -39 4c-26 0 -45.833 -8.5 -59.5 -25.5s-20.5 -41.167 -20.5 -72.5c0 -25.333 3 -57.333 9 -96l146 2c2 -10 3 -19.667 3 -29c0 -8.66699 -1 -18 -3 -28l-142 1v-435c-10 -2 -22 -3 -36 -3
s-26 1 -36 3z" />
    <glyph glyph-name="g" unicode="g" horiz-adv-x="524" 
d="M378 449c9.33301 23.333 27.001 39.667 53.001 49c16 -9.33301 27 -22.333 33 -39c-18.667 -18 -28 -53.667 -28 -107v-314c0 -46.667 -4.16699 -86.334 -12.5 -119.001s-20.5 -59.334 -36.5 -80.001s-35.833 -35.667 -59.5 -45s-51.167 -14 -82.5 -14
c-62.667 0 -120 11.333 -172 34c0.666992 23.333 7.66699 42.666 21 57.999c44.667 -21.333 90.334 -32 137.001 -32c26.667 0 48.667 3.66699 66 11s31.166 18 41.499 32s17.5 30.833 21.5 50.5s6 41.834 6 66.501v58c-43.333 -44 -92 -66 -146 -66s-95.667 22.5 -125 67.5
s-44 107.833 -44 188.5c0 40.667 5.16699 76.834 15.5 108.501s24.166 58.334 41.499 80.001s37.333 38.167 60 49.5s46.667 17 72 17c50.667 0 96.667 -18 138 -54zM366.001 130.001v259c-19.333 16.667 -39 29.167 -59 37.5s-39 12.5 -57 12.5
c-37.333 0 -67.333 -16.167 -90 -48.5s-34 -80.833 -34 -145.5c0 -64 9.83301 -111.5 29.5 -142.5s43.5 -46.5 71.5 -46.5s54 6.83301 78 20.5s44.333 31.5 61 53.5z" />
    <glyph glyph-name="h" unicode="h" horiz-adv-x="544" 
d="M461 342v-246.999c0 -38 4 -66.333 12 -85c-11.333 -10.667 -27 -16 -47 -16c-25.333 0 -38 16.333 -38 49v276c0 40.667 -5.33301 69.5 -16 86.5s-29.334 25.5 -56.001 25.5s-54.334 -7.16699 -83.001 -21.5s-52.667 -32.833 -72 -55.5v-354c-10 -2 -22.333 -3 -37 -3
c-14 0 -26 1 -36 3v729l6 6h27c16 0 26.667 -3.83301 32 -11.5s8 -20.5 8 -38.5v-258c22.667 21.333 49.334 38.666 80.001 51.999s61.334 20 92.001 20c44.667 0 77.167 -14.5 97.5 -43.5s30.5 -66.833 30.5 -113.5z" />
    <glyph glyph-name="i" unicode="i" horiz-adv-x="256" 
d="M170 422l-0.000976562 -422.001c-10 -2 -22.333 -3 -37 -3s-27 1 -37 3v386c0 18.667 -3 31.334 -9 38.001s-16.667 10 -32 10h-9c-2.66699 7.33301 -4 16.333 -4 27s1.33301 20 4 28c12.667 1.33301 23 2.5 31 3.5s14.333 1.5 19 1.5h8
c20.667 0 36.834 -6.5 48.501 -19.5s17.5 -30.5 17.5 -52.5zM71.999 661.999c10.667 6.66699 26.001 10 46.001 10c19.333 0 32.666 -3 39.999 -9s11 -18.667 11 -38s-4 -32.166 -12 -38.499s-21 -9.5 -39 -9.5c-16 0 -28.833 2.5 -38.5 7.5s-14.5 18.5 -14.5 40.5
c0 15.333 2.33301 27.666 7 36.999z" />
    <glyph glyph-name="j" unicode="j" horiz-adv-x="263" 
d="M177 422l-0.000976562 -438.999c0 -18.667 -0.333008 -37.834 -1 -57.501s-4.5 -38.5 -11.5 -56.5s-18.667 -34.667 -35 -50s-40.166 -28 -71.499 -38c-11.333 11.333 -19 27 -23 47c13.333 6.66699 24.333 13.834 33 21.501s15.667 16.167 21 25.5s9 20.166 11 32.499
s3 27.166 3 44.499v434c0 18.667 -3 31.334 -9 38.001s-16.667 10 -32 10h-18c-2.66699 11.333 -4 20.333 -4 27c0 6 1.33301 15.333 4 28l34 3.5c10 1 19 1.5 27 1.5h8c20 0 35.667 -6.5 47 -19.5s17 -30.5 17 -52.5zM78.999 662.001c10.667 6.66699 26.001 10 46.001 10
c19.333 0 32.666 -3 39.999 -9s11 -18.667 11 -38s-4 -32.166 -12 -38.499s-21 -9.5 -39 -9.5c-16 0 -28.833 2.5 -38.5 7.5s-14.5 18.5 -14.5 40.5c0 15.333 2.33301 27.666 7 36.999z" />
    <glyph glyph-name="k" unicode="k" horiz-adv-x="490" 
d="M381 179l39.002 -88c17.333 -39.333 33.333 -64.333 48 -75c-10.667 -14.667 -25.334 -22 -44.001 -22s-31.834 4 -39.501 12s-15.5 21.333 -23.5 40l-46 104c-12.667 29.333 -25.667 49 -39 59s-31 15 -53 15s-42.667 -1.33301 -62 -4v-220c-10 -2 -22.167 -3 -36.5 -3
s-26.5 1 -36.5 3v729l6 6h27c16 0 26.667 -3.83301 32 -11.5s8 -20.5 8 -38.5v-402l43 2c9.33301 0 17 4.66699 23 14l107 158c8.66699 13.333 16.667 22.833 24 28.5s16 8.5 26 8.5s24.333 -0.666992 43 -2l6 -8l-127 -185c-8.66699 -12.667 -16.667 -22 -24 -28
c22.667 -4.66699 41.667 -14.167 57 -28.5s29.333 -35.5 42 -63.5z" />
    <glyph glyph-name="l" unicode="l" horiz-adv-x="283" 
d="M196 57h42c2.66699 -6 4.5 -12.667 5.5 -20s1.5 -14 1.5 -20c0 -4 -0.166992 -7.16699 -0.5 -9.5s-0.5 -4.16602 -0.5 -5.49902c-10.667 -2 -21 -3.66699 -31 -5s-20 -2 -30 -2c-27.333 0 -50.333 6.16699 -69 18.5s-28 34.166 -28 65.499v650l6 6h27
c16 0 26.667 -3.83301 32 -11.5s8 -20.5 8 -38.5v-585c0 -28.667 12.333 -43 37 -43z" />
    <glyph glyph-name="m" unicode="m" horiz-adv-x="791" 
d="M361 320c0 40 -5.16992 68.667 -15.5029 86s-27.166 26 -50.499 26c-22.667 0 -46.167 -7 -70.5 -21s-45.166 -33 -62.499 -57v-354c-10 -2 -22.333 -3 -37 -3s-27 1 -37 3v487l6 7h28c16 0 26.667 -4.16699 32 -12.5s8 -21.5 8 -39.5v-15c42 48 90.667 72 146 72
s93 -25 113 -75c54.667 50 108.667 75 162 75c42 0 73.333 -14.167 94 -42.5s31 -65.5 31 -111.5v-250c0 -38 4 -66.333 12 -85c-11.333 -10.667 -27 -16 -47 -16c-25.333 0 -38 16.333 -38 49v278c0 40 -5.16699 68.5 -15.5 85.5s-27.166 25.5 -50.499 25.5
c-22.667 0 -46 -6.66699 -70 -20s-45.333 -32 -64 -56v-356c-10 -2 -22.333 -3 -37 -3s-27 1 -37 3v320z" />
    <glyph glyph-name="n" unicode="n" horiz-adv-x="545" 
d="M463 343l-0.000976562 -247.999c0 -38 3.66699 -66.333 11 -85c-10.667 -10.667 -26.334 -16 -47.001 -16c-25.333 0 -38 16.333 -38 49v277c0 40.667 -5 69.5 -15 86.5s-29 25.5 -57 25.5c-26.667 0 -54.334 -7.16699 -83.001 -21.5s-52.667 -32.833 -72 -55.5v-355
c-10 -2 -22.333 -3 -37 -3s-27 1 -37 3v488l6 6h28c16 0 26.667 -4.16699 32 -12.5s8 -21.5 8 -39.5v-14c22.667 21.333 49.334 38.5 80.001 51.5s61.334 19.5 92.001 19.5c44.667 0 77.334 -14.333 98.001 -43s31 -66.334 31 -113.001z" />
    <glyph glyph-name="o" unicode="o" horiz-adv-x="519" 
d="M397 41c-35.333 -35.333 -81.334 -53 -138.001 -53c-33.333 0 -62.833 6.33301 -88.5 19s-47.334 30.167 -65.001 52.5s-31 49.333 -40 81s-13.5 66.5 -13.5 104.5s4.5 72.833 13.5 104.5s22.333 58.834 40 81.501s39.334 40.334 65.001 53.001s55.167 19 88.5 19
s62.833 -6.33301 88.5 -19s47.334 -30.334 65.001 -53.001s31.167 -49.834 40.5 -81.501s14 -66.5 14 -104.5c0 -89.333 -23.333 -157.333 -70 -204zM259.999 46c42.667 0 75.168 18.168 97.501 54.501s33.5 84.5 33.5 144.5c0 26.667 -2.5 52.167 -7.5 76.5
s-12.833 45.666 -23.5 63.999s-24.334 32.833 -41.001 43.5s-36.667 16 -60 16c-22.667 0 -42.167 -5.16699 -58.5 -15.5s-29.833 -24.5 -40.5 -42.5s-18.5 -39.167 -23.5 -63.5s-7.5 -50.5 -7.5 -78.5s2.5 -54 7.5 -78s12.667 -45 23 -63s23.833 -32.167 40.5 -42.5
s36.667 -15.5 60 -15.5z" />
    <glyph glyph-name="p" unicode="p" horiz-adv-x="526" 
d="M161 33l-0.000976562 -197.999c0 -18 -2.66699 -30.833 -8 -38.5s-16 -11.5 -32 -11.5h-27l-6 6v697l6 6h26c16 0 26.833 -4.16699 32.5 -12.5s8.5 -21.833 8.5 -40.5v-5c40 44.667 87.667 67 143 67c56.667 0 99.334 -22.833 128.001 -68.5s43 -108.834 43 -189.501
c0 -39.333 -5.16699 -74.666 -15.5 -105.999s-24 -57.833 -41 -79.5s-36.5 -38.334 -58.5 -50.001s-44.667 -17.5 -68 -17.5c-46 0 -89.667 13.667 -131 41zM160.999 358.001l-0.000976562 -257.002c40.667 -30 79 -45 115 -45s65.667 16 89 48s35 80.333 35 145
c0 32 -2.83301 59.833 -8.5 83.5s-13.167 43.334 -22.5 59.001s-20.166 27.334 -32.499 35.001s-25.5 11.5 -39.5 11.5c-26.667 0 -52 -7 -76 -21s-44 -33.667 -60 -59z" />
    <glyph glyph-name="q" unicode="q" horiz-adv-x="524" 
d="M364 -165v218.997c-41.333 -41.333 -89.333 -62 -144 -62c-54 0 -95.667 22.5 -125 67.5s-44 107.833 -44 188.5c0 40.667 5.16699 76.834 15.5 108.501s24.166 58.334 41.499 80.001s37.333 38.167 60 49.5s46.667 17 72 17c51.333 0 97.333 -17.333 138 -52
c11.333 22.667 29 38.334 53 47.001c16 -9.33301 27 -22.333 33 -39c-18.667 -18 -28 -53.667 -28 -107v-561l-6 -6h-27c-15.333 0 -25.666 3.83301 -30.999 11.5s-8 20.5 -8 38.5zM364 126.997v263.999c-37.333 32 -74.666 48 -111.999 48
c-36.667 0 -66.834 -16.167 -90.501 -48.5s-35.5 -80.833 -35.5 -145.5c0 -63.333 10 -110.666 30 -141.999s43.667 -47 71 -47c28 0 53.667 6.5 77 19.5s43.333 30.167 60 51.5z" />
    <glyph glyph-name="r" unicode="r" horiz-adv-x="353" 
d="M61 456c4.66699 17.333 15.333 31.333 32 42c37.333 -14 61.333 -43.667 72 -89c27.333 58.667 72 88 134 88c14 0 29.333 -1.33301 46 -4c0 -28.667 -5.66699 -52 -17 -70c-8 0.666992 -19.667 1 -35 1c-54 0 -94.667 -30.333 -122 -91v-333c-10 -2 -22.333 -3 -37 -3
s-27 1 -37 3v354c0 45.333 -12 79.333 -36 102z" />
    <glyph glyph-name="s" unicode="s" horiz-adv-x="434" 
d="M37 38c0.666992 20.667 10.332 38.667 28.999 54c30 -17.333 56.833 -29.333 80.5 -36s45.167 -10 64.5 -10c16.667 0 31.167 2.16699 43.5 6.5s22.833 10 31.5 17s15.334 14.833 20.001 23.5s7.33398 17.334 8.00098 26.001c0 20 -6.16699 36.833 -18.5 50.5
s-30.5 25.167 -54.5 34.5l-56 22c-42.667 16.667 -74.667 36.167 -96 58.5s-32 49.166 -32 80.499c0 20.667 4.33301 39.5 13 56.5s20.667 31.5 36 43.5s33.333 21.333 54 28s43.334 10 68.001 10c49.333 0 98.666 -11 147.999 -33c0 -23.333 -7.66699 -42.666 -23 -57.999
c-25.333 11.333 -48.5 19.333 -69.5 24s-40.167 7 -57.5 7c-30.667 0 -53.834 -7 -69.501 -21s-23.5 -30 -23.5 -48c0 -19.333 6 -34.5 18 -45.5s31 -21.5 57 -31.5l59 -23c82.667 -32.667 124 -81 124 -145c0 -44.667 -17 -79.334 -51 -104.001s-80 -37 -138 -37
c-56.667 0 -111.667 16.667 -165 50z" />
    <glyph glyph-name="t" unicode="t" horiz-adv-x="337" 
d="M305 491c2 -10 3.00195 -19.501 3.00195 -28.501s-1 -18.5 -3 -28.5l-127 1v-336c0 -28 13 -42 39 -42h76c4.66699 -11.333 7 -22.666 7 -33.999s-0.666992 -18.333 -2 -21c-30.667 -4 -62.334 -6 -95.001 -6c-64.667 0 -97 27.667 -97 83v356l-71 -1
c-2 10 -3 19.5 -3 28.5s1 18.5 3 28.5l71 -1v105c0 18 2.66699 30.833 8 38.5s15.666 11.5 30.999 11.5h27l6 -6v-150z" />
    <glyph glyph-name="u" unicode="u" horiz-adv-x="546" 
d="M83 147v249c0 35.333 -4 63.666 -12 84.999c11.333 10.667 27 16 47 16c25.333 0 38 -16.333 38 -49v-277c0 -42 5.33301 -71.333 16 -88s29.334 -25 56.001 -25s54.334 7.16699 83.001 21.5s52.667 32.833 72 55.5v355c4 1.33301 9.33301 2.33301 16 3s13.667 1 21 1
s14.166 -0.333008 20.499 -1s11.833 -1.66699 16.5 -3v-352c0 -53.333 9.33301 -89 28 -107c-6 -18.667 -17.333 -31.334 -34 -38.001c-32.667 10.667 -53.667 35.334 -63 74.001c-22.667 -22.667 -49.834 -41 -81.501 -55s-63.5 -21 -95.5 -21
c-44.667 0 -77.167 14.333 -97.5 43s-30.5 66.334 -30.5 113.001z" />
    <glyph glyph-name="v" unicode="v" horiz-adv-x="442" 
d="M229 64l134.001 426.999c10.667 2.66699 20.5 4 29.5 4s21.5 -2 37.5 -6l2 -3c-61.333 -190.667 -116 -352.667 -164 -486c-13.333 -3.33301 -29.333 -5 -48 -5s-31.5 2.83301 -38.5 8.5s-14.167 18.834 -21.5 39.501l-149 442c17.333 8.66699 32.333 13 45 13
c19.333 0 31.666 -9.66699 36.999 -29l80 -238c20 -62.667 35.667 -115.667 47 -159c1.33301 -5.33301 4.33301 -8 9 -8z" />
    <glyph glyph-name="w" unicode="w" horiz-adv-x="704" 
d="M140 43l-107.998 442.999c18 8 33.333 12 46 12c18.667 0 30 -10 34 -30l53 -232c9.33301 -41.333 21.333 -98.666 36 -171.999c1.33301 -6 4 -9 8 -9l101 435c10 2 25 3 45 3s35 -1 45 -3l95 -426c1.33301 -6 4 -9 8 -9c12.667 59.333 26.334 119.666 41.001 180.999
l60 255c8 2.66699 19.333 4 34 4s26.667 -2 36 -6l2 -3l-124 -487c-14 -2 -31.167 -3 -51.5 -3s-35 3 -44 9s-15.5 18.667 -19.5 38l-35 156c-2.66699 10.667 -9.33398 42.834 -20.001 96.501s-19.334 94.5 -26.001 122.5h-4c-3.33301 -18 -19.333 -90.667 -48 -218
l-48 -200c-15.333 -2.66699 -33 -4 -53 -4s-34.333 3 -43 9s-15.334 18.667 -20.001 38z" />
    <glyph glyph-name="x" unicode="x" horiz-adv-x="449" 
d="M334 490c6.66699 3.33301 16.667 5 30 5c7.33301 0 14.333 -0.5 21 -1.5s12.334 -2.83301 17.001 -5.5l3 -6l-141 -222l163 -249c-18 -12 -34.667 -18 -50 -18c-16 0 -29 7.33301 -39 22l-119 184l-125 -200c-3.33301 -1.33301 -7.5 -2.33301 -12.5 -3
s-10.833 -1 -17.5 -1c-7.33301 0 -14.333 0.5 -21 1.5s-12.667 2.83301 -18 5.5l-3 6l159 249l-145 224c16.667 12 32.667 18 48 18c17.333 0 30.666 -7.66699 39.999 -23l103 -159z" />
    <glyph glyph-name="y" unicode="y" horiz-adv-x="452" 
d="M436 486l-137 -469c-25.333 -86 -52.333 -146.667 -81 -182s-71.667 -53 -129 -53c-29.333 0 -56.333 4.33301 -81 13c-2 18.667 3.33301 36.667 16 54c20.667 -7.33301 42.667 -11 66 -11c35.333 0 62.333 12 81 36s35.667 61.333 51 112l3 10
c-17.333 1.33301 -30.5 5.33301 -39.5 12s-16.5 19 -22.5 37l-140 440c20.667 8.66699 35.334 13 44.001 13c19.333 0 32.333 -11.667 39 -35l79 -251c2.66699 -8 18 -60 46 -156c1.33301 -4.66699 4.66602 -7 9.99902 -7l122 442c8.66699 2.66699 20.167 4 34.5 4
s26.5 -2 36.5 -6z" />
    <glyph glyph-name="z" unicode="z" horiz-adv-x="444" 
d="M54 77l187.999 258.004l78 97l-3 3c-13.333 -1.33301 -31.5 -2.5 -54.5 -3.5s-50.833 -1.5 -83.5 -1.5h-120c-1.33301 6.66699 -2 14 -2 22c0 6 0.333008 12.333 1 19s1.66699 13 3 19h326c8.66699 -20 13 -35 13 -45s-4 -20.333 -12 -31l-185 -252
c-7.33301 -10.667 -17.666 -24.334 -30.999 -41.001l-48 -60l3 -3c34.667 2 68 3 100 3h55c56 0 94.667 4 116 12c4 -11.333 6 -23 6 -35c0 -25.333 -18 -38 -54 -38h-297c-4 11.333 -7 20.666 -9 27.999s-3 13.666 -3 18.999s1 10.166 3 14.499s5.33301 9.5 10 15.5z" />
    <glyph glyph-name="braceleft" unicode="{" horiz-adv-x="318" 
d="M41 350c23.333 9.33301 42.5 24.335 57.5 45.002s22.5 46.334 22.5 77.001v175c0 44 12 79.167 36 105.5s56 42.833 96 49.5l43 7c5.33301 -6 9.33301 -14.333 12 -25s2.66699 -20.334 0 -29.001l-43 -14c-44.667 -12.667 -67 -44.334 -67 -95.001v-172
c0 -31.333 -7.33301 -60.5 -22 -87.5s-34 -46.5 -58 -58.5v-8c24 -12 43.333 -31.5 58 -58.5s22 -55.833 22 -86.5v-174c0 -49.333 22.333 -81 67 -95l43 -13c5.33301 -20.667 1.33301 -39 -12 -55l-43 7c-40 6.66699 -72 23.334 -96 50.001s-36 61.667 -36 105v177
c0 29.333 -7.5 54.666 -22.5 75.999s-34.167 36.666 -57.5 45.999c-2.66699 6 -4 14.5 -4 25.5s1.33301 19.5 4 25.5z" />
    <glyph glyph-name="bar" unicode="|" horiz-adv-x="247" 
d="M88 -140v915c10 2 21.5 3 34.5 3s25.167 -1 36.5 -3v-915c-11.333 -2 -23.5 -3 -36.5 -3s-24.5 1 -34.5 3z" />
    <glyph glyph-name="braceright" unicode="}" horiz-adv-x="318" 
d="M276 350c2.66699 -6 4 -14.501 4 -25.501s-1.33301 -19.5 -4 -25.5c-23.333 -9.33301 -42.5 -24.666 -57.5 -45.999s-22.5 -46.666 -22.5 -75.999v-177c0 -43.333 -12 -78.333 -36 -105s-56 -43.334 -96 -50.001l-42 -7c-13.333 14.667 -17.666 33 -12.999 55l44 13
c44.667 14 67 45.667 67 95v174c0 30.667 7.33301 59.5 22 86.5s34 46.5 58 58.5v8c-24 12 -43.333 31.5 -58 58.5s-22 56.167 -22 87.5v172c0 50.667 -22.333 82.334 -67 95.001l-44 14c-4.66699 22.667 -0.333984 40.667 12.999 54l42 -7c40 -6.66699 72 -23.167 96 -49.5
s36 -61.5 36 -105.5v-175c0 -30.667 7.5 -56.334 22.5 -77.001s34.167 -35.667 57.5 -45z" />
    <glyph glyph-name="asciitilde" unicode="~" horiz-adv-x="560" 
d="M261 340l77 -35c20.667 -8.66699 39 -13 55 -13c24 0 45.333 12 64 36l15 19c8.66699 -0.666992 17.334 -3.5 26.001 -8.5s14.667 -11.5 18 -19.5l-10 -18c-27.333 -53.333 -69 -80 -125 -80c-26 0 -53.333 6.66699 -82 20l-77 35c-18 8 -37.667 12 -59 12
s-41 -11.667 -59 -35l-16 -19c-8.66699 0.666992 -17.334 3.5 -26.001 8.5s-14.667 11.5 -18 19.5l10 18c27.333 53.333 69 80 125 80c26 0 53.333 -6.66699 82 -20z" />
    <glyph glyph-name="Zcaron" horiz-adv-x="553" 
d="M65 90l269 418.999c10 15.333 35.667 52 77 110l-3 3c-22.667 -4.66699 -75 -7 -157 -7h-170c-2 8.66699 -3 18.667 -3 30s2 24 6 38h396c7.33301 -26 11 -43.667 11 -53s-4 -21 -12 -35l-267 -414c-6 -10 -32.333 -48 -79 -114l3 -3c34.667 3.33301 69.667 5 105 5h131
c56.667 0 96.667 5.33301 120 16c4.66699 -14 7 -27.333 7 -40c0 -30 -18.667 -45 -56 -45h-379c-7.33301 24 -11 41.833 -11 53.5s4 23.834 12 36.501zM171 876.999l110 -74.999l112 81c7.33301 -2.66699 14.5 -7.5 21.5 -14.5s11.5 -14.167 13.5 -21.5l-112 -108
c-28 -2.66699 -51.333 -2.66699 -70 0l-111 104c6 17.333 18 28.666 36 33.999z" />
    <glyph glyph-name="Zcaron" unicode="&#x17d;" horiz-adv-x="553" 
d="M65 90l269 418.999c10 15.333 35.667 52 77 110l-3 3c-22.667 -4.66699 -75 -7 -157 -7h-170c-2 8.66699 -3 18.667 -3 30s2 24 6 38h396c7.33301 -26 11 -43.667 11 -53s-4 -21 -12 -35l-267 -414c-6 -10 -32.333 -48 -79 -114l3 -3c34.667 3.33301 69.667 5 105 5h131
c56.667 0 96.667 5.33301 120 16c4.66699 -14 7 -27.333 7 -40c0 -30 -18.667 -45 -56 -45h-379c-7.33301 24 -11 41.833 -11 53.5s4 23.834 12 36.501zM171 876.999l110 -74.999l112 81c7.33301 -2.66699 14.5 -7.5 21.5 -14.5s11.5 -14.167 13.5 -21.5l-112 -108
c-28 -2.66699 -51.333 -2.66699 -70 0l-111 104c6 17.333 18 28.666 36 33.999z" />
    <glyph glyph-name="zcaron" horiz-adv-x="444" 
d="M54 77l187.999 258.004l78 97l-3 3c-13.333 -1.33301 -31.5 -2.5 -54.5 -3.5s-50.833 -1.5 -83.5 -1.5h-120c-1.33301 6.66699 -2 14 -2 22c0 6 0.333008 12.333 1 19s1.66699 13 3 19h326c8.66699 -20 13 -35 13 -45s-4 -20.333 -12 -31l-185 -252
c-7.33301 -10.667 -17.666 -24.334 -30.999 -41.001l-48 -60l3 -3c34.667 2 68 3 100 3h55c56 0 94.667 4 116 12c4 -11.333 6 -23 6 -35c0 -25.333 -18 -38 -54 -38h-297c-4 11.333 -7 20.666 -9 27.999s-3 13.666 -3 18.999s1 10.166 3 14.499s5.33301 9.5 10 15.5z
M130.999 713.004l95 -93.001l101 98c16 -5.33301 28 -16.666 36 -33.999l-107 -132c-16.667 -6 -38 -6.33301 -64 -1l-101 127c10.667 19.333 24 31 40 35z" />
    <glyph glyph-name="zcaron" unicode="&#x17e;" horiz-adv-x="444" 
d="M54 77l187.999 258.004l78 97l-3 3c-13.333 -1.33301 -31.5 -2.5 -54.5 -3.5s-50.833 -1.5 -83.5 -1.5h-120c-1.33301 6.66699 -2 14 -2 22c0 6 0.333008 12.333 1 19s1.66699 13 3 19h326c8.66699 -20 13 -35 13 -45s-4 -20.333 -12 -31l-185 -252
c-7.33301 -10.667 -17.666 -24.334 -30.999 -41.001l-48 -60l3 -3c34.667 2 68 3 100 3h55c56 0 94.667 4 116 12c4 -11.333 6 -23 6 -35c0 -25.333 -18 -38 -54 -38h-297c-4 11.333 -7 20.666 -9 27.999s-3 13.666 -3 18.999s1 10.166 3 14.499s5.33301 9.5 10 15.5z
M130.999 713.004l95 -93.001l101 98c16 -5.33301 28 -16.666 36 -33.999l-107 -132c-16.667 -6 -38 -6.33301 -64 -1l-101 127c10.667 19.333 24 31 40 35z" />
    <glyph glyph-name="exclamdown" unicode="&#xa1;" horiz-adv-x="277" 
d="M169 304l7.00293 -481c-20.667 -14.667 -47.334 -22 -80.001 -22l-6 6l19 497c4 1.33301 8.66699 2.33301 14 3s10.666 1 15.999 1s10.666 -0.333008 15.999 -1s10 -1.66699 14 -3zM186.003 407c-6 -3.33301 -13.165 -5.83398 -21.498 -7.50098
s-17.166 -2.5 -26.499 -2.5c-8 0 -15.333 0.166992 -22 0.5s-12.334 2 -17.001 5s-8.33398 8 -11.001 15s-4 16.833 -4 29.5c0 24 4.66699 38.5 14 43.5s22.666 7.5 39.999 7.5c19.333 0 33.333 -2.5 42 -7.5s13 -19.5 13 -43.5c0 -19.333 -2.33301 -32.666 -7 -39.999z" />
    <glyph glyph-name="cent" unicode="&#xa2;" horiz-adv-x="471" 
d="M216 -30l-0.00292969 99.999c-28.667 4 -53.167 13.333 -73.5 28s-37.333 33.5 -51 56.5s-23.834 49.5 -30.501 79.5s-10 62.333 -10 97c0 35.333 4.16699 67.333 12.5 96s19.833 53.834 34.5 75.501s32.334 39.167 53.001 52.5s43.334 22 68.001 26v99
c8 2 18.667 3 32 3s25 -1 35 -3v-98c23.333 -3.33301 43.833 -9.83301 61.5 -19.5s32.167 -21.167 43.5 -34.5s20 -27.666 26 -42.999s9 -30.333 9 -45c0 -30 -13.333 -45 -40 -45c-10 0 -20.333 1 -31 3v11c0 16 -2 30.833 -6 44.5s-10.333 25.834 -19 36.501
s-19.5 19 -32.5 25s-28.5 9 -46.5 9c-38 0 -67.5 -17.333 -88.5 -52s-31.5 -84.334 -31.5 -149.001c0 -126.667 42 -190 126 -190c42 0 84 19 126 57c8 -4 15.833 -10.167 23.5 -18.5s12.834 -16.5 15.501 -24.5c-36.667 -42.667 -83 -68.334 -139 -77.001v-100
c-6 -1.33301 -12 -2 -18 -2h-17h-16c-5.33301 0 -10.666 0.666992 -15.999 2z" />
    <glyph glyph-name="sterling" unicode="&#xa3;" horiz-adv-x="524" 
d="M213 275l1 -19.9971c0 -58 -24.333 -121.333 -73 -190l3 -3l87.5 3c19.667 0.666992 29.834 1 30.501 1h219c0 -22.667 -3.5 -39.334 -10.5 -50.001s-20.5 -16 -40.5 -16h-359c-8 24 -12 42 -12 54c-0.666992 7.33301 0.333008 13.666 3 18.999s5.66699 10.666 9 15.999
l18 28c15.333 25.333 28 49.5 38 72.5s14.333 45.5 13 67.5l-1 18c-8.66699 -0.666992 -19.334 -1 -32.001 -1h-44c-2 8.66699 -3 18 -3 28s1 21 3 33h35.5c10.333 0 18.833 -0.333008 25.5 -1c-8 24.667 -17.167 49.834 -27.5 75.501s-15.5 51.167 -15.5 76.5
c0 22.667 4.16699 44.5 12.5 65.5s20.5 39.5 36.5 55.5s35.667 28.833 59 38.5s50.333 14.5 81 14.5c74 0 137.333 -23.333 190 -70c-0.666992 -10.667 -5 -21.5 -13 -32.5s-17 -18.167 -27 -21.5c-22 18.667 -46.167 33.167 -72.5 43.5s-53.5 15.5 -81.5 15.5
c-13.333 0 -26.333 -2.5 -39 -7.5s-24.167 -12.333 -34.5 -22s-18.666 -21.334 -24.999 -35.001s-9.5 -29.167 -9.5 -46.5c0 -12 2 -26.167 6 -42.5s8.33301 -32 13 -47s9.16699 -28.167 13.5 -39.5s7.16602 -18.333 8.49902 -21l191 1
c1.33301 -5.33301 2.33301 -10.5 3 -15.5s1 -10.167 1 -15.5s-0.333008 -10.333 -1 -15s-1.66699 -9.66699 -3 -15z" />
    <glyph glyph-name="currency" unicode="&#xa4;" horiz-adv-x="566" 
d="M109 459l-72.002 77.0029c11.333 19.333 26 34 44 44l77 -72c36.667 25.333 77.667 38 123 38c46.667 0 88.334 -12.333 125.001 -37l78 72c20.667 -11.333 35.334 -26 44.001 -44l-72 -77c13.333 -19.333 23.166 -39.833 29.499 -61.5s9.5 -43.167 9.5 -64.5
c0 -45.333 -12.667 -86.333 -38 -123l72 -77c-8.66699 -16.667 -23.334 -31.334 -44.001 -44.001l-77 72c-37.333 -25.333 -79 -38 -125 -38s-87.667 12.667 -125 38l-77 -72c-9.33301 5.33301 -17.666 11.666 -24.999 18.999s-13.666 15.666 -18.999 24.999l72 77
c-13.333 18 -23 37.667 -29 59s-9 43 -9 65s3 43.5 9 64.5s15.667 40.833 29 59.5zM282.998 488.003c-20 0 -38.166 -4 -54.499 -12s-30.333 -18.833 -42 -32.5s-20.834 -29.834 -27.501 -48.501s-10 -38.667 -10 -60c0 -20.667 3.16699 -40.167 9.5 -58.5
s15.333 -34.5 27 -48.5s25.667 -25 42 -33s34.833 -12 55.5 -12c20 0 38.333 4 55 12s30.834 19 42.501 33s20.667 30.167 27 48.5s9.5 37.833 9.5 58.5c0 21.333 -3.33301 41.333 -10 60s-15.834 34.834 -27.501 48.501s-25.667 24.5 -42 32.5s-34.5 12 -54.5 12z" />
    <glyph glyph-name="yen" unicode="&#xa5;" horiz-adv-x="498" 
d="M439 183l-153 0.000976562v-183c-11.333 -2 -24 -3 -38 -3c-14.667 0 -27 1 -37 3v183h-153c-2.66699 7.33301 -4 16.666 -4 27.999c0 10.667 1.33301 20 4 28h149l-39 88h-110c-2.66699 7.33301 -4 16.666 -4 27.999c0 10.667 1.33301 20 4 28h85l-114 259
c7.33301 4.66699 15 8.33398 23 11.001s15.667 4 23 4c9.33301 0 17.833 -2.5 25.5 -7.5s14.167 -13.167 19.5 -24.5l89 -217l16.5 -41.5c7 -17.667 14.833 -39.167 23.5 -64.5h5c11.333 32 20.5 56.667 27.5 74s11.167 28 12.5 32l101 243c13.333 3.33301 25.333 5 36 5
c6 0 12 -0.333008 18 -1s11.667 -1.66699 17 -3l3 -6l-116 -263h86c2 -10 3 -19.333 3 -28s-1 -18 -3 -28h-111l-38 -88h149c2 -10 3 -19.333 3 -28s-1 -18 -3 -28z" />
    <glyph glyph-name="brokenbar" unicode="&#xa6;" horiz-adv-x="241" 
d="M86 -140v387c9.33301 2 20.666 3 33.999 3s25.333 -1 36 -3v-387c-10.667 -2 -22.667 -3 -36 -3s-24.666 1 -33.999 3zM86 388l-0.00292969 387c8.66699 2 19.834 3 33.501 3s25.834 -1 36.501 -3v-387c-10.667 -2 -22.667 -3 -36 -3s-24.666 1 -33.999 3z" />
    <glyph glyph-name="section" unicode="&#xa7;" horiz-adv-x="477" 
d="M333 152c47.333 -30 71 -67.668 71 -113.001c0 -44.667 -16.667 -79.5 -50 -104.5s-78.333 -37.5 -135 -37.5c-57.333 0 -107.333 14 -150 42c0 9.33301 2.66699 19.5 8 30.5s11.666 19.5 18.999 25.5c48.667 -25.333 90.667 -38 126 -38c36 0 62.667 6.5 80 19.5
s26 30.833 26 53.5c0 31.333 -25 57 -75 77l-59 23c-49.333 19.333 -88.166 41.166 -116.499 65.499s-42.5 54.166 -42.5 89.499c0 36 10.167 66.833 30.5 92.5s46.5 46.5 78.5 62.5c-46.667 30.667 -70 68.334 -70 113.001c0 22.667 4.5 42.834 13.5 60.501
s21.167 32.5 36.5 44.5s33.5 21.167 54.5 27.5s43.5 9.5 67.5 9.5c50.667 0 99.667 -11.333 147 -34c0 -23.333 -7.66699 -42.666 -23 -57.999c-49.333 21.333 -91.666 32 -126.999 32c-30.667 0 -53.667 -7 -69 -21s-23 -31.333 -23 -52c0 -31.333 25 -57 75 -77l58 -23
c50 -20 89.167 -41.833 117.5 -65.5s42.5 -53.5 42.5 -89.5s-10.333 -66.833 -31 -92.5s-47.334 -46.5 -80.001 -62.5zM258 389.999l-56 19.9971c-60 -28 -90 -64.333 -90 -109c0 -23.333 9.5 -42.166 28.5 -56.499s45.5 -28.166 79.5 -41.499l54 -22
c62 28.667 93 65.334 93 110.001c0 23.333 -9.66699 42.333 -29 57s-46 28.667 -80 42z" />
    <glyph glyph-name="dieresis" unicode="&#xa8;" 
d="M248 640c10 6 23.332 9 39.999 9c20.667 0 33.5 -4.16699 38.5 -12.5s7.5 -18.833 7.5 -31.5c0 -13.333 -2.66699 -23.666 -8 -30.999s-18 -11 -38 -11c-11.333 0 -20.166 1.16699 -26.499 3.5s-11 5.5 -14 9.5s-4.83301 8.5 -5.5 13.5s-1 10.5 -1 16.5
c0 11.333 2.33301 22.666 7 33.999zM70.999 640c4.66699 3.33301 10.501 5.66895 17.501 7.00195s14.167 2 21.5 2c15.333 0 28.666 -3 39.999 -9c2 -6 3.66699 -12 5 -18s2 -11.667 2 -17c0 -14 -2.83301 -24.5 -8.5 -31.5s-18.5 -10.5 -38.5 -10.5
c-11.333 0 -20 1.16699 -26 3.5s-10.5 5.5 -13.5 9.5s-4.83301 8.66699 -5.5 14s-1 10.666 -1 15.999c0 11.333 2.33301 22.666 7 33.999z" />
    <glyph glyph-name="copyright" unicode="&#xa9;" horiz-adv-x="810" 
d="M148 85c-68.667 68.667 -102.998 154.002 -102.998 256.002c0 50 9.16699 97 27.5 141s43.666 82.167 75.999 114.5s70.333 57.833 114 76.5s90.834 28 141.501 28c50 0 97 -9.33301 141 -28s82.333 -44.334 115 -77.001s58.334 -70.834 77.001 -114.501
s28 -90.5 28 -140.5s-9.33301 -96.833 -28 -140.5s-44.334 -81.667 -77.001 -114s-70.834 -57.833 -114.501 -76.5s-90.834 -28 -141.501 -28c-102 0 -187.333 34.333 -256 103zM198.002 555.002c-55.333 -59.333 -83.001 -130.665 -83.001 -213.998
c0 -41.333 7.33301 -80.333 22 -117s35 -68.667 61 -96s56.5 -49 91.5 -65s73.167 -24 114.5 -24s79.833 8 115.5 24s66.5 37.833 92.5 65.5s46.333 59.667 61 96s22 75.166 22 116.499c0 40.667 -7.5 79.5 -22.5 116.5s-35.5 69.167 -61.5 96.5s-56.667 49.166 -92 65.499
s-73.666 24.5 -114.999 24.5c-82 0 -150.667 -29.667 -206 -89zM491.001 389.003v9.00098c0 23.333 -7 44.166 -21 62.499s-36 27.5 -66 27.5c-30.667 0 -55.167 -12.333 -73.5 -37s-27.5 -61 -27.5 -109c0 -47.333 9.33301 -83.333 28 -108s46.334 -37 83.001 -37
s71.667 15 105 45c14.667 -7.33301 25.667 -20.333 33 -39c-18 -18.667 -40.5 -33.834 -67.5 -45.501s-54.5 -17.5 -82.5 -17.5c-52.667 0 -94.334 18.333 -125.001 55s-46 86.334 -46 149.001c0 32 4.83301 60.333 14.5 85s22.5 45.5 38.5 62.5s34.667 30 56 39
s43.666 13.5 66.999 13.5c24 0 45.167 -3.66699 63.5 -11s33.833 -16.833 46.5 -28.5s22.334 -24.5 29.001 -38.5s10 -27.667 10 -41c0 -27.333 -11.667 -41 -35 -41c-10 0 -20 1.66699 -30 5z" />
    <glyph glyph-name="ordfeminine" unicode="&#xaa;" horiz-adv-x="406" 
d="M356 340c-4 -13.333 -14.334 -24.333 -31.001 -33c-26 9.33301 -42.333 26 -49 50c-39.333 -35.333 -78.666 -53 -117.999 -53c-38.667 0 -68 11.167 -88 33.5s-30 48.5 -30 78.5c0 42 13 73 39 93s62 30 108 30c12.667 0 26 -0.5 40 -1.5s28.667 -2.16699 44 -3.5v30
c0 49.333 -21.667 74 -65 74c-42 0 -85.333 -10 -130 -30c-15.333 14 -23 31 -23 51c56.667 24 109 36 157 36c82 0 123 -42.667 123 -128v-152c0 -34.667 7.66699 -59.667 23 -75zM163.999 357c38 0 73.668 18.667 107.001 56v71
c-15.333 1.33301 -29.333 2.66602 -42 3.99902s-24.334 2 -35.001 2c-28 0 -49.5 -6.16699 -64.5 -18.5s-22.5 -29.166 -22.5 -50.499c0 -16.667 4.83301 -31.5 14.5 -44.5s22.167 -19.5 37.5 -19.5h5z" />
    <glyph glyph-name="guillemotleft" unicode="&#xab;" horiz-adv-x="526" 
d="M481 422l-147 -165.999l153 -172c-8 -19.333 -22.333 -33 -43 -41l-196 186c-6 17.333 -6 34.666 0 51.999l190 182c20.667 -8 35 -21.667 43 -41zM276 422.001l-147 -165.999l153 -172c-8 -19.333 -22.333 -33 -43 -41l-196 186c-6 17.333 -6 34.666 0 51.999l190 182
c20.667 -8 35 -21.667 43 -41z" />
    <glyph glyph-name="logicalnot" unicode="&#xac;" horiz-adv-x="530" 
d="M397 263l-38 -1h-305c-2.66699 8 -4 19 -4 33s1.33301 26 4 36h409l7 -6v-215c-10 -2 -22.167 -3 -36.5 -3s-26.833 1 -37.5 3v115z" />
    <glyph glyph-name="uni00AD" unicode="&#xad;" horiz-adv-x="335" 
d="M283 231h-230c-2.66699 8 -4 19 -4 33s1.33301 26 4 36h230c2 -10.667 3 -22.667 3 -36s-1 -24.333 -3 -33z" />
    <glyph glyph-name="registered" unicode="&#xae;" horiz-adv-x="588" 
d="M112 306c-49.333 49.333 -74.001 109.667 -74.001 181c0 35.333 6.66699 68.666 20 99.999s31.5 58.5 54.5 81.5s50 41.167 81 54.5s64.167 20 99.5 20s68.5 -6.66699 99.5 -20s58.167 -31.666 81.5 -54.999s41.666 -50.5 54.999 -81.5s20 -64.167 20 -99.5
s-6.66699 -68.5 -20 -99.5s-31.5 -58 -54.5 -81s-50.167 -41.167 -81.5 -54.5s-64.666 -20 -99.999 -20c-71.333 0 -131.666 24.667 -180.999 74zM151.999 631.001c-38 -39.333 -57 -87.335 -57 -144.002c0 -28 5.16699 -54.333 15.5 -79s24.333 -46.167 42 -64.5
s38.5 -32.833 62.5 -43.5s50 -16 78 -16s54.167 5.33301 78.5 16s45.5 25.167 63.5 43.5s32.167 39.833 42.5 64.5s15.5 51 15.5 79s-5.16699 54.333 -15.5 79s-24.5 46.334 -42.5 65.001s-39.167 33.334 -63.5 44.001s-50.5 16 -78.5 16c-56 0 -103 -20 -141 -60z
M391.999 545.999c0 -36.667 -17.001 -60.333 -51.001 -71c8.66699 -4 19.667 -17.667 33 -41l16 -28c6.66699 -13.333 13.667 -22.333 21 -27c-7.33301 -13.333 -17.666 -20 -30.999 -20c-14.667 -1.33301 -27.667 8.66699 -39 30l-26 49c-7.33301 14 -18 21 -32 21h-31v-95
c-8 -2.66699 -16.667 -4 -26 -4c-10 0 -18.667 1.33301 -26 4v247l3 3c20 0.666992 38.333 1.16699 55 1.5s31.667 0.5 45 0.5c28 0 49.833 -6.66699 65.5 -20s23.5 -30 23.5 -50zM251.998 575v-74h42c30 0 45 12.333 45 37s-13.667 37 -41 37h-46z" />
    <glyph glyph-name="macron" unicode="&#xaf;" 
d="M332 578h-266c-2 9.33301 -3 20.166 -3 32.499s1 23.5 3 33.5h266c2 -10 3 -21.167 3 -33.5s-1 -23.166 -3 -32.499z" />
    <glyph glyph-name="degree" unicode="&#xb0;" horiz-adv-x="314" 
d="M59 432c-26 26.667 -39.001 59.667 -39.001 99c0 19.333 3.5 37.5 10.5 54.5s16.667 31.667 29 44s26.833 22.166 43.5 29.499s34.667 11 54 11s37.333 -3.5 54 -10.5s31.334 -17 44.001 -30s22.334 -28 29.001 -45s10 -34.833 10 -53.5
c0 -19.333 -3.5 -37.5 -10.5 -54.5s-16.667 -31.667 -29 -44s-26.833 -22.166 -43.5 -29.499s-34.667 -11 -54 -11c-38.667 0 -71.334 13.333 -98.001 40zM155.999 614c-22 0 -39.833 -7.83203 -53.5 -23.499s-20.5 -35.834 -20.5 -60.501c0 -24 6.83301 -43.667 20.5 -59
s31.5 -23 53.5 -23c22.667 0 40.834 7.83301 54.501 23.5s20.5 35.5 20.5 59.5s-6.83301 43.833 -20.5 59.5s-31.834 23.5 -54.501 23.5z" />
    <glyph glyph-name="plusminus" unicode="&#xb1;" horiz-adv-x="530" 
d="M229 367l-1 37.9971v125c10.667 2 23.167 3 37.5 3s26.5 -1 36.5 -3v-125l-1 -38l37 1h123c2 -11.333 3 -23.166 3 -35.499s-1 -23.166 -3 -32.499h-123l-37 1l1 -38v-127c-10 -2 -22.167 -3 -36.5 -3s-26.833 1 -37.5 3v127l1 38l-37 -1h-123
c-2 9.33301 -3 20.333 -3 33s1 24.334 3 35.001h123zM461 -0.00292969h-392c-2 12 -3 23.333 -3 34s1 22.334 3 35.001h392c2 -12.667 3 -24.334 3 -35.001s-1 -22 -3 -34z" />
    <glyph glyph-name="twosuperior" unicode="&#xb2;" horiz-adv-x="420" 
d="M344 410c0 -21.333 -2.33105 -36.666 -6.99805 -45.999s-14 -14 -28 -14h-222c-15.333 17.333 -23 30.666 -23 39.999c-0.666992 19.333 6 38.666 20 57.999s34.667 40.333 62 63l63 52c20 16.667 34.167 30.834 42.5 42.501s12.5 26.5 12.5 44.5c0 17.333 -6 32 -18 44
s-27.333 18 -46 18c-33.333 0 -59.666 -20.667 -78.999 -62c-23.333 3.33301 -40 12 -50 26c10 28 26.667 50.667 50 68s52.666 26 87.999 26c17.333 0 33.5 -3.16699 48.5 -9.5s28.167 -15 39.5 -26s20.166 -23.5 26.499 -37.5s9.5 -28.667 9.5 -44s-1.66699 -29 -5 -41
s-8.33301 -23.333 -15 -34s-15.167 -21 -25.5 -31s-22.5 -20.667 -36.5 -32l-56 -45c-32 -26 -51.333 -47.333 -58 -64c11.333 1.33301 22.666 2.33301 33.999 3s23 1 35 1h138z" />
    <glyph glyph-name="threesuperior" unicode="&#xb3;" horiz-adv-x="420" 
d="M314 703l-65.998 -68.999c-3.33301 -4 -7.5 -8 -12.5 -12l-16.5 -13h6c34 0 62.167 -11.333 84.5 -34s33.5 -55 33.5 -97c0 -20.667 -4 -39.167 -12 -55.5s-19.333 -30.333 -34 -42s-31.834 -20.5 -51.501 -26.5s-41.167 -9 -64.5 -9c-46 0 -86.667 13.667 -122 41
c3.33301 19.333 11.666 35.333 24.999 48c18.667 -12 36.5 -20.667 53.5 -26s32.833 -8 47.5 -8c29.333 0 51.666 8 66.999 24s23 36.667 23 62c0 26.667 -8.16699 46.167 -24.5 58.5s-34.166 18.5 -53.499 18.5c-17.333 0 -33 -4 -47 -12
c-14 5.33301 -22.333 17.333 -25 36l86 91l17 17c5.33301 5.33301 11.333 10 18 14l-2 3c-9.33301 -1.33301 -20.333 -2.5 -33 -3.5s-27.667 -1.5 -45 -1.5h-89c-2 8.66699 -3 18 -3 28c0 11.333 1.33301 20.666 4 27.999h236c7.33301 -12.667 11 -24 11 -34
s-3.66699 -18.667 -11 -26z" />
    <glyph glyph-name="acute" unicode="&#xb4;" 
d="M134 568l137 154.001c28.667 -8.66699 49 -27.334 61 -56.001l-163 -130c-16 4 -27.667 14.667 -35 32z" />
    <glyph glyph-name="paragraph" unicode="&#xb6;" horiz-adv-x="627" 
d="M293 58l0.00195312 202h-22c-66.667 0 -120 18.5 -160 55.5s-60 90 -60 159s20 121.667 60 158s93.333 54.5 160 54.5c24.667 0 55.667 -1 93 -3l6 -6v-610c0 -42 -2.83301 -76.5 -8.5 -103.5s-16.834 -49.833 -33.501 -68.5c-28.667 -32.667 -68.334 -49 -119.001 -49
s-94 7.66699 -130 23c0 22.667 7 43 21 61c33.333 -14.667 66.5 -22 99.5 -22s56.833 10.5 71.5 31.5s22 60.167 22 117.5zM437.002 -134v811l6 6h151c2.66699 -8 4 -19.333 4 -34s-1.33301 -26 -4 -34h-47c-15.333 0 -26.333 0.333008 -33 1v-750
c-11.333 -2 -24.5 -3 -39.5 -3s-27.5 1 -37.5 3z" />
    <glyph glyph-name="periodcentered" unicode="&#xb7;" horiz-adv-x="291" 
d="M97 238c-5.33301 9.33301 -8.00195 24 -8.00195 44c0 14 1.5 24.667 4.5 32s7 12.833 12 16.5s11 5.66699 18 6s14.5 0.5 22.5 0.5c8.66699 0 16.334 -0.333008 23.001 -1s12.5 -2.83398 17.5 -6.50098s8.83301 -9.16699 11.5 -16.5s4 -17.666 4 -30.999
c0 -11.333 -0.666992 -20.5 -2 -27.5s-4 -12.5 -8 -16.5s-9.66699 -6.66699 -17 -8s-16.666 -2 -27.999 -2c-22 0 -38.667 3.33301 -50 10z" />
    <glyph glyph-name="cedilla" unicode="&#xb8;" 
d="M151 -72c6.66699 25.333 15.332 49.333 25.999 72h56l-9.5 -21c-3 -6.66699 -5.5 -13 -7.5 -19c25.333 -2 46.333 -10.667 63 -26s25 -36 25 -62c0 -26.667 -10.5 -48.5 -31.5 -65.5s-46.833 -25.5 -77.5 -25.5c-31.333 0 -56.333 6.33301 -75 19
c0.666992 14 6.66699 28.667 18 44c15.333 -9.33301 32 -14 50 -14s31 4.16699 39 12.5s12 18.833 12 31.5c0 15.333 -5.16699 26.333 -15.5 33s-21.166 10 -32.499 10c-8.66699 0 -17 -1.66699 -25 -5c-6.66699 2.66699 -11.667 8 -15 16z" />
    <glyph glyph-name="onesuperior" unicode="&#xb9;" horiz-adv-x="420" 
d="M152 408l46 -1.00098v201c0 10 0.666992 27.667 2 53c-22 -29.333 -55 -53.666 -99 -72.999c-16 8.66699 -25 23 -27 43c60 34.667 102.333 78.667 127 132c10 2.66699 20 4 30 4s20.667 -1.33301 32 -4v-356l47 1h36c2 -8 3 -16.833 3 -26.5s-1 -19.5 -3 -29.5h-251
c-2 10.667 -3 20.667 -3 30s1 18 3 26h57z" />
    <glyph glyph-name="ordmasculine" unicode="&#xba;" horiz-adv-x="389" 
d="M302 656c36 -39.333 53.998 -91.668 53.998 -157.001c0 -27.333 -3.33301 -52.833 -10 -76.5s-16.667 -44.167 -30 -61.5s-30.166 -31.166 -50.499 -41.499s-44.166 -15.5 -71.499 -15.5s-51.166 5.16699 -71.499 15.5s-37.166 24.166 -50.499 41.499
s-23.333 37.833 -30 61.5s-10 49.167 -10 76.5s3.33301 52.833 10 76.5s16.667 44.334 30 62.001s30.166 31.667 50.499 42s44.166 15.5 71.499 15.5c44 0 80 -13 108 -39zM122.998 600.998c-14.667 -26.667 -22.0039 -60.334 -22.0039 -101.001
c0 -20 1.66699 -38.667 5 -56s8.83301 -32.166 16.5 -44.499s17.334 -22.166 29.001 -29.499s25.834 -11 42.501 -11s30.834 3.66699 42.501 11s21.334 17.333 29.001 30s13.334 27.5 17.001 44.5s5.5 35.5 5.5 55.5c0 19.333 -1.83301 37.666 -5.5 54.999
s-9.33398 32.5 -17.001 45.5s-17.5 23.167 -29.5 30.5s-26 11 -42 11c-32 0 -55.667 -13.667 -71 -41z" />
    <glyph glyph-name="guillemotright" unicode="&#xbb;" horiz-adv-x="526" 
d="M45 84l148 166.002l-154 172c9.33301 19.333 24 33 44 41l195 -186c2.66699 -6.66699 4 -15.334 4 -26.001s-1.33301 -19.334 -4 -26.001l-189 -182c-20 8 -34.667 21.667 -44 41zM250 84.002l148 165.999l-154 172c9.33301 19.333 24 33 44 41l195 -186
c3.33301 -6.66699 5 -15.167 5 -25.5s-1.66699 -19.166 -5 -26.499l-189 -182c-20 8 -34.667 21.667 -44 41z" />
    <glyph glyph-name="onequarter" unicode="&#xbc;" horiz-adv-x="886" 
d="M120 329l46 -1.00098v201c0 10 0.666992 27.667 2 53c-22 -29.333 -55 -53.666 -99 -72.999c-16 8.66699 -25 23 -27 43c60 34.667 102.333 78.667 127 132c10 2.66699 20 4 30 4s20.667 -1.33301 32 -4v-356l47 1h36c2 -8 3 -16.833 3 -26.5s-1 -19.5 -3 -29.5h-251
c-2 10.667 -3 20.667 -3 30s1 18 3 26h57zM255 -0.000976562l377.001 683c8 3.33301 20.333 5 37 5s29 -1.66699 37 -5l-376 -683c-8.66699 -3.33301 -21.334 -5 -38.001 -5s-29 1.66699 -37 5zM710.001 0.999023v82.001h-160c-10 16 -15 28.833 -15 38.5s5 24.5 15 44.5
l119 250c10 1.33301 21.333 0.666016 34 -2.00098s21.667 -7 27 -13l-89 -193c-15.333 -32 -27.333 -54 -36 -66l1 -2c14.667 0.666992 34 1 58 1h46v72c0 14 3.66699 25 11 33s17 12 29 12h22l1 -2v-115h66c2 -7.33301 3 -16.833 3 -28.5s-2 -21.5 -6 -29.5h-63v-82
c-6 -2.66699 -16 -4 -30 -4s-25 1.33301 -33 4z" />
    <glyph glyph-name="onehalf" unicode="&#xbd;" horiz-adv-x="886" 
d="M120 329l46 -1.00098v201c0 10 0.666992 27.667 2 53c-22 -29.333 -55 -53.666 -99 -72.999c-16 8.66699 -25 23 -27 43c60 34.667 102.333 78.667 127 132c10 2.66699 20 4 30 4s20.667 -1.33301 32 -4v-356l47 1h36c2 -8 3 -16.833 3 -26.5s-1 -19.5 -3 -29.5h-251
c-2 10.667 -3 20.667 -3 30s1 18 3 26h57zM238 -0.000976562l377.001 683c8 3.33301 20.333 5 37 5s29 -1.66699 37 -5l-376 -683c-8.66699 -3.33301 -21.334 -5 -38.001 -5s-29 1.66699 -37 5zM835.001 58.999c0 -21.333 -2.33105 -36.666 -6.99805 -45.999
s-14 -14 -28 -14h-222c-15.333 17.333 -23 30.666 -23 39.999c-0.666992 19.333 6 38.666 20 57.999s34.667 40.333 62 63l63 52c20 16.667 34.167 30.834 42.5 42.501s12.5 26.5 12.5 44.5c0 17.333 -6 32 -18 44s-27.333 18 -46 18c-33.333 0 -59.666 -20.667 -78.999 -62
c-23.333 3.33301 -40 12 -50 26c10 28 26.667 50.667 50 68s52.666 26 87.999 26c17.333 0 33.5 -3.16699 48.5 -9.5s28.167 -15 39.5 -26s20.166 -23.5 26.499 -37.5s9.5 -28.667 9.5 -44s-1.66699 -29 -5 -41s-8.33301 -23.333 -15 -34s-15.167 -21 -25.5 -31
s-22.5 -20.667 -36.5 -32l-56 -45c-32 -26 -51.333 -47.333 -58 -64c11.333 1.33301 22.666 2.33301 33.999 3s23 1 35 1h138z" />
    <glyph glyph-name="threequarters" unicode="&#xbe;" horiz-adv-x="886" 
d="M311 624l-65.998 -68.999c-3.33301 -4 -7.5 -8 -12.5 -12l-16.5 -13h6c34 0 62.167 -11.333 84.5 -34s33.5 -55 33.5 -97c0 -20.667 -4 -39.167 -12 -55.5s-19.333 -30.333 -34 -42s-31.834 -20.5 -51.501 -26.5s-41.167 -9 -64.5 -9c-46 0 -86.667 13.667 -122 41
c3.33301 19.333 11.666 35.333 24.999 48c18.667 -12 36.5 -20.667 53.5 -26s32.833 -8 47.5 -8c29.333 0 51.666 8 66.999 24s23 36.667 23 62c0 26.667 -8.16699 46.167 -24.5 58.5s-34.166 18.5 -53.499 18.5c-17.333 0 -33 -4 -47 -12
c-14 5.33301 -22.333 17.333 -25 36l86 91l17 17c5.33301 5.33301 11.333 10 18 14l-2 3c-9.33301 -1.33301 -20.333 -2.5 -33 -3.5s-27.667 -1.5 -45 -1.5h-89c-2 8.66699 -3 18 -3 28c0 11.333 1.33301 20.666 4 27.999h236c7.33301 -12.667 11 -24 11 -34
s-3.66699 -18.667 -11 -26zM247.002 0.000976562l377.001 683c8 3.33301 20.333 5 37 5s29 -1.66699 37 -5l-376 -683c-8.66699 -3.33301 -21.334 -5 -38.001 -5s-29 1.66699 -37 5zM715.003 1.00098v82.001h-160c-10 16 -15 28.833 -15 38.5s5 24.5 15 44.5l119 250
c10 1.33301 21.333 0.666016 34 -2.00098s21.667 -7 27 -13l-89 -193c-15.333 -32 -27.333 -54 -36 -66l1 -2c14.667 0.666992 34 1 58 1h46v72c0 14 3.66699 25 11 33s17 12 29 12h22l1 -2v-115h66c2 -7.33301 3 -16.833 3 -28.5s-2 -21.5 -6 -29.5h-63v-82
c-6 -2.66699 -16 -4 -30 -4s-25 1.33301 -33 4z" />
    <glyph glyph-name="questiondown" unicode="&#xbf;" horiz-adv-x="382" 
d="M366 -157c-59.333 -31.333 -117.333 -47 -174 -47s-101.167 14.833 -133.5 44.5s-48.5 69.5 -48.5 119.5c-0.666992 40 9.83301 75.5 31.5 106.5s54.5 59.167 98.5 84.5l64 37l7 116c4 1.33301 8.5 2.33301 13.5 3s10.167 1 15.5 1s10.666 -0.333008 15.999 -1
s10 -1.66699 14 -3l4 -149l-7 -9l-45 -24c-87.333 -47.333 -131 -99 -131 -155c0 -30.667 9.5 -55.5 28.5 -74.5s46.5 -28.5 82.5 -28.5c38.667 0 84.334 12.667 137.001 38c16 -16 25 -35.667 27 -59zM286 407c-6 -3.33301 -12.998 -5.83398 -20.998 -7.50098
s-16.667 -2.5 -26 -2.5c-8 0 -15.333 0.166992 -22 0.5s-12.334 2 -17.001 5s-8.33398 8 -11.001 15s-4 16.833 -4 29.5c0 24 4.5 38.5 13.5 43.5s22.5 7.5 40.5 7.5s31.667 -2.5 41 -7.5s14 -19.5 14 -43.5c0 -19.333 -2.66699 -32.666 -8 -39.999z" />
    <glyph glyph-name="Agrave" unicode="&#xc0;" horiz-adv-x="596" 
d="M431 178l-69.999 -1h-134l-70 1l-58 -179c-8.66699 -2 -19.334 -3 -32.001 -3s-25.667 1.66699 -39 5l-2 3l229 679c11.333 2 26.333 3 45 3s32.334 -1 41.001 -3l229 -679c-10.667 -6.66699 -24 -10 -40 -10s-27.333 2.66699 -34 8s-12.334 16 -17.001 32zM179.001 243
l57.998 1h115c0.666992 0 8.83398 -0.166992 24.501 -0.5s26.834 -0.5 33.501 -0.5l-63 190c-25.333 78 -42.333 133.667 -51 167h-5c-12.667 -49.333 -24 -89 -34 -119zM209.999 882l190.999 -111c-4 -20 -12 -34 -24 -42l-205 86c4.66699 32 17.334 54.333 38.001 67z" />
    <glyph glyph-name="Aacute" unicode="&#xc1;" horiz-adv-x="596" 
d="M431 178l-69.999 -1h-134l-70 1l-58 -179c-8.66699 -2 -19.334 -3 -32.001 -3s-25.667 1.66699 -39 5l-2 3l229 679c11.333 2 26.333 3 45 3s32.334 -1 41.001 -3l229 -679c-10.667 -6.66699 -24 -10 -40 -10s-27.333 2.66699 -34 8s-12.334 16 -17.001 32zM179.001 243
l57.998 1h115c0.666992 0 8.83398 -0.166992 24.501 -0.5s26.834 -0.5 33.501 -0.5l-63 190c-25.333 78 -42.333 133.667 -51 167h-5c-12.667 -49.333 -24 -89 -34 -119zM209.999 771l191 111c19.333 -12 32 -34.333 38 -67l-205 -86c-13.333 9.33301 -21.333 23.333 -24 42
z" />
    <glyph glyph-name="Acircumflex" unicode="&#xc2;" horiz-adv-x="596" 
d="M431 178l-69.999 -1h-134l-70 1l-58 -179c-8.66699 -2 -19.334 -3 -32.001 -3s-25.667 1.66699 -39 5l-2 3l229 679c11.333 2 26.333 3 45 3s32.334 -1 41.001 -3l229 -679c-10.667 -6.66699 -24 -10 -40 -10s-27.333 2.66699 -34 8s-12.334 16 -17.001 32zM179.001 243
l57.998 1h115c0.666992 0 8.83398 -0.166992 24.501 -0.5s26.834 -0.5 33.501 -0.5l-63 190c-25.333 78 -42.333 133.667 -51 167h-5c-12.667 -49.333 -24 -89 -34 -119zM406.999 738l-109 75l-113 -81c-18.667 8 -30 20 -34 36l111 108c23.333 4 47 4 71 0l111 -103
c-6 -18 -18.333 -29.667 -37 -35z" />
    <glyph glyph-name="Atilde" unicode="&#xc3;" horiz-adv-x="596" 
d="M431 178l-69.999 -1h-134l-70 1l-58 -179c-8.66699 -2 -19.334 -3 -32.001 -3s-25.667 1.66699 -39 5l-2 3l229 679c11.333 2 26.333 3 45 3s32.334 -1 41.001 -3l229 -679c-10.667 -6.66699 -24 -10 -40 -10s-27.333 2.66699 -34 8s-12.334 16 -17.001 32zM179.001 243
l57.998 1h115c0.666992 0 8.83398 -0.166992 24.501 -0.5s26.834 -0.5 33.501 -0.5l-63 190c-25.333 78 -42.333 133.667 -51 167h-5c-12.667 -49.333 -24 -89 -34 -119zM314.999 755l-61.002 28.999c-6 2.66699 -11.667 4.83398 -17 6.50098s-10.666 2.5 -15.999 2.5
c-6.66699 -0.666992 -13.667 -2.66699 -21 -6s-14.666 -9.66602 -21.999 -18.999l-12 -16c-18 1.33301 -30.667 9 -38 23l8 20c8.66699 21.333 21.5 37.333 38.5 48s34.833 16 53.5 16c8.66699 0.666992 17.334 -0.333008 26.001 -3s17.667 -6 27 -10l61 -29
c5.33301 -2.66699 10.666 -4.83398 15.999 -6.50098s10.666 -2.5 15.999 -2.5c6.66699 0 13.834 1.66699 21.501 5s15.167 10 22.5 20l12 16c16 -0.666992 28.667 -9 38 -25l-8 -19c-9.33301 -21.333 -21.833 -37.333 -37.5 -48s-33.5 -16 -53.5 -16
c-16 0 -34 4.66699 -54 14z" />
    <glyph glyph-name="Adieresis" unicode="&#xc4;" horiz-adv-x="596" 
d="M431 178l-69.999 -1h-134l-70 1l-58 -179c-8.66699 -2 -19.334 -3 -32.001 -3s-25.667 1.66699 -39 5l-2 3l229 679c11.333 2 26.333 3 45 3s32.334 -1 41.001 -3l229 -679c-10.667 -6.66699 -24 -10 -40 -10s-27.333 2.66699 -34 8s-12.334 16 -17.001 32zM179.001 243
l57.998 1h115c0.666992 0 8.83398 -0.166992 24.501 -0.5s26.834 -0.5 33.501 -0.5l-63 190c-25.333 78 -42.333 133.667 -51 167h-5c-12.667 -49.333 -24 -89 -34 -119zM355.999 818c4 2.66699 9.66699 4.66699 17 6s15 2 23 2c16.667 0 31 -2.66699 43 -8
c4 -13.333 6 -25.666 6 -36.999c0 -6 -0.166992 -11.667 -0.5 -17s-1.83301 -10 -4.5 -14s-7.5 -7.16699 -14.5 -9.5s-16.833 -3.5 -29.5 -3.5s-22.167 1.33301 -28.5 4s-11 6 -14 10s-4.66699 8.66699 -5 14s-0.5 10.666 -0.5 15.999c0 14 2.66699 26.333 8 37z
M156.999 818c5.33301 2.66699 11.834 4.66699 19.501 6s15.5 2 23.5 2c11.333 0 20.166 -1.16699 26.499 -3.5s11 -5.5 14 -9.5s4.83301 -8.83301 5.5 -14.5s1 -11.5 1 -17.5v-16c0 -5.33301 -1.5 -10 -4.5 -14s-7.83301 -7.33301 -14.5 -10s-16.334 -4 -29.001 -4
c-13.333 0 -23.166 1.33301 -29.499 4s-11 6 -14 10s-4.5 8.66699 -4.5 14v16c0 10.667 2 23 6 37z" />
    <glyph glyph-name="Aring" unicode="&#xc5;" horiz-adv-x="596" 
d="M431 178l-203.996 -0.998047l-70 1l-58 -179c-8 -2 -18 -3 -30 -3c-6.66699 0 -13.334 0.333008 -20.001 1s-14.334 3 -23.001 7l228 675c-20 8.66699 -35.833 21.667 -47.5 39s-17.5 38.666 -17.5 63.999c0 12.667 2.83301 25 8.5 37s13.334 22.667 23.001 32
s21.167 16.833 34.5 22.5s27.666 8.5 42.999 8.5s29.666 -2.83301 42.999 -8.5s25 -13.334 35 -23.001s17.833 -20.5 23.5 -32.5s8.5 -24 8.5 -36c0 -25.333 -6 -46.833 -18 -64.5s-28 -30.5 -48 -38.5l228 -675c-10.667 -6.66699 -24 -10 -40 -10s-27.333 2.66699 -34 8
s-12.334 16 -17.001 32zM179.004 243.002l172.999 1l58 -1l-63 190c-13.333 39.333 -24 72.833 -32 100.5l-19 66.5h-5l-18 -66.5c-5.33301 -19.667 -10.666 -37.167 -15.999 -52.5zM298.003 833.002c-14.667 0 -26.834 -5.33301 -36.501 -16s-14.5 -24.334 -14.5 -41.001
c0 -16 4.83301 -29.333 14.5 -40s21.834 -16 36.501 -16s26.834 5.33301 36.501 16s14.5 24 14.5 40c0 16.667 -4.83301 30.334 -14.5 41.001s-21.834 16 -36.501 16z" />
    <glyph glyph-name="AE" unicode="&#xc6;" horiz-adv-x="871" 
d="M407 178l-64.998 -1.00195h-90l-61 1l-91 -179c-10.667 -2 -22.834 -3 -36.501 -3s-25.5 1.66699 -35.5 5l-7 3l346 671c11.333 5.33301 26.666 8 45.999 8h387c1.33301 -8 2 -18.667 2 -32s-2 -24.666 -6 -33.999h-315l1 -62v-177l59 1h207c2 -12 3 -23.167 3 -33.5
s-1 -21.166 -3 -32.499h-207c-25.333 0 -45 0.333008 -59 1v-211l-1 -38c24 1.33301 44.333 2 61 2h274c0 -14 -0.666992 -24.667 -2 -32c-4 -23.333 -20.333 -35 -49 -35h-314c-13.333 0 -24 4.5 -32 13.5s-12 21.167 -12 36.5v128zM343.002 243.998l64 -1v357h-6
c-4.66699 -11.333 -23 -51 -55 -119l-122 -238l47 1h72z" />
    <glyph glyph-name="Ccedilla" unicode="&#xc7;" horiz-adv-x="600" 
d="M266 -72c6.66699 24 13.6689 44.3311 21.002 60.998c-40 2.66699 -74.833 13.834 -104.5 33.501s-53.334 45.334 -71.001 77.001s-31.167 68 -40.5 109s-14 84.167 -14 129.5c0 59.333 6.66699 111.333 20 156s31.666 81.834 54.999 111.501s50.666 52 81.999 67
s65 22.5 101 22.5s68.667 -5.33301 98 -16s54.333 -24.667 75 -42s36.667 -37.333 48 -60s17 -46 17 -70c0 -30 -14.333 -45 -43 -45c-2 0 -4.83301 0.166992 -8.5 0.5s-7.5 0.833008 -11.5 1.5s-7.33301 1.66699 -10 3s-4 3 -4 5c0 20 -3 39.5 -9 58.5s-15.5 36 -28.5 51
s-29.667 27 -50 36s-44.5 13.5 -72.5 13.5c-56.667 0 -100.5 -25 -131.5 -75s-46.5 -121 -46.5 -213c0 -92.667 16 -163.834 48 -213.501s77.333 -74.5 136 -74.5c59.333 0 119.333 26.333 180 79c20.667 -12 34.667 -28.667 42 -50
c-52.667 -54 -119.334 -85.333 -200.001 -94c-3.33301 -6 -6 -11.5 -8 -16.5s-3.66699 -9.5 -5 -13.5c26 -2 47.333 -10.667 64 -26s25 -36 25 -62c0 -13.333 -2.83301 -25.5 -8.5 -36.5s-13.5 -20.5 -23.5 -28.5s-21.667 -14.333 -35 -19s-27.666 -7 -42.999 -7
c-31.333 0 -56.333 6.33301 -75 19c1.33301 16 7.66602 30.667 18.999 44c14.667 -9.33301 30.667 -14 48 -14c18.667 0 32.167 4.16699 40.5 12.5s12.5 18.833 12.5 31.5c0 15.333 -5.16699 26.333 -15.5 33s-21.166 10 -32.499 10c-8.66699 0 -17 -1.66699 -25 -5
c-7.33301 2.66699 -12.666 8 -15.999 16z" />
    <glyph glyph-name="Egrave" unicode="&#xc8;" horiz-adv-x="563" 
d="M173 103l-1.00098 -38.001c22.667 1.33301 43.334 2 62.001 2h274c0 -14 -0.666992 -24.667 -2 -32c-4.66699 -23.333 -21 -35 -49 -35h-315c-13.333 0 -23.833 4.5 -31.5 13.5s-11.5 21.167 -11.5 36.5v627l6 6h386c1.33301 -8 2 -18.5 2 -31.5s-1.66699 -24.5 -5 -34.5
h-316l1 -62v-177l60 1h207c2 -12 3 -23.167 3 -33.5s-1 -21.166 -3 -32.499h-207c-25.333 0 -45.333 0.333008 -60 1v-211zM210.999 881.999l190.999 -111c-4 -20 -12 -34 -24 -42l-205 86c4.66699 32 17.334 54.333 38.001 67z" />
    <glyph glyph-name="Eacute" unicode="&#xc9;" horiz-adv-x="563" 
d="M173 103l-1.00098 -38.001c22.667 1.33301 43.334 2 62.001 2h274c0 -14 -0.666992 -24.667 -2 -32c-4.66699 -23.333 -21 -35 -49 -35h-315c-13.333 0 -23.833 4.5 -31.5 13.5s-11.5 21.167 -11.5 36.5v627l6 6h386c1.33301 -8 2 -18.5 2 -31.5s-1.66699 -24.5 -5 -34.5
h-316l1 -62v-177l60 1h207c2 -12 3 -23.167 3 -33.5s-1 -21.166 -3 -32.499h-207c-25.333 0 -45.333 0.333008 -60 1v-211zM210.999 770.999l191 111c19.333 -12 32 -34.333 38 -67l-205 -86c-13.333 9.33301 -21.333 23.333 -24 42z" />
    <glyph glyph-name="Ecircumflex" unicode="&#xca;" horiz-adv-x="563" 
d="M173 103l-1.00098 -38.001c22.667 1.33301 43.334 2 62.001 2h274c0 -14 -0.666992 -24.667 -2 -32c-4.66699 -23.333 -21 -35 -49 -35h-315c-13.333 0 -23.833 4.5 -31.5 13.5s-11.5 21.167 -11.5 36.5v627l6 6h386c1.33301 -8 2 -18.5 2 -31.5s-1.66699 -24.5 -5 -34.5
h-316l1 -62v-177l60 1h207c2 -12 3 -23.167 3 -33.5s-1 -21.166 -3 -32.499h-207c-25.333 0 -45.333 0.333008 -60 1v-211zM407.999 737.999l-109 75l-113 -81c-18.667 8 -30 20 -34 36l111 108c23.333 4 47 4 71 0l111 -103c-6 -18 -18.333 -29.667 -37 -35z" />
    <glyph glyph-name="Edieresis" unicode="&#xcb;" horiz-adv-x="563" 
d="M173 103l-1.00098 -38.001c22.667 1.33301 43.334 2 62.001 2h274c0 -14 -0.666992 -24.667 -2 -32c-4.66699 -23.333 -21 -35 -49 -35h-315c-13.333 0 -23.833 4.5 -31.5 13.5s-11.5 21.167 -11.5 36.5v627l6 6h386c1.33301 -8 2 -18.5 2 -31.5s-1.66699 -24.5 -5 -34.5
h-316l1 -62v-177l60 1h207c2 -12 3 -23.167 3 -33.5s-1 -21.166 -3 -32.499h-207c-25.333 0 -45.333 0.333008 -60 1v-211zM356.999 817.999c4 2.66699 9.66699 4.66699 17 6s15 2 23 2c16.667 0 31 -2.66699 43 -8c4 -13.333 6 -25.666 6 -36.999
c0 -6 -0.166992 -11.667 -0.5 -17s-1.83301 -10 -4.5 -14s-7.5 -7.16699 -14.5 -9.5s-16.833 -3.5 -29.5 -3.5s-22.167 1.33301 -28.5 4s-11 6 -14 10s-4.66699 8.66699 -5 14s-0.5 10.666 -0.5 15.999c0 14 2.66699 26.333 8 37zM157.999 817.999
c5.33301 2.66699 11.834 4.66699 19.501 6s15.5 2 23.5 2c11.333 0 20.166 -1.16699 26.499 -3.5s11 -5.5 14 -9.5s4.83301 -8.83301 5.5 -14.5s1 -11.5 1 -17.5v-16c0 -5.33301 -1.5 -10 -4.5 -14s-7.83301 -7.33301 -14.5 -10s-16.334 -4 -29.001 -4
c-13.333 0 -23.166 1.33301 -29.499 4s-11 6 -14 10s-4.5 8.66699 -4.5 14v16c0 10.667 2 23 6 37z" />
    <glyph glyph-name="Igrave" unicode="&#xcc;" horiz-adv-x="282" 
d="M103 0v683c9.33301 2 21.5 3 36.5 3s28.167 -1 39.5 -3v-683c-11.333 -2 -24.5 -3 -39.5 -3s-27.167 1 -36.5 3zM54 882l190.999 -111c-4 -20 -12 -34 -24 -42l-205 86c4.66699 32 17.334 54.333 38.001 67z" />
    <glyph glyph-name="Iacute" unicode="&#xcd;" horiz-adv-x="282" 
d="M103 0v683c9.33301 2 21.5 3 36.5 3s28.167 -1 39.5 -3v-683c-11.333 -2 -24.5 -3 -39.5 -3s-27.167 1 -36.5 3zM54 771l191 111c19.333 -12 32 -34.333 38 -67l-205 -86c-13.333 9.33301 -21.333 23.333 -24 42z" />
    <glyph glyph-name="Icircumflex" unicode="&#xce;" horiz-adv-x="282" 
d="M103 0v683c9.33301 2 21.5 3 36.5 3s28.167 -1 39.5 -3v-683c-11.333 -2 -24.5 -3 -39.5 -3s-27.167 1 -36.5 3zM251 738l-109 75l-113 -81c-18.667 8 -30 20 -34 36l111 108c23.333 4 47 4 71 0l111 -103c-6 -18 -18.333 -29.667 -37 -35z" />
    <glyph glyph-name="Idieresis" unicode="&#xcf;" horiz-adv-x="282" 
d="M103 0v683c9.33301 2 21.5 3 36.5 3s28.167 -1 39.5 -3v-683c-11.333 -2 -24.5 -3 -39.5 -3s-27.167 1 -36.5 3zM200 818c4 2.66699 9.66699 4.66699 17 6s15 2 23 2c16.667 0 31 -2.66699 43 -8c4 -13.333 6 -25.666 6 -36.999c0 -6 -0.166992 -11.667 -0.5 -17
s-1.83301 -10 -4.5 -14s-7.5 -7.16699 -14.5 -9.5s-16.833 -3.5 -29.5 -3.5s-22.167 1.33301 -28.5 4s-11 6 -14 10s-4.66699 8.66699 -5 14s-0.5 10.666 -0.5 15.999c0 14 2.66699 26.333 8 37zM1 818c5.33301 2.66699 11.834 4.66699 19.501 6s15.5 2 23.5 2
c11.333 0 20.166 -1.16699 26.499 -3.5s11 -5.5 14 -9.5s4.83301 -8.83301 5.5 -14.5s1 -11.5 1 -17.5v-16c0 -5.33301 -1.5 -10 -4.5 -14s-7.83301 -7.33301 -14.5 -10s-16.334 -4 -29.001 -4c-13.333 0 -23.166 1.33301 -29.499 4s-11 6 -14 10s-4.5 8.66699 -4.5 14v16
c0 10.667 2 23 6 37z" />
    <glyph glyph-name="Eth" unicode="&#xd0;" horiz-adv-x="654" 
d="M492 47c-9.33301 -8 -20.665 -15.168 -33.998 -21.501s-27.5 -11.666 -42.5 -15.999s-30 -7.66602 -45 -9.99902s-28.167 -3.5 -39.5 -3.5c-12 0 -35.333 0.333008 -70 1s-81.334 1.66699 -140.001 3l-6 6v307h-83c-2 10 -3 20.667 -3 32c0 10.667 1 22 3 34h83v298l6 6
c58 2 125.667 3 203 3c52 0 95.333 -9 130 -27s62.667 -42.667 84 -74s36.166 -68 44.499 -110s12.5 -86.667 12.5 -134c0 -66.667 -7 -123.834 -21 -171.501s-41.333 -88.5 -82 -122.5zM323.001 621.999h-131.999v-243h170c2 -12 3 -23.333 3 -34c0 -11.333 -1 -22 -3 -32
h-170v-252l132 -1c38.667 0 70.667 7.5 96 22.5s44.666 35.5 57.999 61.5s22.833 56 28.5 90s8.5 70 8.5 108c0 94.667 -15.667 165 -47 211s-79.333 69 -144 69z" />
    <glyph glyph-name="Ntilde" unicode="&#xd1;" horiz-adv-x="671" 
d="M567 686l6.00195 -5v-681c-12.667 -2 -28.334 -3 -47.001 -3s-34.667 1 -48 3l-243 453c-20 37.333 -42.667 83.333 -68 138h-3c4 -124 6 -196 6 -216v-375c-14 -2 -26.333 -3 -37 -3s-22 1 -34 3v683c12 2 27.167 3 45.5 3s34.166 -1 47.499 -3l243 -453
c16 -28.667 39.333 -75.667 70 -141h3c-4.66699 85.333 -7 161.333 -7 228v319c0 18 2.66699 30.833 8 38.5s16 11.5 32 11.5h26zM355.002 755l-61.002 28.999c-6 2.66699 -11.667 4.83398 -17 6.50098s-10.666 2.5 -15.999 2.5c-6.66699 -0.666992 -13.667 -2.66699 -21 -6
s-14.666 -9.66602 -21.999 -18.999l-12 -16c-18 1.33301 -30.667 9 -38 23l8 20c8.66699 21.333 21.5 37.333 38.5 48s34.833 16 53.5 16c8.66699 0.666992 17.334 -0.333008 26.001 -3s17.667 -6 27 -10l61 -29c5.33301 -2.66699 10.666 -4.83398 15.999 -6.50098
s10.666 -2.5 15.999 -2.5c6.66699 0 13.834 1.66699 21.501 5s15.167 10 22.5 20l12 16c16 -0.666992 28.667 -9 38 -25l-8 -19c-9.33301 -21.333 -21.833 -37.333 -37.5 -48s-33.5 -16 -53.5 -16c-16 0 -34 4.66699 -54 14z" />
    <glyph glyph-name="Ograve" unicode="&#xd2;" horiz-adv-x="653" 
d="M146 443c-3.33301 -16 -5.49707 -32.501 -6.49707 -49.501s-1.5 -34.167 -1.5 -51.5c0 -30 2.33301 -61.833 7 -95.5s13.667 -65 27 -94s32.333 -53 57 -72s57 -28.5 97 -28.5c26.667 0 50 4.66699 70 14s37 21.5 51 36.5s25.167 32.5 33.5 52.5s15 40.833 20 62.5
s8.5 43.167 10.5 64.5s3 41.333 3 60c0 29.333 -2.33301 61 -7 95s-13.834 65.333 -27.501 94s-32.667 52.5 -57 71.5s-56.5 28.5 -96.5 28.5c-30 0 -55.667 -5.5 -77 -16.5s-38.833 -25.333 -52.5 -43s-24.334 -37.667 -32.001 -60s-13.834 -45.166 -18.501 -68.499z
M163.003 45.999c-70.667 62.667 -106 161 -106 295c0 52.667 5.83301 100.834 17.5 144.501s28.834 81 51.501 112s50.834 55 84.501 72s72.167 25.5 115.5 25.5c46 0 86 -9.5 120 -28.5s62.167 -44.667 84.5 -77s38.833 -69.833 49.5 -112.5s16 -87.667 16 -135
c0 -52.667 -5.83301 -100.834 -17.5 -144.501s-28.834 -81 -51.501 -112s-50.834 -55 -84.501 -72s-72.5 -25.5 -116.5 -25.5c-66 0 -120.333 19.333 -163 58zM238.003 881.999l190.999 -111c-4 -20 -12 -34 -24 -42l-205 86c4.66699 32 17.334 54.333 38.001 67z" />
    <glyph glyph-name="Oacute" unicode="&#xd3;" horiz-adv-x="653" 
d="M146 443c-3.33301 -16 -5.49707 -32.501 -6.49707 -49.501s-1.5 -34.167 -1.5 -51.5c0 -30 2.33301 -61.833 7 -95.5s13.667 -65 27 -94s32.333 -53 57 -72s57 -28.5 97 -28.5c26.667 0 50 4.66699 70 14s37 21.5 51 36.5s25.167 32.5 33.5 52.5s15 40.833 20 62.5
s8.5 43.167 10.5 64.5s3 41.333 3 60c0 29.333 -2.33301 61 -7 95s-13.834 65.333 -27.501 94s-32.667 52.5 -57 71.5s-56.5 28.5 -96.5 28.5c-30 0 -55.667 -5.5 -77 -16.5s-38.833 -25.333 -52.5 -43s-24.334 -37.667 -32.001 -60s-13.834 -45.166 -18.501 -68.499z
M163.003 45.999c-70.667 62.667 -106 161 -106 295c0 52.667 5.83301 100.834 17.5 144.501s28.834 81 51.501 112s50.834 55 84.501 72s72.167 25.5 115.5 25.5c46 0 86 -9.5 120 -28.5s62.167 -44.667 84.5 -77s38.833 -69.833 49.5 -112.5s16 -87.667 16 -135
c0 -52.667 -5.83301 -100.834 -17.5 -144.501s-28.834 -81 -51.501 -112s-50.834 -55 -84.501 -72s-72.5 -25.5 -116.5 -25.5c-66 0 -120.333 19.333 -163 58zM238.003 770.999l191 111c19.333 -12 32 -34.333 38 -67l-205 -86c-13.333 9.33301 -21.333 23.333 -24 42z" />
    <glyph glyph-name="Ocircumflex" unicode="&#xd4;" horiz-adv-x="653" 
d="M146 443c-3.33301 -16 -5.49707 -32.501 -6.49707 -49.501s-1.5 -34.167 -1.5 -51.5c0 -30 2.33301 -61.833 7 -95.5s13.667 -65 27 -94s32.333 -53 57 -72s57 -28.5 97 -28.5c26.667 0 50 4.66699 70 14s37 21.5 51 36.5s25.167 32.5 33.5 52.5s15 40.833 20 62.5
s8.5 43.167 10.5 64.5s3 41.333 3 60c0 29.333 -2.33301 61 -7 95s-13.834 65.333 -27.501 94s-32.667 52.5 -57 71.5s-56.5 28.5 -96.5 28.5c-30 0 -55.667 -5.5 -77 -16.5s-38.833 -25.333 -52.5 -43s-24.334 -37.667 -32.001 -60s-13.834 -45.166 -18.501 -68.499z
M163.003 45.999c-70.667 62.667 -106 161 -106 295c0 52.667 5.83301 100.834 17.5 144.501s28.834 81 51.501 112s50.834 55 84.501 72s72.167 25.5 115.5 25.5c46 0 86 -9.5 120 -28.5s62.167 -44.667 84.5 -77s38.833 -69.833 49.5 -112.5s16 -87.667 16 -135
c0 -52.667 -5.83301 -100.834 -17.5 -144.501s-28.834 -81 -51.501 -112s-50.834 -55 -84.501 -72s-72.5 -25.5 -116.5 -25.5c-66 0 -120.333 19.333 -163 58zM435.003 737.999l-109 75l-113 -81c-18.667 8 -30 20 -34 36l111 108c23.333 4 47 4 71 0l111 -103
c-6 -18 -18.333 -29.667 -37 -35z" />
    <glyph glyph-name="Otilde" unicode="&#xd5;" horiz-adv-x="653" 
d="M146 443c-3.33301 -16 -5.49707 -32.501 -6.49707 -49.501s-1.5 -34.167 -1.5 -51.5c0 -30 2.33301 -61.833 7 -95.5s13.667 -65 27 -94s32.333 -53 57 -72s57 -28.5 97 -28.5c26.667 0 50 4.66699 70 14s37 21.5 51 36.5s25.167 32.5 33.5 52.5s15 40.833 20 62.5
s8.5 43.167 10.5 64.5s3 41.333 3 60c0 29.333 -2.33301 61 -7 95s-13.834 65.333 -27.501 94s-32.667 52.5 -57 71.5s-56.5 28.5 -96.5 28.5c-30 0 -55.667 -5.5 -77 -16.5s-38.833 -25.333 -52.5 -43s-24.334 -37.667 -32.001 -60s-13.834 -45.166 -18.501 -68.499z
M163.003 45.999c-70.667 62.667 -106 161 -106 295c0 52.667 5.83301 100.834 17.5 144.501s28.834 81 51.501 112s50.834 55 84.501 72s72.167 25.5 115.5 25.5c46 0 86 -9.5 120 -28.5s62.167 -44.667 84.5 -77s38.833 -69.833 49.5 -112.5s16 -87.667 16 -135
c0 -52.667 -5.83301 -100.834 -17.5 -144.501s-28.834 -81 -51.501 -112s-50.834 -55 -84.501 -72s-72.5 -25.5 -116.5 -25.5c-66 0 -120.333 19.333 -163 58zM344.003 754.999l-61.002 28.999c-6 2.66699 -11.667 4.83398 -17 6.50098s-10.666 2.5 -15.999 2.5
c-6.66699 -0.666992 -13.667 -2.66699 -21 -6s-14.666 -9.66602 -21.999 -18.999l-12 -16c-18 1.33301 -30.667 9 -38 23l8 20c8.66699 21.333 21.5 37.333 38.5 48s34.833 16 53.5 16c8.66699 0.666992 17.334 -0.333008 26.001 -3s17.667 -6 27 -10l61 -29
c5.33301 -2.66699 10.666 -4.83398 15.999 -6.50098s10.666 -2.5 15.999 -2.5c6.66699 0 13.834 1.66699 21.501 5s15.167 10 22.5 20l12 16c16 -0.666992 28.667 -9 38 -25l-8 -19c-9.33301 -21.333 -21.833 -37.333 -37.5 -48s-33.5 -16 -53.5 -16
c-16 0 -34 4.66699 -54 14z" />
    <glyph glyph-name="Odieresis" unicode="&#xd6;" horiz-adv-x="653" 
d="M146 443c-3.33301 -16 -5.49707 -32.501 -6.49707 -49.501s-1.5 -34.167 -1.5 -51.5c0 -30 2.33301 -61.833 7 -95.5s13.667 -65 27 -94s32.333 -53 57 -72s57 -28.5 97 -28.5c26.667 0 50 4.66699 70 14s37 21.5 51 36.5s25.167 32.5 33.5 52.5s15 40.833 20 62.5
s8.5 43.167 10.5 64.5s3 41.333 3 60c0 29.333 -2.33301 61 -7 95s-13.834 65.333 -27.501 94s-32.667 52.5 -57 71.5s-56.5 28.5 -96.5 28.5c-30 0 -55.667 -5.5 -77 -16.5s-38.833 -25.333 -52.5 -43s-24.334 -37.667 -32.001 -60s-13.834 -45.166 -18.501 -68.499z
M163.003 45.999c-70.667 62.667 -106 161 -106 295c0 52.667 5.83301 100.834 17.5 144.501s28.834 81 51.501 112s50.834 55 84.501 72s72.167 25.5 115.5 25.5c46 0 86 -9.5 120 -28.5s62.167 -44.667 84.5 -77s38.833 -69.833 49.5 -112.5s16 -87.667 16 -135
c0 -52.667 -5.83301 -100.834 -17.5 -144.501s-28.834 -81 -51.501 -112s-50.834 -55 -84.501 -72s-72.5 -25.5 -116.5 -25.5c-66 0 -120.333 19.333 -163 58zM384.003 817.999c4 2.66699 9.66699 4.66699 17 6s15 2 23 2c16.667 0 31 -2.66699 43 -8
c4 -13.333 6 -25.666 6 -36.999c0 -6 -0.166992 -11.667 -0.5 -17s-1.83301 -10 -4.5 -14s-7.5 -7.16699 -14.5 -9.5s-16.833 -3.5 -29.5 -3.5s-22.167 1.33301 -28.5 4s-11 6 -14 10s-4.66699 8.66699 -5 14s-0.5 10.666 -0.5 15.999c0 14 2.66699 26.333 8 37z
M185.003 817.999c5.33301 2.66699 11.834 4.66699 19.501 6s15.5 2 23.5 2c11.333 0 20.166 -1.16699 26.499 -3.5s11 -5.5 14 -9.5s4.83301 -8.83301 5.5 -14.5s1 -11.5 1 -17.5v-16c0 -5.33301 -1.5 -10 -4.5 -14s-7.83301 -7.33301 -14.5 -10s-16.334 -4 -29.001 -4
c-13.333 0 -23.166 1.33301 -29.499 4s-11 6 -14 10s-4.5 8.66699 -4.5 14v16c0 10.667 2 23 6 37z" />
    <glyph glyph-name="multiply" unicode="&#xd7;" horiz-adv-x="530" 
d="M265 242l-135.003 -137.001c-10 4 -19.833 10.833 -29.5 20.5s-16.5 19.834 -20.5 30.501l136 134l-136 135c10.667 25.333 27.334 42.333 50.001 51l112 -113c4.66699 -6.66699 12.334 -14.667 23.001 -24l135 137c24.667 -12.667 41.334 -29.667 50.001 -51l-119 -117
l-18 -18l137 -134c-10 -25.333 -26.667 -42.333 -50 -51l-112 113c-5.33301 4.66699 -13 12.667 -23 24z" />
    <glyph glyph-name="Oslash" unicode="&#xd8;" horiz-adv-x="653" 
d="M57 342c0 47.333 5.50098 92.333 16.501 135s27.333 80.167 49 112.5s48.667 58 81 77s69.833 28.5 112.5 28.5c58.667 0 106.334 -11.667 143.001 -35l37 65c23.333 -3.33301 41.333 -13 54 -29l-42 -77c58.667 -63.333 88 -159 88 -287
c0 -49.333 -5.83301 -95 -17.5 -137s-28.834 -78.333 -51.501 -109s-50.834 -54.667 -84.501 -72s-72.5 -26 -116.5 -26c-52 0 -96.333 11.667 -133 35l-36 -65c-23.333 2.66699 -41.333 12.667 -54 30l42 75c-58.667 64.667 -88 157.667 -88 279zM183.001 133
l243.001 467.001c-27.333 20.667 -60 31 -98 31c-36 0 -66.333 -7.83301 -91 -23.5s-44.334 -37.167 -59.001 -64.5s-25.167 -59.333 -31.5 -96s-9.5 -75.667 -9.5 -117c0 -80.667 15.333 -146.334 46 -197.001zM515.002 342.001c0 88 -15 157 -45 207l-244 -466
c27.333 -20.667 58.333 -31 93 -31c38.667 0 70.667 8.16699 96 24.5s45.333 38 60 65s25 58 31 93s9 70.833 9 107.5z" />
    <glyph glyph-name="Ugrave" unicode="&#xd9;" horiz-adv-x="666" 
d="M576 683v-449.999c0 -40 -5.83301 -75.167 -17.5 -105.5s-28 -55.833 -49 -76.5s-46.5 -36.334 -76.5 -47.001s-63.333 -16 -100 -16s-70 5.33301 -100 16s-55.5 26.334 -76.5 47.001s-37.167 46.167 -48.5 76.5s-17 65.5 -17 105.5v447l6 6h30
c16 0 26.667 -3.83301 32 -11.5s8 -20.5 8 -38.5v-402c0 -58.667 14.5 -103.834 43.5 -135.501s69.833 -47.5 122.5 -47.5s93.5 15.5 122.5 46.5s43.5 76.5 43.5 136.5v449c10 2 22.667 3 38 3c14.667 0 27.667 -1 39 -3zM245 882.001l190.999 -111c-4 -20 -12 -34 -24 -42
l-205 86c4.66699 32 17.334 54.333 38.001 67z" />
    <glyph glyph-name="Uacute" unicode="&#xda;" horiz-adv-x="666" 
d="M576 683v-449.999c0 -40 -5.83301 -75.167 -17.5 -105.5s-28 -55.833 -49 -76.5s-46.5 -36.334 -76.5 -47.001s-63.333 -16 -100 -16s-70 5.33301 -100 16s-55.5 26.334 -76.5 47.001s-37.167 46.167 -48.5 76.5s-17 65.5 -17 105.5v447l6 6h30
c16 0 26.667 -3.83301 32 -11.5s8 -20.5 8 -38.5v-402c0 -58.667 14.5 -103.834 43.5 -135.501s69.833 -47.5 122.5 -47.5s93.5 15.5 122.5 46.5s43.5 76.5 43.5 136.5v449c10 2 22.667 3 38 3c14.667 0 27.667 -1 39 -3zM245 771.001l191 111c19.333 -12 32 -34.333 38 -67
l-205 -86c-13.333 9.33301 -21.333 23.333 -24 42z" />
    <glyph glyph-name="Ucircumflex" unicode="&#xdb;" horiz-adv-x="666" 
d="M576 683v-449.999c0 -40 -5.83301 -75.167 -17.5 -105.5s-28 -55.833 -49 -76.5s-46.5 -36.334 -76.5 -47.001s-63.333 -16 -100 -16s-70 5.33301 -100 16s-55.5 26.334 -76.5 47.001s-37.167 46.167 -48.5 76.5s-17 65.5 -17 105.5v447l6 6h30
c16 0 26.667 -3.83301 32 -11.5s8 -20.5 8 -38.5v-402c0 -58.667 14.5 -103.834 43.5 -135.501s69.833 -47.5 122.5 -47.5s93.5 15.5 122.5 46.5s43.5 76.5 43.5 136.5v449c10 2 22.667 3 38 3c14.667 0 27.667 -1 39 -3zM442 738.001l-109 75l-113 -81
c-18.667 8 -30 20 -34 36l111 108c23.333 4 47 4 71 0l111 -103c-6 -18 -18.333 -29.667 -37 -35z" />
    <glyph glyph-name="Udieresis" unicode="&#xdc;" horiz-adv-x="666" 
d="M576 683v-449.999c0 -40 -5.83301 -75.167 -17.5 -105.5s-28 -55.833 -49 -76.5s-46.5 -36.334 -76.5 -47.001s-63.333 -16 -100 -16s-70 5.33301 -100 16s-55.5 26.334 -76.5 47.001s-37.167 46.167 -48.5 76.5s-17 65.5 -17 105.5v447l6 6h30
c16 0 26.667 -3.83301 32 -11.5s8 -20.5 8 -38.5v-402c0 -58.667 14.5 -103.834 43.5 -135.501s69.833 -47.5 122.5 -47.5s93.5 15.5 122.5 46.5s43.5 76.5 43.5 136.5v449c10 2 22.667 3 38 3c14.667 0 27.667 -1 39 -3zM391 818.001c4 2.66699 9.66699 4.66699 17 6
s15 2 23 2c16.667 0 31 -2.66699 43 -8c4 -13.333 6 -25.666 6 -36.999c0 -6 -0.166992 -11.667 -0.5 -17s-1.83301 -10 -4.5 -14s-7.5 -7.16699 -14.5 -9.5s-16.833 -3.5 -29.5 -3.5s-22.167 1.33301 -28.5 4s-11 6 -14 10s-4.66699 8.66699 -5 14s-0.5 10.666 -0.5 15.999
c0 14 2.66699 26.333 8 37zM192 818.001c5.33301 2.66699 11.834 4.66699 19.501 6s15.5 2 23.5 2c11.333 0 20.166 -1.16699 26.499 -3.5s11 -5.5 14 -9.5s4.83301 -8.83301 5.5 -14.5s1 -11.5 1 -17.5v-16c0 -5.33301 -1.5 -10 -4.5 -14s-7.83301 -7.33301 -14.5 -10
s-16.334 -4 -29.001 -4c-13.333 0 -23.166 1.33301 -29.499 4s-11 6 -14 10s-4.5 8.66699 -4.5 14v16c0 10.667 2 23 6 37z" />
    <glyph glyph-name="Yacute" unicode="&#xdd;" horiz-adv-x="481" 
d="M290 421l104.001 262c5.33301 1.33301 10.833 2.33301 16.5 3s11.5 1 17.5 1c11.333 0 23.666 -1.66699 36.999 -5l3 -6l-188 -454v-222c-11.333 -2 -24.333 -3 -39 -3c-15.333 0 -28 1 -38 3v225l-188 449c8 4.66699 16 8.5 24 11.5s15.667 4.5 23 4.5
c9.33301 0 17.833 -2.83301 25.5 -8.5s14.167 -15.167 19.5 -28.5l96 -232c4.66699 -11.333 10.5 -26.333 17.5 -45s14.833 -42 23.5 -70h5c1.33301 6 5.5 18.5 12.5 37.5zM156.001 771l191 111c19.333 -12 32 -34.333 38 -67l-205 -86
c-13.333 9.33301 -21.333 23.333 -24 42z" />
    <glyph glyph-name="Thorn" unicode="&#xde;" horiz-adv-x="560" 
d="M99 0v682.999c10 2 22.667 3 38 3s28 -1 38 -3v-106c25.333 0.666992 47.833 1.16699 67.5 1.5s36.834 0.5 51.501 0.5c32.667 0 62.667 -4.66699 90 -14s50.666 -23.166 69.999 -41.499s34.333 -40.833 45 -67.5s16 -57 16 -91s-5.33301 -64.333 -16 -91
s-25.667 -49.167 -45 -67.5s-42.5 -32.333 -69.5 -42s-57.167 -14.5 -90.5 -14.5h-119v-150c-10 -2 -22.667 -3 -38 -3s-28 1 -38 3zM175 213.999l120.998 0.999023c25.333 0 46.833 4.16699 64.5 12.5s31.834 19.333 42.501 33s18.334 29.667 23.001 48s7 38.166 7 59.499
c0 18.667 -2.33301 36.834 -7 54.501s-12.5 33.334 -23.5 47.001s-25.333 24.5 -43 32.5s-39.5 12 -65.5 12h-68c-20 0 -37 0.333008 -51 1v-301z" />
    <glyph glyph-name="germandbls" unicode="&#xdf;" horiz-adv-x="611" 
d="M110 0l0.00195312 407.002l-86 -1c-2 10 -3 20.667 -3 32s1 22 3 32l86 -2v42c0 30 5 56.667 15 80s24 43 42 59s39.667 28.167 65 36.5s53.666 12.5 84.999 12.5c30.667 0 58.667 -4.66699 84 -14s46.833 -22.5 64.5 -39.5s31.334 -37.333 41.001 -61
s14.5 -50.167 14.5 -79.5c0 -24 -5 -50 -15 -78h-2l2 -1c-30 -7.33301 -52.667 -18.5 -68 -33.5s-23 -30.5 -23 -46.5c0 -9.33301 3.33301 -19.833 10 -31.5s18.334 -24.167 35.001 -37.5l37 -30c25.333 -20.667 44.166 -41.834 56.499 -63.501s18.5 -41.834 18.5 -60.501
c0 -19.333 -4.16699 -37.166 -12.5 -53.499s-20 -30.5 -35 -42.5s-32.833 -21.333 -53.5 -28s-43 -10 -67 -10c-48 0 -90.667 9.66699 -128 29c0.666992 8.66699 3.83398 18.5 9.50098 29.5s12.5 19.5 20.5 25.5c15.333 -8.66699 30.5 -14.834 45.5 -18.501
s29.5 -5.5 43.5 -5.5c28 0 51.333 6.16699 70 18.5s28 28.5 28 48.5c-0.666992 11.333 -4.33398 23.833 -11.001 37.5s-18.334 27.5 -35.001 41.5l-41 34c-45.333 37.333 -68 74 -68 110c0 26 9.16699 49.5 27.5 70.5s43.5 37.167 75.5 48.5c4 14 6 27.667 6 41
c0 42 -11.167 76.333 -33.5 103s-55.5 40 -99.5 40c-42.667 0 -74.834 -12.167 -96.501 -36.5s-32.5 -58.5 -32.5 -102.5v-502c-11.333 -2 -24 -3 -38 -3c-14.667 0 -27 1 -37 3z" />
    <glyph glyph-name="agrave" unicode="&#xe0;" horiz-adv-x="504" 
d="M448 31c-7.33301 -18.667 -18.668 -31.3291 -34.001 -37.9961c-32.667 12 -53.334 35.333 -62.001 70c-51.333 -50 -101.666 -75 -150.999 -75c-25.333 0 -47.333 4 -66 12s-34.167 18.667 -46.5 32s-21.666 28.666 -27.999 45.999s-9.5 35.666 -9.5 54.999
c0 26.667 4.5 50.167 13.5 70.5s21.333 37.166 37 50.499s34.167 23.333 55.5 30s44.333 10 69 10c50 0 90.667 -3 122 -9v50c0 68 -30 102 -90 102c-46 0 -100.333 -13.667 -163 -41c-17.333 15.333 -26 34.666 -26 57.999c72 31.333 137.333 47 196 47
c103.333 0 155 -55.667 155 -167v-206c-0.666992 -24 1.5 -43.833 6.5 -59.5s12.167 -28.167 21.5 -37.5zM347.998 131.005l-0.00195312 100.001c-16 2.66699 -32.667 4.5 -50 5.5s-35.666 1.5 -54.999 1.5c-38 0 -67 -8.83301 -87 -26.5s-30 -40.834 -30 -69.501
c0 -28 7 -50.167 21 -66.5s33 -24.5 57 -24.5c24.667 0 49.834 6.83301 75.501 20.5s48.5 33.5 68.5 59.5zM176.996 722.006l137 -154.001c-7.33301 -17.333 -19 -28 -35 -32l-163 130c12 28.667 32.333 47.334 61 56.001z" />
    <glyph glyph-name="aacute" unicode="&#xe1;" horiz-adv-x="504" 
d="M448 31c-7.33301 -18.667 -18.668 -31.3291 -34.001 -37.9961c-32.667 12 -53.334 35.333 -62.001 70c-51.333 -50 -101.666 -75 -150.999 -75c-25.333 0 -47.333 4 -66 12s-34.167 18.667 -46.5 32s-21.666 28.666 -27.999 45.999s-9.5 35.666 -9.5 54.999
c0 26.667 4.5 50.167 13.5 70.5s21.333 37.166 37 50.499s34.167 23.333 55.5 30s44.333 10 69 10c50 0 90.667 -3 122 -9v50c0 68 -30 102 -90 102c-46 0 -100.333 -13.667 -163 -41c-17.333 15.333 -26 34.666 -26 57.999c72 31.333 137.333 47 196 47
c103.333 0 155 -55.667 155 -167v-206c-0.666992 -24 1.5 -43.833 6.5 -59.5s12.167 -28.167 21.5 -37.5zM347.998 131.005l-0.00195312 100.001c-16 2.66699 -32.667 4.5 -50 5.5s-35.666 1.5 -54.999 1.5c-38 0 -67 -8.83301 -87 -26.5s-30 -40.834 -30 -69.501
c0 -28 7 -50.167 21 -66.5s33 -24.5 57 -24.5c24.667 0 49.834 6.83301 75.501 20.5s48.5 33.5 68.5 59.5zM177.996 568.006l137 154.001c28.667 -8.66699 49 -27.334 61 -56.001l-163 -130c-16 4 -27.667 14.667 -35 32z" />
    <glyph glyph-name="acircumflex" unicode="&#xe2;" horiz-adv-x="504" 
d="M448 31c-7.33301 -18.667 -18.668 -31.3291 -34.001 -37.9961c-32.667 12 -53.334 35.333 -62.001 70c-51.333 -50 -101.666 -75 -150.999 -75c-25.333 0 -47.333 4 -66 12s-34.167 18.667 -46.5 32s-21.666 28.666 -27.999 45.999s-9.5 35.666 -9.5 54.999
c0 26.667 4.5 50.167 13.5 70.5s21.333 37.166 37 50.499s34.167 23.333 55.5 30s44.333 10 69 10c50 0 90.667 -3 122 -9v50c0 68 -30 102 -90 102c-46 0 -100.333 -13.667 -163 -41c-17.333 15.333 -26 34.666 -26 57.999c72 31.333 137.333 47 196 47
c103.333 0 155 -55.667 155 -167v-206c-0.666992 -24 1.5 -43.833 6.5 -59.5s12.167 -28.167 21.5 -37.5zM347.998 131.005l-0.00195312 100.001c-16 2.66699 -32.667 4.5 -50 5.5s-35.666 1.5 -54.999 1.5c-38 0 -67 -8.83301 -87 -26.5s-30 -40.834 -30 -69.501
c0 -28 7 -50.167 21 -66.5s33 -24.5 57 -24.5c24.667 0 49.834 6.83301 75.501 20.5s48.5 33.5 68.5 59.5zM335.996 543.006l-95.001 93.999l-101 -99c-16 6.66699 -28 18.334 -36 35.001l106 132c16.667 4.66699 38.334 5 65.001 1l101 -127
c-8.66699 -17.333 -22 -29.333 -40 -36z" />
    <glyph glyph-name="atilde" unicode="&#xe3;" horiz-adv-x="504" 
d="M448 31c-7.33301 -18.667 -18.668 -31.3291 -34.001 -37.9961c-32.667 12 -53.334 35.333 -62.001 70c-51.333 -50 -101.666 -75 -150.999 -75c-25.333 0 -47.333 4 -66 12s-34.167 18.667 -46.5 32s-21.666 28.666 -27.999 45.999s-9.5 35.666 -9.5 54.999
c0 26.667 4.5 50.167 13.5 70.5s21.333 37.166 37 50.499s34.167 23.333 55.5 30s44.333 10 69 10c50 0 90.667 -3 122 -9v50c0 68 -30 102 -90 102c-46 0 -100.333 -13.667 -163 -41c-17.333 15.333 -26 34.666 -26 57.999c72 31.333 137.333 47 196 47
c103.333 0 155 -55.667 155 -167v-206c-0.666992 -24 1.5 -43.833 6.5 -59.5s12.167 -28.167 21.5 -37.5zM347.998 131.005l-0.00195312 100.001c-16 2.66699 -32.667 4.5 -50 5.5s-35.666 1.5 -54.999 1.5c-38 0 -67 -8.83301 -87 -26.5s-30 -40.834 -30 -69.501
c0 -28 7 -50.167 21 -66.5s33 -24.5 57 -24.5c24.667 0 49.834 6.83301 75.501 20.5s48.5 33.5 68.5 59.5zM257.996 571.006l-60.9971 30.001c-12 6 -23 9 -33 9c-7.33301 0 -14.166 -2 -20.499 -6s-13.5 -10.667 -21.5 -20l-13 -16
c-20.667 1.33301 -33.334 9.33301 -38.001 24l9 20c19.333 43.333 49.333 65 90 65c16 0 34 -4.66699 54 -14l61 -29c5.33301 -2.66699 10.666 -4.83398 15.999 -6.50098s10.666 -2.5 15.999 -2.5c13.333 -0.666992 27.666 8 42.999 26l13 15
c18 -0.666992 30.667 -8.66699 38 -24l-9 -20c-20 -43.333 -50 -65 -90 -65c-16 0 -34 4.66699 -54 14z" />
    <glyph glyph-name="adieresis" unicode="&#xe4;" horiz-adv-x="504" 
d="M448 31c-7.33301 -18.667 -18.668 -31.3291 -34.001 -37.9961c-32.667 12 -53.334 35.333 -62.001 70c-51.333 -50 -101.666 -75 -150.999 -75c-25.333 0 -47.333 4 -66 12s-34.167 18.667 -46.5 32s-21.666 28.666 -27.999 45.999s-9.5 35.666 -9.5 54.999
c0 26.667 4.5 50.167 13.5 70.5s21.333 37.166 37 50.499s34.167 23.333 55.5 30s44.333 10 69 10c50 0 90.667 -3 122 -9v50c0 68 -30 102 -90 102c-46 0 -100.333 -13.667 -163 -41c-17.333 15.333 -26 34.666 -26 57.999c72 31.333 137.333 47 196 47
c103.333 0 155 -55.667 155 -167v-206c-0.666992 -24 1.5 -43.833 6.5 -59.5s12.167 -28.167 21.5 -37.5zM347.998 131.005l-0.00195312 100.001c-16 2.66699 -32.667 4.5 -50 5.5s-35.666 1.5 -54.999 1.5c-38 0 -67 -8.83301 -87 -26.5s-30 -40.834 -30 -69.501
c0 -28 7 -50.167 21 -66.5s33 -24.5 57 -24.5c24.667 0 49.834 6.83301 75.501 20.5s48.5 33.5 68.5 59.5zM289.996 640.006c10 6 23.332 9 39.999 9c20.667 0 33.5 -4.16699 38.5 -12.5s7.5 -18.833 7.5 -31.5c0 -13.333 -2.66699 -23.666 -8 -30.999s-18 -11 -38 -11
c-11.333 0 -20.166 1.16699 -26.499 3.5s-11 5.5 -14 9.5s-4.83301 8.5 -5.5 13.5s-1 10.5 -1 16.5c0 11.333 2.33301 22.666 7 33.999zM112.995 640.006c4.66699 3.33301 10.501 5.66895 17.501 7.00195s14.167 2 21.5 2c15.333 0 28.666 -3 39.999 -9
c2 -6 3.66699 -12 5 -18s2 -11.667 2 -17c0 -14 -2.83301 -24.5 -8.5 -31.5s-18.5 -10.5 -38.5 -10.5c-11.333 0 -20 1.16699 -26 3.5s-10.5 5.5 -13.5 9.5s-4.83301 8.66699 -5.5 14s-1 10.666 -1 15.999c0 11.333 2.33301 22.666 7 33.999z" />
    <glyph glyph-name="aring" unicode="&#xe5;" horiz-adv-x="504" 
d="M448 31c-7.33301 -18.667 -18.668 -31.3291 -34.001 -37.9961c-32.667 12 -53.334 35.333 -62.001 70c-51.333 -50 -101.666 -75 -150.999 -75c-25.333 0 -47.333 4 -66 12s-34.167 18.667 -46.5 32s-21.666 28.666 -27.999 45.999s-9.5 35.666 -9.5 54.999
c0 26.667 4.5 50.167 13.5 70.5s21.333 37.166 37 50.499s34.167 23.333 55.5 30s44.333 10 69 10c50 0 90.667 -3 122 -9v50c0 68 -30 102 -90 102c-46 0 -100.333 -13.667 -163 -41c-17.333 15.333 -26 34.666 -26 57.999c72 31.333 137.333 47 196 47
c103.333 0 155 -55.667 155 -167v-206c-0.666992 -24 1.5 -43.833 6.5 -59.5s12.167 -28.167 21.5 -37.5zM347.998 131.005l-0.00195312 100.001c-16 2.66699 -32.667 4.5 -50 5.5s-35.666 1.5 -54.999 1.5c-38 0 -67 -8.83301 -87 -26.5s-30 -40.834 -30 -69.501
c0 -28 7 -50.167 21 -66.5s33 -24.5 57 -24.5c24.667 0 49.834 6.83301 75.501 20.5s48.5 33.5 68.5 59.5zM240.996 536.006c-16 0 -30.665 2.83301 -43.998 8.5s-24.833 13.167 -34.5 22.5s-17.334 20.5 -23.001 33.5s-8.5 26.5 -8.5 40.5c0 30 10.333 55.167 31 75.5
s47 30.5 79 30.5s58.333 -10.167 79 -30.5s31 -45.5 31 -75.5c0 -14 -2.83301 -27.5 -8.5 -40.5s-13.334 -24.167 -23.001 -33.5s-21.167 -16.833 -34.5 -22.5s-28 -8.5 -44 -8.5zM240.998 698.006c-14.667 0 -26.834 -5.33301 -36.501 -16s-14.5 -24.334 -14.5 -41.001
c0 -16 4.83301 -29.333 14.5 -40s21.834 -16 36.501 -16s26.834 5.33301 36.501 16s14.5 24 14.5 40c0 16.667 -4.83301 30.334 -14.5 41.001s-21.834 16 -36.501 16z" />
    <glyph glyph-name="ae" unicode="&#xe6;" horiz-adv-x="796" 
d="M734 223l-310.002 0.000976562c3.33301 -113.333 46 -170 128 -170c46 0 94.333 14.333 145 43c14.667 -12.667 23.667 -30 27 -52c-53.333 -37.333 -113.666 -56 -180.999 -56c-76.667 0 -131 30.667 -163 92c-22 -26 -49 -47.833 -81 -65.5s-69 -26.5 -111 -26.5
c-20.667 0 -39.5 3.83301 -56.5 11.5s-31.5 18.167 -43.5 31.5s-21.167 28.833 -27.5 46.5s-9.5 36.5 -9.5 56.5c0 54 16.5 94.167 49.5 120.5s78.833 39.5 137.5 39.5c36 0 72.667 -3.33301 110 -10v52c0 67.333 -30 101 -90 101c-46 0 -100.333 -13.667 -163 -41
c-17.333 15.333 -26 34.666 -26 57.999c72 31.333 138.667 47 200 47c62.667 0 106 -24.333 130 -73c36.667 50 85.667 75 147 75c30.667 0 57.834 -5.33301 81.501 -16s43.667 -25.5 60 -44.5s28.833 -41.667 37.5 -68s13 -54.833 13 -85.5
c0 -11.333 -0.333008 -22.5 -1 -33.5s-1.66699 -21.833 -3 -32.5zM358.998 139.001c-6 26 -10 56 -12 90c-34 6 -69.333 9 -106 9c-36 0 -64.167 -8.66699 -84.5 -26s-30.5 -40.333 -30.5 -69c0 -28 7 -50.333 21 -67s33.667 -25 59 -25c26 0 53 7.16699 81 21.5
s52 36.5 72 66.5zM423.998 280.001h238.001v11c0 46 -9.5 83.333 -28.5 112s-47.833 43 -86.5 43c-38 0 -67.333 -14.667 -88 -44s-32.334 -70 -35.001 -122z" />
    <glyph glyph-name="ccedilla" unicode="&#xe7;" horiz-adv-x="469" 
d="M199 -72c6 22 13.0039 42.666 21.0039 61.999c-29.333 3.33301 -54.5 12.166 -75.5 26.499s-38.333 32.833 -52 55.5s-23.834 48.334 -30.501 77.001s-10 59.334 -10 92.001c0 42.667 5.16699 80.334 15.5 113.001s24.666 60 42.999 82s39.833 38.667 64.5 50
s51 17 79 17c28.667 0 53.667 -4.5 75 -13.5s39.166 -20.5 53.499 -34.5s25.166 -29.333 32.499 -46s11 -32.334 11 -47.001c0 -32 -13 -48 -39 -48c-9.33301 0 -20 1 -32 3v11c0 14.667 -2 29 -6 43s-10.167 26.333 -18.5 37s-19 19.167 -32 25.5s-28.5 9.5 -46.5 9.5
c-38 0 -68 -17.333 -90 -52s-33 -84 -33 -148s10.833 -111.833 32.5 -143.5s51.167 -47.5 88.5 -47.5c39.333 0 84.333 18.333 135 55c18 -10.667 29.667 -26.334 35 -47.001c-41.333 -39.333 -89 -62.666 -143 -69.999c-2.66699 -4.66699 -5 -9.5 -7 -14.5l-6 -15.5
c26 -2 47.167 -10.667 63.5 -26s24.5 -36 24.5 -62c0 -26.667 -10.5 -48.5 -31.5 -65.5s-46.833 -25.5 -77.5 -25.5c-31.333 0 -56.333 6.33301 -75 19c1.33301 16 7.66602 30.667 18.999 44c14.667 -9.33301 31.667 -14 51 -14c32.667 0 49 14.667 49 44
c0 28.667 -16 43 -48 43c-7.33301 0 -15.333 -1.66699 -24 -5c-7.33301 2.66699 -12.666 8 -15.999 16z" />
    <glyph glyph-name="egrave" unicode="&#xe8;" horiz-adv-x="503" 
d="M440 223h-309.994c3.33301 -113.333 46.333 -170 129 -170c45.333 0 93.666 14 144.999 42c14.667 -13.333 23.667 -30.333 27 -51c-54.667 -37.333 -116 -56 -184 -56c-34.667 0 -64.334 6.5 -89.001 19.5s-44.834 31 -60.501 54s-27.167 50.167 -34.5 81.5
s-11 65.666 -11 102.999c0 38 4.5 72.667 13.5 104s22.167 58.333 39.5 81s38.166 40.334 62.499 53.001s52.166 19 83.499 19c30.667 0 58.167 -5.5 82.5 -16.5s44.666 -26 60.999 -45s28.833 -41.667 37.5 -68s13 -54.5 13 -84.5c0 -12 -0.5 -23.5 -1.5 -34.5
s-2.16699 -21.5 -3.5 -31.5zM130.006 280h240v13c0 46 -9.66699 83 -29 111s-48.333 42 -87 42c-38 0 -67.5 -15 -88.5 -45s-32.833 -70.333 -35.5 -121zM191.006 722l137 -154.001c-7.33301 -17.333 -19 -28 -35 -32l-163 130c12 28.667 32.333 47.334 61 56.001z" />
    <glyph glyph-name="eacute" unicode="&#xe9;" horiz-adv-x="503" 
d="M440 223h-309.994c3.33301 -113.333 46.333 -170 129 -170c45.333 0 93.666 14 144.999 42c14.667 -13.333 23.667 -30.333 27 -51c-54.667 -37.333 -116 -56 -184 -56c-34.667 0 -64.334 6.5 -89.001 19.5s-44.834 31 -60.501 54s-27.167 50.167 -34.5 81.5
s-11 65.666 -11 102.999c0 38 4.5 72.667 13.5 104s22.167 58.333 39.5 81s38.166 40.334 62.499 53.001s52.166 19 83.499 19c30.667 0 58.167 -5.5 82.5 -16.5s44.666 -26 60.999 -45s28.833 -41.667 37.5 -68s13 -54.5 13 -84.5c0 -12 -0.5 -23.5 -1.5 -34.5
s-2.16699 -21.5 -3.5 -31.5zM130.006 280h240v13c0 46 -9.66699 83 -29 111s-48.333 42 -87 42c-38 0 -67.5 -15 -88.5 -45s-32.833 -70.333 -35.5 -121zM189.006 568l137 154.001c28.667 -8.66699 49 -27.334 61 -56.001l-163 -130c-16 4 -27.667 14.667 -35 32z" />
    <glyph glyph-name="ecircumflex" unicode="&#xea;" horiz-adv-x="503" 
d="M440 223h-309.994c3.33301 -113.333 46.333 -170 129 -170c45.333 0 93.666 14 144.999 42c14.667 -13.333 23.667 -30.333 27 -51c-54.667 -37.333 -116 -56 -184 -56c-34.667 0 -64.334 6.5 -89.001 19.5s-44.834 31 -60.501 54s-27.167 50.167 -34.5 81.5
s-11 65.666 -11 102.999c0 38 4.5 72.667 13.5 104s22.167 58.333 39.5 81s38.166 40.334 62.499 53.001s52.166 19 83.499 19c30.667 0 58.167 -5.5 82.5 -16.5s44.666 -26 60.999 -45s28.833 -41.667 37.5 -68s13 -54.5 13 -84.5c0 -12 -0.5 -23.5 -1.5 -34.5
s-2.16699 -21.5 -3.5 -31.5zM130.006 280h240v13c0 46 -9.66699 83 -29 111s-48.333 42 -87 42c-38 0 -67.5 -15 -88.5 -45s-32.833 -70.333 -35.5 -121zM350.006 543l-95.001 93.999l-101 -99c-16 6.66699 -28 18.334 -36 35.001l106 132c16.667 4.66699 38.334 5 65.001 1
l101 -127c-8.66699 -17.333 -22 -29.333 -40 -36z" />
    <glyph glyph-name="edieresis" unicode="&#xeb;" horiz-adv-x="503" 
d="M440 223h-309.994c3.33301 -113.333 46.333 -170 129 -170c45.333 0 93.666 14 144.999 42c14.667 -13.333 23.667 -30.333 27 -51c-54.667 -37.333 -116 -56 -184 -56c-34.667 0 -64.334 6.5 -89.001 19.5s-44.834 31 -60.501 54s-27.167 50.167 -34.5 81.5
s-11 65.666 -11 102.999c0 38 4.5 72.667 13.5 104s22.167 58.333 39.5 81s38.166 40.334 62.499 53.001s52.166 19 83.499 19c30.667 0 58.167 -5.5 82.5 -16.5s44.666 -26 60.999 -45s28.833 -41.667 37.5 -68s13 -54.5 13 -84.5c0 -12 -0.5 -23.5 -1.5 -34.5
s-2.16699 -21.5 -3.5 -31.5zM130.006 280h240v13c0 46 -9.66699 83 -29 111s-48.333 42 -87 42c-38 0 -67.5 -15 -88.5 -45s-32.833 -70.333 -35.5 -121zM304.006 640c10 6 23.332 9 39.999 9c20.667 0 33.5 -4.16699 38.5 -12.5s7.5 -18.833 7.5 -31.5
c0 -13.333 -2.66699 -23.666 -8 -30.999s-18 -11 -38 -11c-11.333 0 -20.166 1.16699 -26.499 3.5s-11 5.5 -14 9.5s-4.83301 8.5 -5.5 13.5s-1 10.5 -1 16.5c0 11.333 2.33301 22.666 7 33.999zM127.005 640c4.66699 3.33301 10.501 5.66895 17.501 7.00195
s14.167 2 21.5 2c15.333 0 28.666 -3 39.999 -9c2 -6 3.66699 -12 5 -18s2 -11.667 2 -17c0 -14 -2.83301 -24.5 -8.5 -31.5s-18.5 -10.5 -38.5 -10.5c-11.333 0 -20 1.16699 -26 3.5s-10.5 5.5 -13.5 9.5s-4.83301 8.66699 -5.5 14s-1 10.666 -1 15.999
c0 11.333 2.33301 22.666 7 33.999z" />
    <glyph glyph-name="igrave" unicode="&#xec;" horiz-adv-x="256" 
d="M170 422l-0.000976562 -422.001c-10 -2 -22.333 -3 -37 -3s-27 1 -37 3v386c0 18.667 -3 31.334 -9 38.001s-16.667 10 -32 10h-9c-2.66699 7.33301 -4 16.333 -4 27s1.33301 20 4 28c12.667 1.33301 23 2.5 31 3.5s14.333 1.5 19 1.5h8
c20.667 0 36.834 -6.5 48.501 -19.5s17.5 -30.5 17.5 -52.5zM51.999 721.999l137 -154.001c-7.33301 -17.333 -19 -28 -35 -32l-163 130c12 28.667 32.333 47.334 61 56.001z" />
    <glyph glyph-name="iacute" unicode="&#xed;" horiz-adv-x="256" 
d="M170 422l-0.000976562 -422.001c-10 -2 -22.333 -3 -37 -3s-27 1 -37 3v386c0 18.667 -3 31.334 -9 38.001s-16.667 10 -32 10h-9c-2.66699 7.33301 -4 16.333 -4 27s1.33301 20 4 28c12.667 1.33301 23 2.5 31 3.5s14.333 1.5 19 1.5h8
c20.667 0 36.834 -6.5 48.501 -19.5s17.5 -30.5 17.5 -52.5zM50.999 567.999l137 154.001c28.667 -8.66699 49 -27.334 61 -56.001l-163 -130c-16 4 -27.667 14.667 -35 32z" />
    <glyph glyph-name="icircumflex" unicode="&#xee;" horiz-adv-x="256" 
d="M170 422l-0.000976562 -422.001c-10 -2 -22.333 -3 -37 -3s-27 1 -37 3v386c0 18.667 -3 31.334 -9 38.001s-16.667 10 -32 10h-9c-2.66699 7.33301 -4 16.333 -4 27s1.33301 20 4 28c12.667 1.33301 23 2.5 31 3.5s14.333 1.5 19 1.5h8
c20.667 0 36.834 -6.5 48.501 -19.5s17.5 -30.5 17.5 -52.5zM211.999 542.999l-95.001 93.999l-101 -99c-16 6.66699 -28 18.334 -36 35.001l106 132c16.667 4.66699 38.334 5 65.001 1l101 -127c-8.66699 -17.333 -22 -29.333 -40 -36z" />
    <glyph glyph-name="idieresis" unicode="&#xef;" horiz-adv-x="256" 
d="M170 422l-0.000976562 -422.001c-10 -2 -22.333 -3 -37 -3s-27 1 -37 3v386c0 18.667 -3 31.334 -9 38.001s-16.667 10 -32 10h-9c-2.66699 7.33301 -4 16.333 -4 27s1.33301 20 4 28c12.667 1.33301 23 2.5 31 3.5s14.333 1.5 19 1.5h8
c20.667 0 36.834 -6.5 48.501 -19.5s17.5 -30.5 17.5 -52.5zM164.999 639.999c10 6 23.332 9 39.999 9c20.667 0 33.5 -4.16699 38.5 -12.5s7.5 -18.833 7.5 -31.5c0 -13.333 -2.66699 -23.666 -8 -30.999s-18 -11 -38 -11c-11.333 0 -20.166 1.16699 -26.499 3.5
s-11 5.5 -14 9.5s-4.83301 8.5 -5.5 13.5s-1 10.5 -1 16.5c0 11.333 2.33301 22.666 7 33.999zM-12.002 639.999c4.66699 3.33301 10.501 5.66895 17.501 7.00195s14.167 2 21.5 2c15.333 0 28.666 -3 39.999 -9c2 -6 3.66699 -12 5 -18s2 -11.667 2 -17
c0 -14 -2.83301 -24.5 -8.5 -31.5s-18.5 -10.5 -38.5 -10.5c-11.333 0 -20 1.16699 -26 3.5s-10.5 5.5 -13.5 9.5s-4.83301 8.66699 -5.5 14s-1 10.666 -1 15.999c0 11.333 2.33301 22.666 7 33.999z" />
    <glyph glyph-name="eth" unicode="&#xf0;" horiz-adv-x="516" 
d="M127 572l94.002 65.0049c-26.667 22.667 -57 42 -91 58c4.66699 24 15 40.333 31 49c44.667 -20.667 83 -43.667 115 -69l88 61c6.66699 -4.66699 13.334 -11.5 20.001 -20.5s10.334 -17.167 11.001 -24.5l-78 -54c98.667 -100.667 148 -232.334 148 -395.001
c0 -37.333 -4.5 -71.5 -13.5 -102.5s-22.333 -57.667 -40 -80s-39.334 -39.833 -65.001 -52.5s-55.5 -19 -89.5 -19c-33.333 0 -62.833 6.33301 -88.5 19s-47.334 30.167 -65.001 52.5s-31 48.666 -40 78.999s-13.5 63.5 -13.5 99.5c0 35.333 4.66699 68.166 14 98.499
s22.666 56.666 39.999 78.999s38.833 39.833 64.5 52.5s54.834 19 87.501 19c30 0 61 -7.66699 93 -23c-17.333 46.667 -46.333 91.667 -87 135l-104 -72c-6.66699 4 -13.334 10.667 -20.001 20s-10.334 17.666 -11.001 24.999zM371.002 390.005
c-33.333 25.333 -72.0029 38.001 -116.003 38.001c-22 0 -41.167 -4.83301 -57.5 -14.5s-29.666 -22.834 -39.999 -39.501s-18 -36.667 -23 -60s-7.5 -48.333 -7.5 -75s2.33301 -51.667 7 -75s12.334 -43.833 23.001 -61.5s24.334 -31.5 41.001 -41.5s36.667 -15 60 -15
c25.333 0 46.333 5.66699 63 17s30 26.5 40 45.5s17.167 40.667 21.5 65s6.5 49.5 6.5 75.5c0 22 -1.5 45 -4.5 69s-7.5 48 -13.5 72z" />
    <glyph glyph-name="ntilde" unicode="&#xf1;" horiz-adv-x="545" 
d="M463 343l-0.000976562 -247.999c0 -38 3.66699 -66.333 11 -85c-10.667 -10.667 -26.334 -16 -47.001 -16c-25.333 0 -38 16.333 -38 49v277c0 40.667 -5 69.5 -15 86.5s-29 25.5 -57 25.5c-26.667 0 -54.334 -7.16699 -83.001 -21.5s-52.667 -32.833 -72 -55.5v-355
c-10 -2 -22.333 -3 -37 -3s-27 1 -37 3v488l6 6h28c16 0 26.667 -4.16699 32 -12.5s8 -21.5 8 -39.5v-14c22.667 21.333 49.334 38.5 80.001 51.5s61.334 19.5 92.001 19.5c44.667 0 77.334 -14.333 98.001 -43s31 -66.334 31 -113.001zM293.999 571.001l-60.9971 30.001
c-12 6 -23 9 -33 9c-7.33301 0 -14.166 -2 -20.499 -6s-13.5 -10.667 -21.5 -20l-13 -16c-20.667 1.33301 -33.334 9.33301 -38.001 24l9 20c19.333 43.333 49.333 65 90 65c16 0 34 -4.66699 54 -14l61 -29c5.33301 -2.66699 10.666 -4.83398 15.999 -6.50098
s10.666 -2.5 15.999 -2.5c13.333 -0.666992 27.666 8 42.999 26l13 15c18 -0.666992 30.667 -8.66699 38 -24l-9 -20c-20 -43.333 -50 -65 -90 -65c-16 0 -34 4.66699 -54 14z" />
    <glyph glyph-name="ograve" unicode="&#xf2;" horiz-adv-x="519" 
d="M397 41c-35.333 -35.333 -81.334 -53 -138.001 -53c-33.333 0 -62.833 6.33301 -88.5 19s-47.334 30.167 -65.001 52.5s-31 49.333 -40 81s-13.5 66.5 -13.5 104.5s4.5 72.833 13.5 104.5s22.333 58.834 40 81.501s39.334 40.334 65.001 53.001s55.167 19 88.5 19
s62.833 -6.33301 88.5 -19s47.334 -30.334 65.001 -53.001s31.167 -49.834 40.5 -81.501s14 -66.5 14 -104.5c0 -89.333 -23.333 -157.333 -70 -204zM259.999 46c42.667 0 75.168 18.168 97.501 54.501s33.5 84.5 33.5 144.5c0 26.667 -2.5 52.167 -7.5 76.5
s-12.833 45.666 -23.5 63.999s-24.334 32.833 -41.001 43.5s-36.667 16 -60 16c-22.667 0 -42.167 -5.16699 -58.5 -15.5s-29.833 -24.5 -40.5 -42.5s-18.5 -39.167 -23.5 -63.5s-7.5 -50.5 -7.5 -78.5s2.5 -54 7.5 -78s12.667 -45 23 -63s23.833 -32.167 40.5 -42.5
s36.667 -15.5 60 -15.5zM195 722.001l137 -154.001c-7.33301 -17.333 -19 -28 -35 -32l-163 130c12 28.667 32.333 47.334 61 56.001z" />
    <glyph glyph-name="oacute" unicode="&#xf3;" horiz-adv-x="519" 
d="M397 41c-35.333 -35.333 -81.334 -53 -138.001 -53c-33.333 0 -62.833 6.33301 -88.5 19s-47.334 30.167 -65.001 52.5s-31 49.333 -40 81s-13.5 66.5 -13.5 104.5s4.5 72.833 13.5 104.5s22.333 58.834 40 81.501s39.334 40.334 65.001 53.001s55.167 19 88.5 19
s62.833 -6.33301 88.5 -19s47.334 -30.334 65.001 -53.001s31.167 -49.834 40.5 -81.501s14 -66.5 14 -104.5c0 -89.333 -23.333 -157.333 -70 -204zM259.999 46c42.667 0 75.168 18.168 97.501 54.501s33.5 84.5 33.5 144.5c0 26.667 -2.5 52.167 -7.5 76.5
s-12.833 45.666 -23.5 63.999s-24.334 32.833 -41.001 43.5s-36.667 16 -60 16c-22.667 0 -42.167 -5.16699 -58.5 -15.5s-29.833 -24.5 -40.5 -42.5s-18.5 -39.167 -23.5 -63.5s-7.5 -50.5 -7.5 -78.5s2.5 -54 7.5 -78s12.667 -45 23 -63s23.833 -32.167 40.5 -42.5
s36.667 -15.5 60 -15.5zM194 568.001l137 154.001c28.667 -8.66699 49 -27.334 61 -56.001l-163 -130c-16 4 -27.667 14.667 -35 32z" />
    <glyph glyph-name="ocircumflex" unicode="&#xf4;" horiz-adv-x="519" 
d="M397 41c-35.333 -35.333 -81.334 -53 -138.001 -53c-33.333 0 -62.833 6.33301 -88.5 19s-47.334 30.167 -65.001 52.5s-31 49.333 -40 81s-13.5 66.5 -13.5 104.5s4.5 72.833 13.5 104.5s22.333 58.834 40 81.501s39.334 40.334 65.001 53.001s55.167 19 88.5 19
s62.833 -6.33301 88.5 -19s47.334 -30.334 65.001 -53.001s31.167 -49.834 40.5 -81.501s14 -66.5 14 -104.5c0 -89.333 -23.333 -157.333 -70 -204zM259.999 46c42.667 0 75.168 18.168 97.501 54.501s33.5 84.5 33.5 144.5c0 26.667 -2.5 52.167 -7.5 76.5
s-12.833 45.666 -23.5 63.999s-24.334 32.833 -41.001 43.5s-36.667 16 -60 16c-22.667 0 -42.167 -5.16699 -58.5 -15.5s-29.833 -24.5 -40.5 -42.5s-18.5 -39.167 -23.5 -63.5s-7.5 -50.5 -7.5 -78.5s2.5 -54 7.5 -78s12.667 -45 23 -63s23.833 -32.167 40.5 -42.5
s36.667 -15.5 60 -15.5zM354 543.001l-95.001 93.999l-101 -99c-16 6.66699 -28 18.334 -36 35.001l106 132c16.667 4.66699 38.334 5 65.001 1l101 -127c-8.66699 -17.333 -22 -29.333 -40 -36z" />
    <glyph glyph-name="otilde" unicode="&#xf5;" horiz-adv-x="519" 
d="M397 41c-35.333 -35.333 -81.334 -53 -138.001 -53c-33.333 0 -62.833 6.33301 -88.5 19s-47.334 30.167 -65.001 52.5s-31 49.333 -40 81s-13.5 66.5 -13.5 104.5s4.5 72.833 13.5 104.5s22.333 58.834 40 81.501s39.334 40.334 65.001 53.001s55.167 19 88.5 19
s62.833 -6.33301 88.5 -19s47.334 -30.334 65.001 -53.001s31.167 -49.834 40.5 -81.501s14 -66.5 14 -104.5c0 -89.333 -23.333 -157.333 -70 -204zM259.999 46c42.667 0 75.168 18.168 97.501 54.501s33.5 84.5 33.5 144.5c0 26.667 -2.5 52.167 -7.5 76.5
s-12.833 45.666 -23.5 63.999s-24.334 32.833 -41.001 43.5s-36.667 16 -60 16c-22.667 0 -42.167 -5.16699 -58.5 -15.5s-29.833 -24.5 -40.5 -42.5s-18.5 -39.167 -23.5 -63.5s-7.5 -50.5 -7.5 -78.5s2.5 -54 7.5 -78s12.667 -45 23 -63s23.833 -32.167 40.5 -42.5
s36.667 -15.5 60 -15.5zM276 571.001l-60.9971 30.001c-12 6 -23 9 -33 9c-7.33301 0 -14.166 -2 -20.499 -6s-13.5 -10.667 -21.5 -20l-13 -16c-20.667 1.33301 -33.334 9.33301 -38.001 24l9 20c19.333 43.333 49.333 65 90 65c16 0 34 -4.66699 54 -14l61 -29
c5.33301 -2.66699 10.666 -4.83398 15.999 -6.50098s10.666 -2.5 15.999 -2.5c13.333 -0.666992 27.666 8 42.999 26l13 15c18 -0.666992 30.667 -8.66699 38 -24l-9 -20c-20 -43.333 -50 -65 -90 -65c-16 0 -34 4.66699 -54 14z" />
    <glyph glyph-name="odieresis" unicode="&#xf6;" horiz-adv-x="519" 
d="M397 41c-35.333 -35.333 -81.334 -53 -138.001 -53c-33.333 0 -62.833 6.33301 -88.5 19s-47.334 30.167 -65.001 52.5s-31 49.333 -40 81s-13.5 66.5 -13.5 104.5s4.5 72.833 13.5 104.5s22.333 58.834 40 81.501s39.334 40.334 65.001 53.001s55.167 19 88.5 19
s62.833 -6.33301 88.5 -19s47.334 -30.334 65.001 -53.001s31.167 -49.834 40.5 -81.501s14 -66.5 14 -104.5c0 -89.333 -23.333 -157.333 -70 -204zM259.999 46c42.667 0 75.168 18.168 97.501 54.501s33.5 84.5 33.5 144.5c0 26.667 -2.5 52.167 -7.5 76.5
s-12.833 45.666 -23.5 63.999s-24.334 32.833 -41.001 43.5s-36.667 16 -60 16c-22.667 0 -42.167 -5.16699 -58.5 -15.5s-29.833 -24.5 -40.5 -42.5s-18.5 -39.167 -23.5 -63.5s-7.5 -50.5 -7.5 -78.5s2.5 -54 7.5 -78s12.667 -45 23 -63s23.833 -32.167 40.5 -42.5
s36.667 -15.5 60 -15.5zM308 640.001c10 6 23.332 9 39.999 9c20.667 0 33.5 -4.16699 38.5 -12.5s7.5 -18.833 7.5 -31.5c0 -13.333 -2.66699 -23.666 -8 -30.999s-18 -11 -38 -11c-11.333 0 -20.166 1.16699 -26.499 3.5s-11 5.5 -14 9.5s-4.83301 8.5 -5.5 13.5
s-1 10.5 -1 16.5c0 11.333 2.33301 22.666 7 33.999zM130.999 640.001c4.66699 3.33301 10.501 5.66895 17.501 7.00195s14.167 2 21.5 2c15.333 0 28.666 -3 39.999 -9c2 -6 3.66699 -12 5 -18s2 -11.667 2 -17c0 -14 -2.83301 -24.5 -8.5 -31.5s-18.5 -10.5 -38.5 -10.5
c-11.333 0 -20 1.16699 -26 3.5s-10.5 5.5 -13.5 9.5s-4.83301 8.66699 -5.5 14s-1 10.666 -1 15.999c0 11.333 2.33301 22.666 7 33.999z" />
    <glyph glyph-name="divide" unicode="&#xf7;" horiz-adv-x="530" 
d="M221 431c-5.33301 10.667 -8 22.832 -8 36.499s2.66699 25.834 8 36.501c9.33301 7.33301 24.166 11 44.499 11s34.833 -3.66699 43.5 -11c4.66699 -9.33301 7 -21.5 7 -36.5s-2.33301 -27.167 -7 -36.5c-8.66699 -7.33301 -23.167 -11 -43.5 -11
s-35.166 3.66699 -44.499 11zM221 74.998c-5.33301 10.667 -7.99902 22.832 -7.99902 36.499s2.66699 25.834 8 36.501c9.33301 7.33301 24.166 11 44.499 11s34.833 -3.66699 43.5 -11c4.66699 -9.33301 7 -21.5 7 -36.5s-2.33301 -27.167 -7 -36.5
c-7.33301 -7.33301 -21.5 -11 -42.5 -11s-36.167 3.66699 -45.5 11zM471.001 256.996h-412c-2.66699 8 -4 19 -4 33s1.33301 26 4 36h412c2.66699 -10 4 -22 4 -36s-1.33301 -25 -4 -33z" />
    <glyph glyph-name="oslash" unicode="&#xf8;" horiz-adv-x="519" 
d="M398 447c46 -46 69.0029 -113.666 69.0029 -202.999c0 -38 -4.66699 -72.833 -14 -104.5s-22.833 -58.667 -40.5 -81s-39.334 -39.666 -65.001 -51.999s-55.167 -18.5 -88.5 -18.5c-36.667 0 -68.334 7 -95.001 21l-36 -62c-8.66699 0.666992 -18 3.66699 -28 9
s-17.333 11.333 -22 18l40 71c-44 46 -66 113 -66 201c0 38 4.66699 72.833 14 104.5s22.666 58.667 39.999 81s38.833 39.833 64.5 52.5s55.167 19 88.5 19c34.667 0 65.667 -7 93 -21l37 63c8 -0.666992 17 -3.83398 27 -9.50098s17.333 -11.834 22 -18.501z
M364.003 385.001l-170 -321.999c18.667 -12 40.667 -18 66 -18c24 0 44.5 5.33301 61.5 16s30.833 25.167 41.5 43.5s18.5 39.666 23.5 63.999s7.5 50.5 7.5 78.5c0 56.667 -10 102.667 -30 138zM153.003 109.002l169 321c-19.333 11.333 -40 17 -62 17
c-24 0 -44.5 -5.33301 -61.5 -16s-31 -25.167 -42 -43.5s-19 -39.833 -24 -64.5s-7.5 -50.667 -7.5 -78c0 -56 9.33301 -101.333 28 -136z" />
    <glyph glyph-name="ugrave" unicode="&#xf9;" horiz-adv-x="546" 
d="M83 147v249c0 35.333 -4 63.666 -12 84.999c11.333 10.667 27 16 47 16c25.333 0 38 -16.333 38 -49v-277c0 -42 5.33301 -71.333 16 -88s29.334 -25 56.001 -25s54.334 7.16699 83.001 21.5s52.667 32.833 72 55.5v355c4 1.33301 9.33301 2.33301 16 3s13.667 1 21 1
s14.166 -0.333008 20.499 -1s11.833 -1.66699 16.5 -3v-352c0 -53.333 9.33301 -89 28 -107c-6 -18.667 -17.333 -31.334 -34 -38.001c-32.667 10.667 -53.667 35.334 -63 74.001c-22.667 -22.667 -49.834 -41 -81.501 -55s-63.5 -21 -95.5 -21
c-44.667 0 -77.167 14.333 -97.5 43s-30.5 66.334 -30.5 113.001zM205 722l137 -154.001c-7.33301 -17.333 -19 -28 -35 -32l-163 130c12 28.667 32.333 47.334 61 56.001z" />
    <glyph glyph-name="uacute" unicode="&#xfa;" horiz-adv-x="546" 
d="M83 147v249c0 35.333 -4 63.666 -12 84.999c11.333 10.667 27 16 47 16c25.333 0 38 -16.333 38 -49v-277c0 -42 5.33301 -71.333 16 -88s29.334 -25 56.001 -25s54.334 7.16699 83.001 21.5s52.667 32.833 72 55.5v355c4 1.33301 9.33301 2.33301 16 3s13.667 1 21 1
s14.166 -0.333008 20.499 -1s11.833 -1.66699 16.5 -3v-352c0 -53.333 9.33301 -89 28 -107c-6 -18.667 -17.333 -31.334 -34 -38.001c-32.667 10.667 -53.667 35.334 -63 74.001c-22.667 -22.667 -49.834 -41 -81.501 -55s-63.5 -21 -95.5 -21
c-44.667 0 -77.167 14.333 -97.5 43s-30.5 66.334 -30.5 113.001zM204 568l137 154.001c28.667 -8.66699 49 -27.334 61 -56.001l-163 -130c-16 4 -27.667 14.667 -35 32z" />
    <glyph glyph-name="ucircumflex" unicode="&#xfb;" horiz-adv-x="546" 
d="M83 147v249c0 35.333 -4 63.666 -12 84.999c11.333 10.667 27 16 47 16c25.333 0 38 -16.333 38 -49v-277c0 -42 5.33301 -71.333 16 -88s29.334 -25 56.001 -25s54.334 7.16699 83.001 21.5s52.667 32.833 72 55.5v355c4 1.33301 9.33301 2.33301 16 3s13.667 1 21 1
s14.166 -0.333008 20.499 -1s11.833 -1.66699 16.5 -3v-352c0 -53.333 9.33301 -89 28 -107c-6 -18.667 -17.333 -31.334 -34 -38.001c-32.667 10.667 -53.667 35.334 -63 74.001c-22.667 -22.667 -49.834 -41 -81.501 -55s-63.5 -21 -95.5 -21
c-44.667 0 -77.167 14.333 -97.5 43s-30.5 66.334 -30.5 113.001zM364 543l-95.001 93.999l-101 -99c-16 6.66699 -28 18.334 -36 35.001l106 132c16.667 4.66699 38.334 5 65.001 1l101 -127c-8.66699 -17.333 -22 -29.333 -40 -36z" />
    <glyph glyph-name="udieresis" unicode="&#xfc;" horiz-adv-x="546" 
d="M83 147v249c0 35.333 -4 63.666 -12 84.999c11.333 10.667 27 16 47 16c25.333 0 38 -16.333 38 -49v-277c0 -42 5.33301 -71.333 16 -88s29.334 -25 56.001 -25s54.334 7.16699 83.001 21.5s52.667 32.833 72 55.5v355c4 1.33301 9.33301 2.33301 16 3s13.667 1 21 1
s14.166 -0.333008 20.499 -1s11.833 -1.66699 16.5 -3v-352c0 -53.333 9.33301 -89 28 -107c-6 -18.667 -17.333 -31.334 -34 -38.001c-32.667 10.667 -53.667 35.334 -63 74.001c-22.667 -22.667 -49.834 -41 -81.501 -55s-63.5 -21 -95.5 -21
c-44.667 0 -77.167 14.333 -97.5 43s-30.5 66.334 -30.5 113.001zM317 640c10 6 23.332 9 39.999 9c20.667 0 33.5 -4.16699 38.5 -12.5s7.5 -18.833 7.5 -31.5c0 -13.333 -2.66699 -23.666 -8 -30.999s-18 -11 -38 -11c-11.333 0 -20.166 1.16699 -26.499 3.5
s-11 5.5 -14 9.5s-4.83301 8.5 -5.5 13.5s-1 10.5 -1 16.5c0 11.333 2.33301 22.666 7 33.999zM139.999 640c4.66699 3.33301 10.501 5.66895 17.501 7.00195s14.167 2 21.5 2c15.333 0 28.666 -3 39.999 -9c2 -6 3.66699 -12 5 -18s2 -11.667 2 -17
c0 -14 -2.83301 -24.5 -8.5 -31.5s-18.5 -10.5 -38.5 -10.5c-11.333 0 -20 1.16699 -26 3.5s-10.5 5.5 -13.5 9.5s-4.83301 8.66699 -5.5 14s-1 10.666 -1 15.999c0 11.333 2.33301 22.666 7 33.999z" />
    <glyph glyph-name="yacute" unicode="&#xfd;" horiz-adv-x="452" 
d="M436 486l-137 -469c-25.333 -86 -52.333 -146.667 -81 -182s-71.667 -53 -129 -53c-29.333 0 -56.333 4.33301 -81 13c-2 18.667 3.33301 36.667 16 54c20.667 -7.33301 42.667 -11 66 -11c35.333 0 62.333 12 81 36s35.667 61.333 51 112l3 10
c-17.333 1.33301 -30.5 5.33301 -39.5 12s-16.5 19 -22.5 37l-140 440c20.667 8.66699 35.334 13 44.001 13c19.333 0 32.333 -11.667 39 -35l79 -251c2.66699 -8 18 -60 46 -156c1.33301 -4.66699 4.66602 -7 9.99902 -7l122 442c8.66699 2.66699 20.167 4 34.5 4
s26.5 -2 36.5 -6zM160 568l137 154.001c28.667 -8.66699 49 -27.334 61 -56.001l-163 -130c-16 4 -27.667 14.667 -35 32z" />
    <glyph glyph-name="thorn" unicode="&#xfe;" horiz-adv-x="525" 
d="M160 33v-198.003c0 -18 -2.66699 -30.833 -8 -38.5s-16 -11.5 -32 -11.5h-26l-6 6v938l6 6h26c16 0 26.667 -3.83301 32 -11.5s8 -20.5 8 -38.5v-253c40 44.667 87.667 67 143 67c56 0 98.5 -22.5 127.5 -67.5s43.5 -107.833 43.5 -188.5
c0 -39.333 -5.16699 -74.666 -15.5 -105.999s-24 -57.666 -41 -78.999s-36.5 -37.666 -58.5 -48.999s-44.667 -17 -68 -17c-46 0 -89.667 13.667 -131 41zM160 353.997v-253c20.667 -15.333 40.667 -26.666 60 -33.999s37.666 -11 54.999 -11c36 0 65.667 15.833 89 47.5
s35 79.834 35 144.501c0 32 -2.83301 59.667 -8.5 83s-13.167 42.666 -22.5 57.999s-20.166 26.666 -32.499 33.999s-25.5 11 -39.5 11c-26.667 0 -52 -7.16699 -76 -21.5s-44 -33.833 -60 -58.5z" />
    <glyph glyph-name="ydieresis" unicode="&#xff;" horiz-adv-x="452" 
d="M436 486l-137 -469c-25.333 -86 -52.333 -146.667 -81 -182s-71.667 -53 -129 -53c-29.333 0 -56.333 4.33301 -81 13c-2 18.667 3.33301 36.667 16 54c20.667 -7.33301 42.667 -11 66 -11c35.333 0 62.333 12 81 36s35.667 61.333 51 112l3 10
c-17.333 1.33301 -30.5 5.33301 -39.5 12s-16.5 19 -22.5 37l-140 440c20.667 8.66699 35.334 13 44.001 13c19.333 0 32.333 -11.667 39 -35l79 -251c2.66699 -8 18 -60 46 -156c1.33301 -4.66699 4.66602 -7 9.99902 -7l122 442c8.66699 2.66699 20.167 4 34.5 4
s26.5 -2 36.5 -6zM274 640c10 6 23.332 9 39.999 9c20.667 0 33.5 -4.16699 38.5 -12.5s7.5 -18.833 7.5 -31.5c0 -13.333 -2.66699 -23.666 -8 -30.999s-18 -11 -38 -11c-11.333 0 -20.166 1.16699 -26.499 3.5s-11 5.5 -14 9.5s-4.83301 8.5 -5.5 13.5s-1 10.5 -1 16.5
c0 11.333 2.33301 22.666 7 33.999zM96.999 640c4.66699 3.33301 10.501 5.66895 17.501 7.00195s14.167 2 21.5 2c15.333 0 28.666 -3 39.999 -9c2 -6 3.66699 -12 5 -18s2 -11.667 2 -17c0 -14 -2.83301 -24.5 -8.5 -31.5s-18.5 -10.5 -38.5 -10.5
c-11.333 0 -20 1.16699 -26 3.5s-10.5 5.5 -13.5 9.5s-4.83301 8.66699 -5.5 14s-1 10.666 -1 15.999c0 11.333 2.33301 22.666 7 33.999z" />
    <glyph glyph-name="Aogonek" unicode="&#x104;" horiz-adv-x="596" 
d="M227 177l-69.9971 1l-58 -179c-8.66699 -2 -19.334 -3 -32.001 -3s-25 1.33301 -37 4l-4 4l229 679c11.333 2 26.333 3 45 3s32.334 -1 41.001 -3l229 -679c-16.667 -10 -34.667 -24.333 -54 -43c-22.667 -22.667 -34.334 -47 -35.001 -73c0 -16 4.66699 -28.5 14 -37.5
s23.166 -13.5 41.499 -13.5s38.166 6 59.499 18c12.667 -9.33301 19 -22.666 19 -39.999c-26 -21.333 -56.5 -32 -91.5 -32s-61.833 8 -80.5 24s-28 38 -28 66c0 48 25.667 92.333 77 133c-4.66699 5.33301 -9 14.666 -13 27.999l-48 144l-70 -1h-134zM179.003 243l57.998 1
h115c0.666992 0 8.83398 -0.166992 24.501 -0.5s26.834 -0.5 33.501 -0.5l-63 190c-25.333 78 -42.333 133.667 -51 167h-5c-12.667 -49.333 -24 -89 -34 -119z" />
    <glyph glyph-name="aogonek" unicode="&#x105;" horiz-adv-x="534" 
d="M459 -145c12.667 -10 19.0029 -23.3291 19.0029 -39.9961c-26.667 -21.333 -57.334 -32 -92.001 -32s-61.334 8 -80.001 24s-28 38 -28 66c0 53.333 32.667 102.666 98 147.999c-10 11.333 -17.667 25.666 -23 42.999c-50.667 -50.667 -103.334 -76 -158.001 -76
c-22.667 0 -43 4 -61 12s-33.167 18.667 -45.5 32s-21.666 28.666 -27.999 45.999s-9.5 35.666 -9.5 54.999c0 26.667 4.5 50.167 13.5 70.5s21.333 37.166 37 50.499s34.167 23.333 55.5 30s44.333 10 69 10c50 0 90.667 -3 122 -9v50c0 68 -30 102 -90 102
c-46 0 -100.333 -13.667 -163 -41c-17.333 15.333 -26 34.666 -26 57.999c72 31.333 137.333 47 196 47c103.333 0 155 -55.667 155 -167v-206c0 -42.667 11 -74 33 -94c-4.66699 -12 -17.334 -26.333 -38.001 -43c-47.333 -38 -71 -72.333 -71 -103
c0 -15.333 4.66699 -27.666 14 -36.999s22.333 -14 39 -14c8.66699 0 18.167 1.33301 28.5 4s21.5 7.33398 33.5 14.001zM348.003 131.004l-0.00195312 100.001c-16 2.66699 -32.667 4.5 -50 5.5s-35.666 1.5 -54.999 1.5c-38 0 -67 -8.83301 -87 -26.5
s-30 -40.834 -30 -69.501c0 -28 7 -50.167 21 -66.5s33 -24.5 57 -24.5c24.667 0 49.834 6.83301 75.501 20.5s48.5 33.5 68.5 59.5z" />
    <glyph glyph-name="Cacute" unicode="&#x106;" horiz-adv-x="600" 
d="M476 467c0 20 -2.83203 39.833 -8.49902 59.5s-15 37.334 -28 53.001s-29.667 28.167 -50 37.5s-44.833 14 -73.5 14c-56.667 0 -100.5 -25 -131.5 -75s-46.5 -121 -46.5 -213c0 -92.667 16 -163.834 48 -213.501s77.333 -74.5 136 -74.5c59.333 0 119.333 26.333 180 79
c20.667 -12 34.667 -28.667 42 -50c-28 -28.667 -62.5 -51.834 -103.5 -69.501s-84.5 -26.5 -130.5 -26.5c-44.667 0 -83 9.16699 -115 27.5s-58.167 43.5 -78.5 75.5s-35.333 69.167 -45 111.5s-14.5 87.5 -14.5 135.5c0 59.333 6.66699 111.333 20 156
s31.666 81.834 54.999 111.501s50.666 52 81.999 67s65 22.5 101 22.5s68.667 -5.33301 98 -16s54.333 -24.667 75 -42s36.667 -37.333 48 -60s17 -46 17 -70c0 -30 -14.333 -45 -43 -45c-9.33301 0 -20.666 1.66699 -33.999 5zM230.001 771l191 111
c19.333 -12 32 -34.333 38 -67l-205 -86c-13.333 9.33301 -21.333 23.333 -24 42z" />
    <glyph glyph-name="cacute" unicode="&#x107;" horiz-adv-x="469" 
d="M355 317l0.00292969 11.001c0 14.667 -2 29 -6 43s-10.167 26.333 -18.5 37s-19 19.167 -32 25.5s-28.5 9.5 -46.5 9.5c-38 0 -68 -17.333 -90 -52s-33 -84 -33 -148s10.833 -111.833 32.5 -143.5s51.167 -47.5 88.5 -47.5c39.333 0 84.333 18.333 135 55
c18 -10.667 29.667 -26.334 35 -47.001c-51.333 -48 -109 -72 -173 -72c-32 0 -60 6.33301 -84 19s-44.333 29.834 -61 51.501s-29.167 47.334 -37.5 77.001s-12.5 61.5 -12.5 95.5c0 46 5.16699 86.167 15.5 120.5s24.666 62.666 42.999 84.999s39.833 39 64.5 50
s51 16.5 79 16.5c28.667 0 53.667 -4.5 75 -13.5s39.166 -20.5 53.499 -34.5s25.166 -29.333 32.499 -46s11 -32.334 11 -47.001c0 -32 -13 -48 -39 -48c-9.33301 0 -20 1 -32 3zM186.003 568.001l137 154.001c28.667 -8.66699 49 -27.334 61 -56.001l-163 -130
c-16 4 -27.667 14.667 -35 32z" />
    <glyph glyph-name="Ccaron" unicode="&#x10c;" horiz-adv-x="600" 
d="M476 467c0 20 -2.83203 39.833 -8.49902 59.5s-15 37.334 -28 53.001s-29.667 28.167 -50 37.5s-44.833 14 -73.5 14c-56.667 0 -100.5 -25 -131.5 -75s-46.5 -121 -46.5 -213c0 -92.667 16 -163.834 48 -213.501s77.333 -74.5 136 -74.5c59.333 0 119.333 26.333 180 79
c20.667 -12 34.667 -28.667 42 -50c-28 -28.667 -62.5 -51.834 -103.5 -69.501s-84.5 -26.5 -130.5 -26.5c-44.667 0 -83 9.16699 -115 27.5s-58.167 43.5 -78.5 75.5s-35.333 69.167 -45 111.5s-14.5 87.5 -14.5 135.5c0 59.333 6.66699 111.333 20 156
s31.666 81.834 54.999 111.501s50.666 52 81.999 67s65 22.5 101 22.5s68.667 -5.33301 98 -16s54.333 -24.667 75 -42s36.667 -37.333 48 -60s17 -46 17 -70c0 -30 -14.333 -45 -43 -45c-9.33301 0 -20.666 1.66699 -33.999 5zM208.001 877l110 -74.999l112 81
c7.33301 -2.66699 14.5 -7.5 21.5 -14.5s11.5 -14.167 13.5 -21.5l-112 -108c-28 -2.66699 -51.333 -2.66699 -70 0l-111 104c6 17.333 18 28.666 36 33.999z" />
    <glyph glyph-name="ccaron" unicode="&#x10d;" horiz-adv-x="469" 
d="M355 317l0.00292969 11.001c0 14.667 -2 29 -6 43s-10.167 26.333 -18.5 37s-19 19.167 -32 25.5s-28.5 9.5 -46.5 9.5c-38 0 -68 -17.333 -90 -52s-33 -84 -33 -148s10.833 -111.833 32.5 -143.5s51.167 -47.5 88.5 -47.5c39.333 0 84.333 18.333 135 55
c18 -10.667 29.667 -26.334 35 -47.001c-51.333 -48 -109 -72 -173 -72c-32 0 -60 6.33301 -84 19s-44.333 29.834 -61 51.501s-29.167 47.334 -37.5 77.001s-12.5 61.5 -12.5 95.5c0 46 5.16699 86.167 15.5 120.5s24.666 62.666 42.999 84.999s39.833 39 64.5 50
s51 16.5 79 16.5c28.667 0 53.667 -4.5 75 -13.5s39.166 -20.5 53.499 -34.5s25.166 -29.333 32.499 -46s11 -32.334 11 -47.001c0 -32 -13 -48 -39 -48c-9.33301 0 -20 1 -32 3zM158.003 713.001l95 -93.001l101 98c16 -5.33301 28 -16.666 36 -33.999l-107 -132
c-16.667 -6 -38 -6.33301 -64 -1l-101 127c10.667 19.333 24 31 40 35z" />
    <glyph glyph-name="Dcaron" unicode="&#x10e;" horiz-adv-x="638" 
d="M476 47c-9.33301 -8 -20.666 -15.1699 -33.999 -21.5029s-27.5 -11.666 -42.5 -15.999s-30 -7.66602 -45 -9.99902s-28.167 -3.5 -39.5 -3.5c-12 0 -35.333 0.333008 -70 1s-81.334 1.66699 -140.001 3l-6 6v671l6 6c58 2 125.667 3 203 3c52 0 95.333 -9 130 -27
s62.5 -42.5 83.5 -73.5s35.833 -67.667 44.5 -110s13 -87.5 13 -135.5c0 -33.333 -1.5 -64.166 -4.5 -92.499s-8.5 -54.5 -16.5 -78.5s-18.667 -46.167 -32 -66.5s-30 -38.833 -50 -55.5zM175 60.9971l132.001 -1.00195c38 0 69.333 7.5 94 22.5s44.167 34.833 58.5 59.5
s24.333 52.334 30 83.001s8.5 61.334 8.5 92.001c0 44.667 -2.33301 85.667 -7 123s-14.334 69.5 -29.001 96.5s-35 48 -61 63s-57.333 22.5 -94 22.5l-132 1v-562zM192.001 876.995l110 -74.999l112 81c7.33301 -2.66699 14.5 -7.5 21.5 -14.5s11.5 -14.167 13.5 -21.5
l-112 -108c-28 -2.66699 -51.333 -2.66699 -70 0l-111 104c6 17.333 18 28.666 36 33.999z" />
    <glyph glyph-name="dcaron" unicode="&#x10f;" horiz-adv-x="559" 
d="M238 499c40 0 81.6689 -13.668 125.002 -41.001v271l6 6h27c15.333 0 25.666 -3.83301 30.999 -11.5s8 -20.5 8 -38.5v-547c0 -52.667 9.33301 -88.334 28 -107.001c-6.66699 -18 -17.667 -30.667 -33 -38c-30.667 10.667 -51 33 -61 67c-41.333 -48 -90 -72 -146 -72
c-58 0 -101.167 22.667 -129.5 68s-42.5 108.333 -42.5 189c0 40.667 5.33301 76.834 16 108.501s24.667 58.334 42 80.001s37.166 38 59.499 49s45.5 16.5 69.5 16.5zM233.002 51.999c22.667 0 45.832 6.83398 69.499 20.501s43.834 32.5 60.501 56.5v261
c-44 30 -82.667 45 -116 45c-34 0 -62.667 -16.167 -86 -48.5s-35 -80.833 -35 -145.5s10.167 -112.334 30.5 -143.001s45.833 -46 76.5 -46zM498 566l12.999 203c31.333 4 57 0 77 -12l-44 -194c-15.333 -6 -30.666 -5 -45.999 3z" />
    <glyph glyph-name="Eogonek" unicode="&#x118;" horiz-adv-x="568" 
d="M173 103l-1.00391 -38c22.667 1.33301 43.334 2 62.001 2h274c0 -14 -0.666992 -24.667 -2 -32c-3.33301 -16 -12.666 -27 -27.999 -33c-29.333 -12.667 -53.333 -29.667 -72 -51s-28 -41.333 -28 -60c0 -18 4.83301 -31.5 14.5 -40.5s23.334 -13.5 41.001 -13.5
s37.834 6 60.501 18c12.667 -10 19 -23.333 19 -40c-26 -21.333 -56.5 -32 -91.5 -32s-61.833 8 -80.5 24s-28 37 -28 63c0 51.333 25.667 94.666 77 129.999h-248c-13.333 0 -23.833 4.5 -31.5 13.5s-11.5 21.167 -11.5 36.5v627l6 6h386c1.33301 -8 2 -18.5 2 -31.5
s-1.66699 -24.5 -5 -34.5h-316l1 -62v-177l60 1h207c2 -12 3 -23.167 3 -33.5s-1 -21.166 -3 -32.499h-207c-25.333 0 -45.333 0.333008 -60 1v-211z" />
    <glyph glyph-name="eogonek" unicode="&#x119;" horiz-adv-x="503" 
d="M440 223l-309.994 -0.00195312c3.33301 -113.333 46.333 -170 129 -170c45.333 0 93.666 14 144.999 42c14.667 -13.333 23.667 -30.333 27 -51c-10.667 -7.33301 -22.167 -14.166 -34.5 -20.499s-25.833 -12.166 -40.5 -17.499c-48.667 -38.667 -73 -78 -73 -118
c0 -15.333 4.83301 -27.833 14.5 -37.5s23.167 -14.5 40.5 -14.5c18 0 38.333 6.33301 61 19c12.667 -10 19 -23.333 19 -40c-26.667 -21.333 -57.334 -32 -92.001 -32s-61.334 8 -80.001 24s-28 38.333 -28 67c0 39.333 19.667 77.666 59 114.999
c-3.33301 -0.666992 -7.33301 -1 -12 -1h-16c-35.333 0 -65.5 6.33301 -90.5 19s-45.333 30.5 -61 53.5s-27.167 50.333 -34.5 82s-11 66.167 -11 103.5c0 38 4.5 72.667 13.5 104s21.667 58.333 38 81s37.166 40.334 62.499 53.001s53.666 19 84.999 19
c30.667 0 58.167 -5.5 82.5 -16.5s44.666 -26 60.999 -45s28.833 -41.667 37.5 -68s13 -54.5 13 -84.5c0 -12 -0.5 -23.5 -1.5 -34.5s-2.16699 -21.5 -3.5 -31.5zM130.006 279.998h240v13c0 46 -9.66699 83 -29 111s-48.333 42 -87 42c-38 0 -67.5 -15 -88.5 -45
s-32.833 -70.333 -35.5 -121z" />
    <glyph glyph-name="Ecaron" unicode="&#x11a;" horiz-adv-x="563" 
d="M173 103l-1.00098 -38.001c22.667 1.33301 43.334 2 62.001 2h274c0 -14 -0.666992 -24.667 -2 -32c-4.66699 -23.333 -21 -35 -49 -35h-315c-13.333 0 -23.833 4.5 -31.5 13.5s-11.5 21.167 -11.5 36.5v627l6 6h386c1.33301 -8 2 -18.5 2 -31.5s-1.66699 -24.5 -5 -34.5
h-316l1 -62v-177l60 1h207c2 -12 3 -23.167 3 -33.5s-1 -21.166 -3 -32.499h-207c-25.333 0 -45.333 0.333008 -60 1v-211zM188.999 876.999l110 -74.999l112 81c7.33301 -2.66699 14.5 -7.5 21.5 -14.5s11.5 -14.167 13.5 -21.5l-112 -108
c-28 -2.66699 -51.333 -2.66699 -70 0l-111 104c6 17.333 18 28.666 36 33.999z" />
    <glyph glyph-name="ecaron" unicode="&#x11b;" horiz-adv-x="503" 
d="M440 223h-309.994c3.33301 -113.333 46.333 -170 129 -170c45.333 0 93.666 14 144.999 42c14.667 -13.333 23.667 -30.333 27 -51c-54.667 -37.333 -116 -56 -184 -56c-34.667 0 -64.334 6.5 -89.001 19.5s-44.834 31 -60.501 54s-27.167 50.167 -34.5 81.5
s-11 65.666 -11 102.999c0 38 4.5 72.667 13.5 104s22.167 58.333 39.5 81s38.166 40.334 62.499 53.001s52.166 19 83.499 19c30.667 0 58.167 -5.5 82.5 -16.5s44.666 -26 60.999 -45s28.833 -41.667 37.5 -68s13 -54.5 13 -84.5c0 -12 -0.5 -23.5 -1.5 -34.5
s-2.16699 -21.5 -3.5 -31.5zM130.006 280h240v13c0 46 -9.66699 83 -29 111s-48.333 42 -87 42c-38 0 -67.5 -15 -88.5 -45s-32.833 -70.333 -35.5 -121zM162.006 713l95 -93.001l101 98c16 -5.33301 28 -16.666 36 -33.999l-107 -132c-16.667 -6 -38 -6.33301 -64 -1
l-101 127c10.667 19.333 24 31 40 35z" />
    <glyph glyph-name="Hbar" unicode="&#x126;" horiz-adv-x="678" 
d="M179 320l1 -74v-246c-10 -2 -22.667 -3 -38 -3s-28 1 -38 3v497h-75c-2 10 -3 20.833 -3 32.5s1 22.5 3 32.5h75v121c10 2 22.667 3 38 3s28 -1 38 -3v-121h317v121c10 2 22.667 3 38 3s28.333 -1 39 -3v-121h75c2 -10 3 -20.833 3 -32.5s-1 -22.5 -3 -32.5h-75v-497
c-10.667 -2 -23.667 -3 -39 -3s-28 1 -38 3v246l1 74l-60 -1h-198zM179 386l61 1h198l60 -1l-1 74v37h-317v-37z" />
    <glyph glyph-name="hbar" unicode="&#x127;" horiz-adv-x="547" 
d="M164 685v-56.999l168 2c2 -10 3 -19.333 3 -28s-1 -18 -3 -28l-168 2v-149c22.667 21.333 49.334 38.666 80.001 51.999s61.334 20 92.001 20c44.667 0 77.167 -14.5 97.5 -43.5s30.5 -66.833 30.5 -113.5v-247c0 -38 4 -66.333 12 -85c-11.333 -10.667 -27 -16 -47 -16
c-25.333 0 -38 16.333 -38 49v276c0 40.667 -5.33301 69.5 -16 86.5s-29.334 25.5 -56.001 25.5s-54.334 -7.16699 -83.001 -21.5s-52.667 -32.833 -72 -55.5v-354c-10 -2 -22.333 -3 -37 -3c-14 0 -26 1 -36 3v575l-68 -1c-2 10 -3 19.333 -3 28s1 18 3 28l68 -1v100l6 6
h27c16 0 26.667 -3.83301 32 -11.5s8 -20.5 8 -38.5z" />
    <glyph glyph-name="Itilde" unicode="&#x128;" horiz-adv-x="282" 
d="M103 0v683c9.33301 2 21.5 3 36.5 3s28.167 -1 39.5 -3v-683c-11.333 -2 -24.5 -3 -39.5 -3s-27.167 1 -36.5 3zM159 755l-61.002 28.999c-6 2.66699 -11.667 4.83398 -17 6.50098s-10.666 2.5 -15.999 2.5c-6.66699 -0.666992 -13.667 -2.66699 -21 -6
s-14.666 -9.66602 -21.999 -18.999l-12 -16c-18 1.33301 -30.667 9 -38 23l8 20c8.66699 21.333 21.5 37.333 38.5 48s34.833 16 53.5 16c8.66699 0.666992 17.334 -0.333008 26.001 -3s17.667 -6 27 -10l61 -29c5.33301 -2.66699 10.666 -4.83398 15.999 -6.50098
s10.666 -2.5 15.999 -2.5c6.66699 0 13.834 1.66699 21.501 5s15.167 10 22.5 20l12 16c16 -0.666992 28.667 -9 38 -25l-8 -19c-9.33301 -21.333 -21.833 -37.333 -37.5 -48s-33.5 -16 -53.5 -16c-16 0 -34 4.66699 -54 14z" />
    <glyph glyph-name="itilde" unicode="&#x129;" horiz-adv-x="256" 
d="M170 422l-0.000976562 -422.001c-10 -2 -22.333 -3 -37 -3s-27 1 -37 3v386c0 18.667 -3 31.334 -9 38.001s-16.667 10 -32 10h-9c-2.66699 7.33301 -4 16.333 -4 27s1.33301 20 4 28c12.667 1.33301 23 2.5 31 3.5s14.333 1.5 19 1.5h8
c20.667 0 36.834 -6.5 48.501 -19.5s17.5 -30.5 17.5 -52.5zM132.999 570.999l-60.9971 30.001c-12 6 -23 9 -33 9c-7.33301 0 -14.166 -2 -20.499 -6s-13.5 -10.667 -21.5 -20l-13 -16c-20.667 1.33301 -33.334 9.33301 -38.001 24l9 20c19.333 43.333 49.333 65 90 65
c16 0 34 -4.66699 54 -14l61 -29c5.33301 -2.66699 10.666 -4.83398 15.999 -6.50098s10.666 -2.5 15.999 -2.5c13.333 -0.666992 27.666 8 42.999 26l13 15c18 -0.666992 30.667 -8.66699 38 -24l-9 -20c-20 -43.333 -50 -65 -90 -65c-16 0 -34 4.66699 -54 14z" />
    <glyph glyph-name="dotlessi" unicode="&#x131;" horiz-adv-x="256" 
d="M170 422l-0.000976562 -422.001c-10 -2 -22.333 -3 -37 -3s-27 1 -37 3v386c0 18.667 -3 31.334 -9 38.001s-16.667 10 -32 10h-9c-2.66699 7.33301 -4 16.333 -4 27s1.33301 20 4 28c12.667 1.33301 23 2.5 31 3.5s14.333 1.5 19 1.5h8
c20.667 0 36.834 -6.5 48.501 -19.5s17.5 -30.5 17.5 -52.5z" />
    <glyph glyph-name="IJ" unicode="&#x132;" horiz-adv-x="718" 
d="M103 0v683c9.33301 2 21.5 3 36.5 3s28.167 -1 39.5 -3v-683c-11.333 -2 -24.5 -3 -39.5 -3s-27.167 1 -36.5 3zM323 90c36.667 -22.667 76 -34.001 118 -34.001c42.667 0 72.5 12.833 89.5 38.5s25.5 69.5 25.5 131.5v457c10.667 2 23.667 3 39 3s28 -1 38 -3v-442
c0 -32 -1.33301 -59.167 -4 -81.5s-6.5 -41.333 -11.5 -57s-10.5 -28.5 -16.5 -38.5s-12.333 -18.667 -19 -26c-29.333 -32 -74 -48 -134 -48c-58.667 0 -110.667 13.667 -156 41c4.66699 22.667 15 42.334 31 59.001z" />
    <glyph glyph-name="ij" unicode="&#x133;" horiz-adv-x="519" 
d="M170 422l-0.000976562 -422.001c-10 -2 -22.333 -3 -37 -3s-27 1 -37 3v386c0 18.667 -3 31.334 -9 38.001s-16.667 10 -32 10h-9c-2.66699 7.33301 -4 16.333 -4 27s1.33301 20 4 28c12.667 1.33301 23 2.5 31 3.5s14.333 1.5 19 1.5h8
c20.667 0 36.834 -6.5 48.501 -19.5s17.5 -30.5 17.5 -52.5zM71.999 661.999c10.667 6.66699 26.001 10 46.001 10c19.333 0 32.666 -3 39.999 -9s11 -18.667 11 -38s-4 -32.166 -12 -38.499s-21 -9.5 -39 -9.5c-16 0 -28.833 2.5 -38.5 7.5s-14.5 18.5 -14.5 40.5
c0 15.333 2.33301 27.666 7 36.999zM433 421.999l-0.000976562 -438.999c0 -18.667 -0.333008 -37.834 -1 -57.501s-4.5 -38.5 -11.5 -56.5s-18.667 -34.667 -35 -50s-40.166 -28 -71.499 -38c-11.333 11.333 -19 27 -23 47c13.333 6.66699 24.333 13.834 33 21.501
s15.667 16.167 21 25.5s9 20.166 11 32.499s3 27.166 3 44.499v434c0 18.667 -3 31.334 -9 38.001s-16.667 10 -32 10h-18c-2.66699 11.333 -4 20.333 -4 27c0 6 1.33301 15.333 4 28l34 3.5c10 1 19 1.5 27 1.5h8c20 0 35.667 -6.5 47 -19.5s17 -30.5 17 -52.5z
M334.999 662c10.667 6.66699 26.001 10 46.001 10c19.333 0 32.666 -3 39.999 -9s11 -18.667 11 -38s-4 -32.166 -12 -38.499s-21 -9.5 -39 -9.5c-16 0 -28.833 2.5 -38.5 7.5s-14.5 18.5 -14.5 40.5c0 15.333 2.33301 27.666 7 36.999z" />
    <glyph glyph-name="Jcircumflex" unicode="&#x134;" horiz-adv-x="436" 
d="M41 90c36.667 -22.667 76 -34.001 118 -34.001c42.667 0 72.5 12.833 89.5 38.5s25.5 69.5 25.5 131.5v457c10.667 2 23.667 3 39 3s28 -1 38 -3v-442c0 -32 -1.33301 -59.167 -4 -81.5s-6.5 -41.333 -11.5 -57s-10.5 -28.5 -16.5 -38.5s-12.333 -18.667 -19 -26
c-29.333 -32 -74 -48 -134 -48c-58.667 0 -110.667 13.667 -156 41c4.66699 22.667 15 42.334 31 59.001zM423 737.999l-109 75l-113 -81c-18.667 8 -30 20 -34 36l111 108c23.333 4 47 4 71 0l111 -103c-6 -18 -18.333 -29.667 -37 -35z" />
    <glyph glyph-name="jcircumflex" unicode="&#x135;" horiz-adv-x="263" 
d="M177 422l0.000976562 -409.001v-30c0 -17.333 -0.333008 -32.833 -1 -46.5s-2.83398 -30.5 -6.50098 -50.5s-9.5 -35.333 -17.5 -46c-20.667 -26 -52 -45.667 -94 -59c-11.333 11.333 -19 27 -23 47c26.667 14 44.667 29.667 54 47s14 43 14 77v434
c0 18.667 -3 31.334 -9 38.001s-16.667 10 -32 10h-18c-2.66699 13.333 -4 22.5 -4 27.5s1.33301 14.167 4 27.5c24.667 3.33301 45 5 61 5h8c20 0 35.667 -6.5 47 -19.5s17 -30.5 17 -52.5zM217.001 542.999l-95.001 93.999l-101 -99c-16 6.66699 -28 18.334 -36 35.001
l106 132c16.667 4.66699 38.334 5 65.001 1l101 -127c-8.66699 -17.333 -22 -29.333 -40 -36z" />
    <glyph glyph-name="Kcommaaccent" unicode="&#x136;" horiz-adv-x="583" 
d="M561 21c-11.333 -17.333 -26.834 -25.999 -46.501 -25.999s-33.167 3.83301 -40.5 11.5s-14.333 20.5 -21 38.5l-64 163c-16 40.667 -33.833 69.167 -53.5 85.5s-44.334 24.5 -74.001 24.5s-58.5 -0.666992 -86.5 -2v-316c-10 -2 -22.667 -3 -38 -3s-28 1 -38 3v683
c10 2 22.667 3 38 3s28 -1 38 -3v-299l73 2c12.667 0 24 8 34 24l147 238c8.66699 14 16.334 23.667 23.001 29s15.334 8 26.001 8s26 -0.666992 46 -2l6 -8l-168 -272c-10 -16 -20.333 -28.333 -31 -37c32 -4.66699 57 -16.834 75 -36.501s35.667 -50.167 53 -91.5l61 -156
c11.333 -28 25 -48.333 41 -61zM349.999 -57.999c5.33301 -12 7.99805 -30.167 7.99805 -54.5s-9.66699 -49.166 -29 -74.499s-45.666 -45.666 -78.999 -60.999c-14 5.33301 -22.667 16.666 -26 33.999c37.333 26.667 56 58 56 94c0 18.667 -4.33301 36 -13 52
c24.667 15.333 52.334 18.666 83.001 9.99902z" />
    <glyph glyph-name="kcommaaccent" unicode="&#x137;" horiz-adv-x="490" 
d="M381 179l39.002 -88c17.333 -39.333 33.333 -64.333 48 -75c-10.667 -14.667 -25.334 -22 -44.001 -22s-31.834 4 -39.501 12s-15.5 21.333 -23.5 40l-46 104c-12.667 29.333 -25.667 49 -39 59s-31 15 -53 15s-42.667 -1.33301 -62 -4v-220c-10 -2 -22.167 -3 -36.5 -3
s-26.5 1 -36.5 3v729l6 6h27c16 0 26.667 -3.83301 32 -11.5s8 -20.5 8 -38.5v-402l43 2c9.33301 0 17 4.66699 23 14l107 158c8.66699 13.333 16.667 22.833 24 28.5s16 8.5 26 8.5s24.333 -0.666992 43 -2l6 -8l-127 -185c-8.66699 -12.667 -16.667 -22 -24 -28
c22.667 -4.66699 41.667 -14.167 57 -28.5s29.333 -35.5 42 -63.5zM311.002 -58c5.33301 -12 7.99805 -30.167 7.99805 -54.5s-9.66699 -49.166 -29 -74.499s-45.666 -45.666 -78.999 -60.999c-14 5.33301 -22.667 16.666 -26 33.999c37.333 26.667 56 58 56 94
c0 18.667 -4.33301 36 -13 52c24.667 15.333 52.334 18.666 83.001 9.99902z" />
    <glyph glyph-name="kgreenlandic" unicode="&#x138;" horiz-adv-x="490" 
d="M381 179l39.002 -88.001c16.667 -39.333 32.667 -64.333 48 -75c-10.667 -14.667 -25.334 -22 -44.001 -22s-31.834 4 -39.501 12s-15.5 21.333 -23.5 40l-46 104c-7.33301 16.667 -14.5 29.834 -21.5 39.501s-14.333 17 -22 22s-16.167 8.33301 -25.5 10
s-20 2.5 -32 2.5c-9.33301 0 -18.5 -0.333008 -27.5 -1s-17.5 -1.66699 -25.5 -3v-220c-10 -2 -22.333 -3 -37 -3c-14 0 -26 1 -36 3v488l6 6h27c16 0 26.667 -4 32 -12s8 -21 8 -39v-160l43 2c9.33301 0 17 4.66699 23 14l107 158c10 15.333 18.5 25.333 25.5 30
s16.833 7 29.5 7c5.33301 0 11 -0.166992 17 -0.5s13 -0.833008 21 -1.5l6 -8l-127 -185c-8.66699 -12 -16.667 -21.333 -24 -28c22.667 -4.66699 41.667 -14.167 57 -28.5s29.333 -35.5 42 -63.5z" />
    <glyph glyph-name="Ldot" unicode="&#x13f;" horiz-adv-x="506" 
d="M262 68h213c0 -14.667 -1 -25.667 -3 -33c-4 -23.333 -20.333 -35 -49 -35h-280c-12.667 0 -23.167 4.5 -31.5 13.5s-12.5 21.5 -12.5 37.5v629l6 6h30c16 0 26.667 -3.83301 32 -11.5s8 -20.5 8 -38.5v-571c30 2 59 3 87 3zM343 390
c16.667 6.66699 31.665 9.99805 44.998 9.99805c10 0 18.667 -1.16699 26 -3.5s12.333 -4.16602 15 -5.49902s4.83398 -5.66602 6.50098 -12.999s2.5 -17 2.5 -29c-1.33301 -25.333 -4.16602 -39.666 -8.49902 -42.999s-17.833 -6 -40.5 -8c-8 0 -15.167 0.666992 -21.5 2
s-12 2.66602 -17 3.99902s-8.5 5.83301 -10.5 13.5s-3 18.167 -3 31.5c0 19.333 2 33 6 41z" />
    <glyph glyph-name="ldot" unicode="&#x140;" horiz-adv-x="321" 
d="M196 57h42c2.66699 -6 4.5 -12.667 5.5 -20s1.5 -14 1.5 -20c0 -4 -0.166992 -7.16699 -0.5 -9.5s-0.5 -4.16602 -0.5 -5.49902c-10.667 -2 -21 -3.66699 -31 -5s-20 -2 -30 -2c-27.333 0 -50.333 6.16699 -69 18.5s-28 34.166 -28 65.499v650l6 6h27
c16 0 26.667 -3.83301 32 -11.5s8 -20.5 8 -38.5v-585c0 -28.667 12.333 -43 37 -43zM237 390c16.667 6.66699 31.665 9.99805 44.998 9.99805c10 0 18.667 -1.16699 26 -3.5s12.333 -4.16602 15 -5.49902s4.83398 -5.66602 6.50098 -12.999s2.5 -17 2.5 -29
c-1.33301 -25.333 -4.16602 -39.666 -8.49902 -42.999s-17.833 -6 -40.5 -8c-8 0 -15.167 0.666992 -21.5 2s-12 2.66602 -17 3.99902s-8.5 5.83301 -10.5 13.5s-3 18.167 -3 31.5c0 19.333 2 33 6 41z" />
    <glyph glyph-name="Lslash" unicode="&#x141;" horiz-adv-x="510" 
d="M180 636v-251l188 62l5 -3c5.33301 -20 5.66602 -40.667 0.999023 -62l-194 -63v-254c30 2 58.667 3 86 3h213c0 -14.667 -0.666992 -25.667 -2 -33c-4 -23.333 -20.333 -35 -49 -35h-280c-13.333 -0 -24.166 4.33301 -32.499 13s-12.5 21.334 -12.5 38.001v246l-68 -23
l-5 3c-6 19.333 -6.66699 39.666 -2 60.999l75 25v317l6 6h31c16 0 26.667 -3.83301 32 -11.5s8 -20.5 8 -38.5z" />
    <glyph glyph-name="lslash" unicode="&#x142;" horiz-adv-x="312" 
d="M221 57l41.999 -0.000976562c2.66699 -6 4.33398 -12.667 5.00098 -20s1 -13.666 1 -18.999c0 -4 -0.166992 -7.33301 -0.5 -10s-0.5 -4.66699 -0.5 -6c-25.333 -4 -50.333 -6 -75 -6c-24 0 -43.667 7.16699 -59 21.5s-23 34.833 -23 61.5v250l-71 -38l-5 3
c-2.66699 8.66699 -4 19 -4 31c0 8.66699 1 18 3 28l77 42v334l6 6h27c16 0 26.667 -3.83301 32 -11.5s8 -20.5 8 -38.5v-250l81 44l6 -3c2.66699 -10 4 -20.667 4 -32c0 -9.33301 -1 -18.333 -3 -27l-88 -48v-269c0 -28.667 12.333 -43 37 -43z" />
    <glyph glyph-name="Nacute" unicode="&#x143;" horiz-adv-x="671" 
d="M567 686l6.00195 -5v-681c-12.667 -2 -28.334 -3 -47.001 -3s-34.667 1 -48 3l-243 453c-20 37.333 -42.667 83.333 -68 138h-3c4 -124 6 -196 6 -216v-375c-14 -2 -26.333 -3 -37 -3s-22 1 -34 3v683c12 2 27.167 3 45.5 3s34.166 -1 47.499 -3l243 -453
c16 -28.667 39.333 -75.667 70 -141h3c-4.66699 85.333 -7 161.333 -7 228v319c0 18 2.66699 30.833 8 38.5s16 11.5 32 11.5h26zM250.002 771l191 111c19.333 -12 32 -34.333 38 -67l-205 -86c-13.333 9.33301 -21.333 23.333 -24 42z" />
    <glyph glyph-name="nacute" unicode="&#x144;" horiz-adv-x="545" 
d="M463 343l-0.000976562 -247.999c0 -38 3.66699 -66.333 11 -85c-10.667 -10.667 -26.334 -16 -47.001 -16c-25.333 0 -38 16.333 -38 49v277c0 40.667 -5 69.5 -15 86.5s-29 25.5 -57 25.5c-26.667 0 -54.334 -7.16699 -83.001 -21.5s-52.667 -32.833 -72 -55.5v-355
c-10 -2 -22.333 -3 -37 -3s-27 1 -37 3v488l6 6h28c16 0 26.667 -4.16699 32 -12.5s8 -21.5 8 -39.5v-14c22.667 21.333 49.334 38.5 80.001 51.5s61.334 19.5 92.001 19.5c44.667 0 77.334 -14.333 98.001 -43s31 -66.334 31 -113.001zM211.999 568.001l137 154.001
c28.667 -8.66699 49 -27.334 61 -56.001l-163 -130c-16 4 -27.667 14.667 -35 32z" />
    <glyph glyph-name="Ncaron" unicode="&#x147;" horiz-adv-x="671" 
d="M567 686l6.00195 -5v-681c-12.667 -2 -28.334 -3 -47.001 -3s-34.667 1 -48 3l-243 453c-20 37.333 -42.667 83.333 -68 138h-3c4 -124 6 -196 6 -216v-375c-14 -2 -26.333 -3 -37 -3s-22 1 -34 3v683c12 2 27.167 3 45.5 3s34.166 -1 47.499 -3l243 -453
c16 -28.667 39.333 -75.667 70 -141h3c-4.66699 85.333 -7 161.333 -7 228v319c0 18 2.66699 30.833 8 38.5s16 11.5 32 11.5h26zM229.002 877l110 -74.999l112 81c7.33301 -2.66699 14.5 -7.5 21.5 -14.5s11.5 -14.167 13.5 -21.5l-112 -108
c-28 -2.66699 -51.333 -2.66699 -70 0l-111 104c6 17.333 18 28.666 36 33.999z" />
    <glyph glyph-name="ncaron" unicode="&#x148;" horiz-adv-x="545" 
d="M463 343l-0.000976562 -247.999c0 -38 3.66699 -66.333 11 -85c-10.667 -10.667 -26.334 -16 -47.001 -16c-25.333 0 -38 16.333 -38 49v277c0 40.667 -5 69.5 -15 86.5s-29 25.5 -57 25.5c-26.667 0 -54.334 -7.16699 -83.001 -21.5s-52.667 -32.833 -72 -55.5v-355
c-10 -2 -22.333 -3 -37 -3s-27 1 -37 3v488l6 6h28c16 0 26.667 -4.16699 32 -12.5s8 -21.5 8 -39.5v-14c22.667 21.333 49.334 38.5 80.001 51.5s61.334 19.5 92.001 19.5c44.667 0 77.334 -14.333 98.001 -43s31 -66.334 31 -113.001zM183.999 713.001l95 -93.001l101 98
c16 -5.33301 28 -16.666 36 -33.999l-107 -132c-16.667 -6 -38 -6.33301 -64 -1l-101 127c10.667 19.333 24 31 40 35z" />
    <glyph glyph-name="OE" unicode="&#x152;" horiz-adv-x="885" 
d="M496 103l-1.00098 -38.001c22.667 1.33301 43.334 2 62.001 2h274c0 -14 -1 -24.667 -3 -32c-4 -23.333 -20.333 -35 -49 -35h-330c-70 -8 -110.667 -12 -122 -12c-66 0 -120.667 19.333 -164 58c-70.667 63.333 -106 162 -106 296c0 59.333 8.66699 115.333 26 168
s44 95 80 127c43.333 38.667 98 58 164 58c9.33301 0 50 -4 122 -12h365c1.33301 -8 2 -18.5 2 -31.5s-1.66699 -24.5 -5 -34.5h-316l1 -62v-177l60 1h207c2 -12 3 -23.167 3 -33.5s-1 -21.166 -3 -32.499h-207c-25.333 0 -45.333 0.333008 -60 1v-211zM421.999 61.999
l0.00292969 557.999c-36.667 6 -61.834 9.5 -75.501 10.5s-28.167 0.833008 -43.5 -0.5s-33.833 -7.5 -55.5 -18.5s-39.334 -25.833 -53.001 -44.5s-24.834 -41 -33.501 -67c-15.333 -46.667 -23 -93.667 -23 -141s2.83301 -86.666 8.5 -117.999s15 -62 28 -92
s32.5 -53.667 58.5 -71s56 -26 90 -26s67 3.33301 99 10z" />
    <glyph glyph-name="oe" unicode="&#x153;" horiz-adv-x="844" 
d="M783 223l-311.002 -0.00195312c3.33301 -113.333 46.333 -170 129 -170c45.333 0 93.666 14 144.999 42c14.667 -13.333 23.667 -30.333 27 -51c-54.667 -37.333 -115.334 -56 -182.001 -56c-78.667 0 -133 33 -163 99c-33.333 -66 -89.666 -99 -168.999 -99
c-33.333 0 -62.833 6.33301 -88.5 19s-47.334 30.167 -65.001 52.5s-31 49.333 -40 81s-13.5 66.5 -13.5 104.5s4.5 72.833 13.5 104.5s22.333 58.834 40 81.501s39.334 40.334 65.001 53.001s55.167 19 88.5 19c80.667 0 137.667 -34.667 171 -104
c33.333 69.333 88 104 164 104c30.667 0 58.334 -5.5 83.001 -16.5s44.834 -26 60.501 -45s27.834 -41.5 36.501 -67.5s13 -54.333 13 -85c0 -11.333 -0.333008 -22.5 -1 -33.5s-1.66699 -21.833 -3 -32.5zM259.998 45.998c21.333 0 40.167 4.83398 56.5 14.501
s30 23.167 41 40.5s19.333 38.333 25 63s8.5 51.667 8.5 81c0 26.667 -2.5 52.167 -7.5 76.5s-12.833 45.666 -23.5 63.999s-24.334 32.833 -41.001 43.5s-36.667 16 -60 16c-22.667 0 -42.167 -5.16699 -58.5 -15.5s-29.833 -24.5 -40.5 -42.5s-18.5 -39.167 -23.5 -63.5
s-7.5 -50.5 -7.5 -78.5c0 -27.333 2.33301 -53 7 -77s12.334 -45 23.001 -63s24.167 -32.333 40.5 -43s36.5 -16 60.5 -16zM471.999 279.999h239v11c0 46 -9.5 83.333 -28.5 112s-47.5 43 -85.5 43s-67.5 -14.667 -88.5 -44s-33.167 -70 -36.5 -122z" />
    <glyph glyph-name="Racute" unicode="&#x154;" horiz-adv-x="592" 
d="M105 683l202.004 3.00195c68.667 0 122 -17.333 160 -52s57 -83.334 57 -146.001c0 -44.667 -11.667 -83.167 -35 -115.5s-55.333 -54.5 -96 -66.5c27.333 -8.66699 49.666 -35.667 66.999 -81l52 -135c7.33301 -18.667 14.666 -33.834 21.999 -45.501
s14.333 -20.167 21 -25.5c-10.667 -16.667 -28.334 -25 -53.001 -25c-14 0 -24.833 3.66699 -32.5 11s-15.167 20.333 -22.5 39l-58 152c-11.333 30 -24.833 52.833 -40.5 68.5s-38.834 23.5 -69.501 23.5h-104v-288c-12 -2 -25 -3 -39 -3c-14.667 0 -27 1 -37 3v677z
M175.004 623.002l0.000976562 -271c14 0.666992 31.167 1.16699 51.5 1.5s44.5 0.5 72.5 0.5s51.167 3.66699 69.5 11s33.166 17 44.499 29s19.333 26.167 24 42.5s7 33.5 7 51.5c0 18.667 -2.33301 36.167 -7 52.5s-12.667 30.5 -24 42.5s-26.5 21.5 -45.5 28.5
s-42.833 10.5 -71.5 10.5h-72c-20 0 -36.333 0.333008 -49 1zM207.005 771.002l191 111c19.333 -12 32 -34.333 38 -67l-205 -86c-13.333 9.33301 -21.333 23.333 -24 42z" />
    <glyph glyph-name="racute" unicode="&#x155;" horiz-adv-x="353" 
d="M61 456c4.66699 17.333 15.333 31.333 32 42c37.333 -14 61.333 -43.667 72 -89c27.333 58.667 72 88 134 88c14 0 29.333 -1.33301 46 -4c0 -28.667 -5.66699 -52 -17 -70c-8 0.666992 -19.667 1 -35 1c-54 0 -94.667 -30.333 -122 -91v-333c-10 -2 -22.333 -3 -37 -3
s-27 1 -37 3v354c0 45.333 -12 79.333 -36 102zM133.999 568l137 154.001c28.667 -8.66699 49 -27.334 61 -56.001l-163 -130c-16 4 -27.667 14.667 -35 32z" />
    <glyph glyph-name="Rcommaaccent" unicode="&#x156;" horiz-adv-x="592" 
d="M105 683l202.004 3.00195c68.667 0 122 -17.333 160 -52s57 -83.334 57 -146.001c0 -44.667 -11.667 -83.167 -35 -115.5s-55.333 -54.5 -96 -66.5c27.333 -8.66699 49.666 -35.667 66.999 -81l52 -135c7.33301 -18.667 14.666 -33.834 21.999 -45.501
s14.333 -20.167 21 -25.5c-10.667 -16.667 -28.334 -25 -53.001 -25c-14 0 -24.833 3.66699 -32.5 11s-15.167 20.333 -22.5 39l-58 152c-11.333 30 -24.833 52.833 -40.5 68.5s-38.834 23.5 -69.501 23.5h-104v-288c-12 -2 -25 -3 -39 -3c-14.667 0 -27 1 -37 3v677z
M175.004 623.002l0.000976562 -271c14 0.666992 31.167 1.16699 51.5 1.5s44.5 0.5 72.5 0.5s51.167 3.66699 69.5 11s33.166 17 44.499 29s19.333 26.167 24 42.5s7 33.5 7 51.5c0 18.667 -2.33301 36.167 -7 52.5s-12.667 30.5 -24 42.5s-26.5 21.5 -45.5 28.5
s-42.833 10.5 -71.5 10.5h-72c-20 0 -36.333 0.333008 -49 1zM351.005 -57.998c5.33301 -12 7.99805 -30.167 7.99805 -54.5s-9.66699 -49.166 -29 -74.499s-45.666 -45.666 -78.999 -60.999c-14 5.33301 -22.667 16.666 -26 33.999c37.333 26.667 56 58 56 94
c0 18.667 -4.33301 36 -13 52c24.667 15.333 52.334 18.666 83.001 9.99902z" />
    <glyph glyph-name="rcommaaccent" unicode="&#x157;" horiz-adv-x="353" 
d="M61 456c4.66699 17.333 15.333 31.333 32 42c37.333 -14 61.333 -43.667 72 -89c27.333 58.667 72 88 134 88c14 0 29.333 -1.33301 46 -4c0 -28.667 -5.66699 -52 -17 -70c-8 0.666992 -19.667 1 -35 1c-54 0 -94.667 -30.333 -122 -91v-333c-10 -2 -22.333 -3 -37 -3
s-27 1 -37 3v354c0 45.333 -12 79.333 -36 102zM181.999 -58c5.33301 -12 7.99805 -30.167 7.99805 -54.5s-9.66699 -49.166 -29 -74.499s-45.666 -45.666 -78.999 -60.999c-14 5.33301 -22.667 16.666 -26 33.999c37.333 26.667 56 58 56 94c0 18.667 -4.33301 36 -13 52
c24.667 15.333 52.334 18.666 83.001 9.99902z" />
    <glyph glyph-name="Rcaron" unicode="&#x158;" horiz-adv-x="592" 
d="M105 683l202.004 3.00195c68.667 0 122 -17.333 160 -52s57 -83.334 57 -146.001c0 -44.667 -11.667 -83.167 -35 -115.5s-55.333 -54.5 -96 -66.5c27.333 -8.66699 49.666 -35.667 66.999 -81l52 -135c7.33301 -18.667 14.666 -33.834 21.999 -45.501
s14.333 -20.167 21 -25.5c-10.667 -16.667 -28.334 -25 -53.001 -25c-14 0 -24.833 3.66699 -32.5 11s-15.167 20.333 -22.5 39l-58 152c-11.333 30 -24.833 52.833 -40.5 68.5s-38.834 23.5 -69.501 23.5h-104v-288c-12 -2 -25 -3 -39 -3c-14.667 0 -27 1 -37 3v677z
M175.004 623.002l0.000976562 -271c14 0.666992 31.167 1.16699 51.5 1.5s44.5 0.5 72.5 0.5s51.167 3.66699 69.5 11s33.166 17 44.499 29s19.333 26.167 24 42.5s7 33.5 7 51.5c0 18.667 -2.33301 36.167 -7 52.5s-12.667 30.5 -24 42.5s-26.5 21.5 -45.5 28.5
s-42.833 10.5 -71.5 10.5h-72c-20 0 -36.333 0.333008 -49 1zM185.005 877.002l110 -74.999l112 81c7.33301 -2.66699 14.5 -7.5 21.5 -14.5s11.5 -14.167 13.5 -21.5l-112 -108c-28 -2.66699 -51.333 -2.66699 -70 0l-111 104c6 17.333 18 28.666 36 33.999z" />
    <glyph glyph-name="rcaron" unicode="&#x159;" horiz-adv-x="353" 
d="M61 456c4.66699 17.333 15.333 31.333 32 42c37.333 -14 61.333 -43.667 72 -89c27.333 58.667 72 88 134 88c14 0 29.333 -1.33301 46 -4c0 -28.667 -5.66699 -52 -17 -70c-8 0.666992 -19.667 1 -35 1c-54 0 -94.667 -30.333 -122 -91v-333c-10 -2 -22.333 -3 -37 -3
s-27 1 -37 3v354c0 45.333 -12 79.333 -36 102zM105.999 713l95 -93.001l101 98c16 -5.33301 28 -16.666 36 -33.999l-107 -132c-16.667 -6 -38 -6.33301 -64 -1l-101 127c10.667 19.333 24 31 40 35z" />
    <glyph glyph-name="Sacute" unicode="&#x15a;" horiz-adv-x="555" 
d="M39 63c2 24.667 13.668 44.9971 35.001 60.9971c68 -46 134.667 -69 200 -69c47.333 0 84.666 10 111.999 30s41 47.333 41 82c0 51.333 -35.333 92.666 -106 123.999l-117 51c-90 38.667 -135 94.667 -135 168c0 25.333 5.33301 49.333 16 72s25.5 42.334 44.5 59.001
s41.833 29.834 68.5 39.501s56.334 14.5 89.001 14.5c64.667 0 130.667 -16 198 -48c0 -26 -10.333 -47.333 -31 -64c-32.667 16.667 -62.834 28.667 -90.501 36s-53.167 11 -76.5 11c-21.333 0 -40.5 -3 -57.5 -9s-31.667 -13.833 -44 -23.5s-21.833 -21 -28.5 -34
s-10 -26.5 -10 -40.5c0 -29.333 8.5 -52.166 25.5 -68.499s40.833 -30.833 71.5 -43.5l113 -49c99.333 -43.333 149 -103.666 149 -180.999c0 -58 -19.667 -104.667 -59 -140s-100.333 -53 -183 -53c-81.333 0 -156.333 25 -225 75zM200.001 770.997l191 111
c19.333 -12 32 -34.333 38 -67l-205 -86c-13.333 9.33301 -21.333 23.333 -24 42z" />
    <glyph glyph-name="sacute" unicode="&#x15b;" horiz-adv-x="434" 
d="M37 38c0.666992 20.667 10.332 38.667 28.999 54c30 -17.333 56.833 -29.333 80.5 -36s45.167 -10 64.5 -10c16.667 0 31.167 2.16699 43.5 6.5s22.833 10 31.5 17s15.334 14.833 20.001 23.5s7.33398 17.334 8.00098 26.001c0 20 -6.16699 36.833 -18.5 50.5
s-30.5 25.167 -54.5 34.5l-56 22c-42.667 16.667 -74.667 36.167 -96 58.5s-32 49.166 -32 80.499c0 20.667 4.33301 39.5 13 56.5s20.667 31.5 36 43.5s33.333 21.333 54 28s43.334 10 68.001 10c49.333 0 98.666 -11 147.999 -33c0 -23.333 -7.66699 -42.666 -23 -57.999
c-25.333 11.333 -48.5 19.333 -69.5 24s-40.167 7 -57.5 7c-30.667 0 -53.834 -7 -69.501 -21s-23.5 -30 -23.5 -48c0 -19.333 6 -34.5 18 -45.5s31 -21.5 57 -31.5l59 -23c82.667 -32.667 124 -81 124 -145c0 -44.667 -17 -79.334 -51 -104.001s-80 -37 -138 -37
c-56.667 0 -111.667 16.667 -165 50zM152.998 568l137 154.001c28.667 -8.66699 49 -27.334 61 -56.001l-163 -130c-16 4 -27.667 14.667 -35 32z" />
    <glyph glyph-name="Scaron" unicode="&#x160;" horiz-adv-x="555" 
d="M39 63c2 24.667 13.668 44.9971 35.001 60.9971c68 -46 134.667 -69 200 -69c47.333 0 84.666 10 111.999 30s41 47.333 41 82c0 51.333 -35.333 92.666 -106 123.999l-117 51c-90 38.667 -135 94.667 -135 168c0 25.333 5.33301 49.333 16 72s25.5 42.334 44.5 59.001
s41.833 29.834 68.5 39.501s56.334 14.5 89.001 14.5c64.667 0 130.667 -16 198 -48c0 -26 -10.333 -47.333 -31 -64c-32.667 16.667 -62.834 28.667 -90.501 36s-53.167 11 -76.5 11c-21.333 0 -40.5 -3 -57.5 -9s-31.667 -13.833 -44 -23.5s-21.833 -21 -28.5 -34
s-10 -26.5 -10 -40.5c0 -29.333 8.5 -52.166 25.5 -68.499s40.833 -30.833 71.5 -43.5l113 -49c99.333 -43.333 149 -103.666 149 -180.999c0 -58 -19.667 -104.667 -59 -140s-100.333 -53 -183 -53c-81.333 0 -156.333 25 -225 75zM178.001 876.997l110 -74.999l112 81
c7.33301 -2.66699 14.5 -7.5 21.5 -14.5s11.5 -14.167 13.5 -21.5l-112 -108c-28 -2.66699 -51.333 -2.66699 -70 0l-111 104c6 17.333 18 28.666 36 33.999z" />
    <glyph glyph-name="scaron" unicode="&#x161;" horiz-adv-x="434" 
d="M37 38c0.666992 20.667 10.332 38.667 28.999 54c30 -17.333 56.833 -29.333 80.5 -36s45.167 -10 64.5 -10c16.667 0 31.167 2.16699 43.5 6.5s22.833 10 31.5 17s15.334 14.833 20.001 23.5s7.33398 17.334 8.00098 26.001c0 20 -6.16699 36.833 -18.5 50.5
s-30.5 25.167 -54.5 34.5l-56 22c-42.667 16.667 -74.667 36.167 -96 58.5s-32 49.166 -32 80.499c0 20.667 4.33301 39.5 13 56.5s20.667 31.5 36 43.5s33.333 21.333 54 28s43.334 10 68.001 10c49.333 0 98.666 -11 147.999 -33c0 -23.333 -7.66699 -42.666 -23 -57.999
c-25.333 11.333 -48.5 19.333 -69.5 24s-40.167 7 -57.5 7c-30.667 0 -53.834 -7 -69.501 -21s-23.5 -30 -23.5 -48c0 -19.333 6 -34.5 18 -45.5s31 -21.5 57 -31.5l59 -23c82.667 -32.667 124 -81 124 -145c0 -44.667 -17 -79.334 -51 -104.001s-80 -37 -138 -37
c-56.667 0 -111.667 16.667 -165 50zM124.998 713l95 -93.001l101 98c16 -5.33301 28 -16.666 36 -33.999l-107 -132c-16.667 -6 -38 -6.33301 -64 -1l-101 127c10.667 19.333 24 31 40 35z" />
    <glyph glyph-name="Tcaron" unicode="&#x164;" horiz-adv-x="483" 
d="M335 617l-54.999 1.00195v-618c-10.667 -2 -23.334 -3 -38.001 -3s-27.667 1 -39 3v618l-54 -1h-128c-2 11.333 -3 22.166 -3 32.499s1 21.5 3 33.5h440c4 -8.66699 6 -19.334 6 -32.001c0 -22.667 -15.667 -34 -47 -34h-85zM131.001 877.002l110 -74.999l112 81
c7.33301 -2.66699 14.5 -7.5 21.5 -14.5s11.5 -14.167 13.5 -21.5l-112 -108c-28 -2.66699 -51.333 -2.66699 -70 0l-111 104c6 17.333 18 28.666 36 33.999z" />
    <glyph glyph-name="tcaron" unicode="&#x165;" horiz-adv-x="339" 
d="M305 491c2 -10 3.00195 -19.501 3.00195 -28.501s-1 -18.5 -3 -28.5l-127 1v-336c0 -28 13 -42 39 -42h76c4.66699 -11.333 7 -22.666 7 -33.999s-0.666992 -18.333 -2 -21c-30.667 -4 -62.334 -6 -95.001 -6c-64.667 0 -97 27.667 -97 83v356l-71 -1
c-2 10 -3 19.5 -3 28.5s1 18.5 3 28.5l71 -1v105c0 18 2.66699 30.833 8 38.5s15.666 11.5 30.999 11.5h27l6 -6v-150zM243.002 565.999l12.999 203c31.333 4 57 0 77 -12l-44 -194c-15.333 -6 -30.666 -5 -45.999 3z" />
    <glyph glyph-name="Uring" unicode="&#x16e;" horiz-adv-x="666" 
d="M576 683v-449.999c0 -40 -5.83301 -75.167 -17.5 -105.5s-28 -55.833 -49 -76.5s-46.5 -36.334 -76.5 -47.001s-63.333 -16 -100 -16s-70 5.33301 -100 16s-55.5 26.334 -76.5 47.001s-37.167 46.167 -48.5 76.5s-17 65.5 -17 105.5v447l6 6h30
c16 0 26.667 -3.83301 32 -11.5s8 -20.5 8 -38.5v-402c0 -58.667 14.5 -103.834 43.5 -135.501s69.833 -47.5 122.5 -47.5s93.5 15.5 122.5 46.5s43.5 76.5 43.5 136.5v449c10 2 22.667 3 38 3c14.667 0 27.667 -1 39 -3zM333 671.001c-16 0 -30.665 2.83301 -43.998 8.5
s-24.833 13.167 -34.5 22.5s-17.334 20.5 -23.001 33.5s-8.5 26.5 -8.5 40.5c0 30 10.333 55.167 31 75.5s47 30.5 79 30.5s58.333 -10.167 79 -30.5s31 -45.5 31 -75.5c0 -14 -2.83301 -27.5 -8.5 -40.5s-13.334 -24.167 -23.001 -33.5s-21.167 -16.833 -34.5 -22.5
s-28 -8.5 -44 -8.5zM333.002 833.001c-14.667 0 -26.834 -5.33301 -36.501 -16s-14.5 -24.334 -14.5 -41.001c0 -16 4.83301 -29.333 14.5 -40s21.834 -16 36.501 -16s26.834 5.33301 36.501 16s14.5 24 14.5 40c0 16.667 -4.83301 30.334 -14.5 41.001
s-21.834 16 -36.501 16z" />
    <glyph glyph-name="uring" unicode="&#x16f;" horiz-adv-x="546" 
d="M83 147v249c0 35.333 -4 63.666 -12 84.999c11.333 10.667 27 16 47 16c25.333 0 38 -16.333 38 -49v-277c0 -42 5.33301 -71.333 16 -88s29.334 -25 56.001 -25s54.334 7.16699 83.001 21.5s52.667 32.833 72 55.5v355c4 1.33301 9.33301 2.33301 16 3s13.667 1 21 1
s14.166 -0.333008 20.499 -1s11.833 -1.66699 16.5 -3v-352c0 -53.333 9.33301 -89 28 -107c-6 -18.667 -17.333 -31.334 -34 -38.001c-32.667 10.667 -53.667 35.334 -63 74.001c-22.667 -22.667 -49.834 -41 -81.501 -55s-63.5 -21 -95.5 -21
c-44.667 0 -77.167 14.333 -97.5 43s-30.5 66.334 -30.5 113.001zM269 536c-16 0 -30.665 2.83301 -43.998 8.5s-24.833 13.167 -34.5 22.5s-17.334 20.5 -23.001 33.5s-8.5 26.5 -8.5 40.5c0 30 10.333 55.167 31 75.5s47 30.5 79 30.5s58.333 -10.167 79 -30.5
s31 -45.5 31 -75.5c0 -14 -2.83301 -27.5 -8.5 -40.5s-13.334 -24.167 -23.001 -33.5s-21.167 -16.833 -34.5 -22.5s-28 -8.5 -44 -8.5zM269.002 698c-14.667 0 -26.834 -5.33301 -36.501 -16s-14.5 -24.334 -14.5 -41.001c0 -16 4.83301 -29.333 14.5 -40
s21.834 -16 36.501 -16s26.834 5.33301 36.501 16s14.5 24 14.5 40c0 16.667 -4.83301 30.334 -14.5 41.001s-21.834 16 -36.501 16z" />
    <glyph glyph-name="Ydieresis" unicode="&#x178;" horiz-adv-x="481" 
d="M290 421l104.001 262c5.33301 1.33301 10.833 2.33301 16.5 3s11.5 1 17.5 1c11.333 0 23.666 -1.66699 36.999 -5l3 -6l-188 -454v-222c-11.333 -2 -24.333 -3 -39 -3c-15.333 0 -28 1 -38 3v225l-188 449c8 4.66699 16 8.5 24 11.5s15.667 4.5 23 4.5
c9.33301 0 17.833 -2.83301 25.5 -8.5s14.167 -15.167 19.5 -28.5l96 -232c4.66699 -11.333 10.5 -26.333 17.5 -45s14.833 -42 23.5 -70h5c1.33301 6 5.5 18.5 12.5 37.5zM302.001 818c4 2.66699 9.66699 4.66699 17 6s15 2 23 2c16.667 0 31 -2.66699 43 -8
c4 -13.333 6 -25.666 6 -36.999c0 -6 -0.166992 -11.667 -0.5 -17s-1.83301 -10 -4.5 -14s-7.5 -7.16699 -14.5 -9.5s-16.833 -3.5 -29.5 -3.5s-22.167 1.33301 -28.5 4s-11 6 -14 10s-4.66699 8.66699 -5 14s-0.5 10.666 -0.5 15.999c0 14 2.66699 26.333 8 37z
M103.001 818c5.33301 2.66699 11.834 4.66699 19.501 6s15.5 2 23.5 2c11.333 0 20.166 -1.16699 26.499 -3.5s11 -5.5 14 -9.5s4.83301 -8.83301 5.5 -14.5s1 -11.5 1 -17.5v-16c0 -5.33301 -1.5 -10 -4.5 -14s-7.83301 -7.33301 -14.5 -10s-16.334 -4 -29.001 -4
c-13.333 0 -23.166 1.33301 -29.499 4s-11 6 -14 10s-4.5 8.66699 -4.5 14v16c0 10.667 2 23 6 37z" />
    <glyph glyph-name="Zacute" unicode="&#x179;" horiz-adv-x="553" 
d="M65 90l269 418.999c10 15.333 35.667 52 77 110l-3 3c-22.667 -4.66699 -75 -7 -157 -7h-170c-2 8.66699 -3 18.667 -3 30s2 24 6 38h396c7.33301 -26 11 -43.667 11 -53s-4 -21 -12 -35l-267 -414c-6 -10 -32.333 -48 -79 -114l3 -3c34.667 3.33301 69.667 5 105 5h131
c56.667 0 96.667 5.33301 120 16c4.66699 -14 7 -27.333 7 -40c0 -30 -18.667 -45 -56 -45h-379c-7.33301 24 -11 41.833 -11 53.5s4 23.834 12 36.501zM193 770.999l191 111c19.333 -12 32 -34.333 38 -67l-205 -86c-13.333 9.33301 -21.333 23.333 -24 42z" />
    <glyph glyph-name="zacute" unicode="&#x17a;" horiz-adv-x="444" 
d="M54 77l187.999 258.004l78 97l-3 3c-13.333 -1.33301 -31.5 -2.5 -54.5 -3.5s-50.833 -1.5 -83.5 -1.5h-120c-1.33301 6.66699 -2 14 -2 22c0 6 0.333008 12.333 1 19s1.66699 13 3 19h326c8.66699 -20 13 -35 13 -45s-4 -20.333 -12 -31l-185 -252
c-7.33301 -10.667 -17.666 -24.334 -30.999 -41.001l-48 -60l3 -3c34.667 2 68 3 100 3h55c56 0 94.667 4 116 12c4 -11.333 6 -23 6 -35c0 -25.333 -18 -38 -54 -38h-297c-4 11.333 -7 20.666 -9 27.999s-3 13.666 -3 18.999s1 10.166 3 14.499s5.33301 9.5 10 15.5z
M158.999 568.004l137 154.001c28.667 -8.66699 49 -27.334 61 -56.001l-163 -130c-16 4 -27.667 14.667 -35 32z" />
    <glyph glyph-name="Zdotaccent" unicode="&#x17b;" horiz-adv-x="553" 
d="M65 90l269 418.999c10 15.333 35.667 52 77 110l-3 3c-22.667 -4.66699 -75 -7 -157 -7h-170c-2 8.66699 -3 18.667 -3 30s2 24 6 38h396c7.33301 -26 11 -43.667 11 -53s-4 -21 -12 -35l-267 -414c-6 -10 -32.333 -48 -79 -114l3 -3c34.667 3.33301 69.667 5 105 5h131
c56.667 0 96.667 5.33301 120 16c4.66699 -14 7 -27.333 7 -40c0 -30 -18.667 -45 -56 -45h-379c-7.33301 24 -11 41.833 -11 53.5s4 23.834 12 36.501zM236 753.999c-2.66699 5.33301 -4.5 11.168 -5.5 17.501s-1.5 12.833 -1.5 19.5c0 19.333 3.83301 32.166 11.5 38.499
s21.5 9.5 41.5 9.5c20.667 0 34.334 -3.5 41.001 -10.5s10 -19.5 10 -37.5c0 -15.333 -2.66699 -27 -8 -35s-19.333 -12 -42 -12c-20.667 0 -36.334 3.33301 -47.001 10z" />
    <glyph glyph-name="zdotaccent" unicode="&#x17c;" horiz-adv-x="444" 
d="M54 77l187.999 258.004l78 97l-3 3c-13.333 -1.33301 -31.5 -2.5 -54.5 -3.5s-50.833 -1.5 -83.5 -1.5h-120c-1.33301 6.66699 -2 14 -2 22c0 6 0.333008 12.333 1 19s1.66699 13 3 19h326c8.66699 -20 13 -35 13 -45s-4 -20.333 -12 -31l-185 -252
c-7.33301 -10.667 -17.666 -24.334 -30.999 -41.001l-48 -60l3 -3c34.667 2 68 3 100 3h55c56 0 94.667 4 116 12c4 -11.333 6 -23 6 -35c0 -25.333 -18 -38 -54 -38h-297c-4 11.333 -7 20.666 -9 27.999s-3 13.666 -3 18.999s1 10.166 3 14.499s5.33301 9.5 10 15.5z
M178.999 662.004c10.667 6.66699 26.001 10 46.001 10c19.333 0 32.666 -3 39.999 -9s11 -18.667 11 -38s-4 -32.166 -12 -38.499s-21 -9.5 -39 -9.5c-16 0 -28.833 2.5 -38.5 7.5s-14.5 18.5 -14.5 40.5c0 15.333 2.33301 27.666 7 36.999z" />
    <glyph glyph-name="uni0237" unicode="&#x237;" horiz-adv-x="263" 
d="M177 422l0.000976562 -409.001v-30c0 -17.333 -0.333008 -32.833 -1 -46.5s-2.83398 -30.5 -6.50098 -50.5s-9.5 -35.333 -17.5 -46c-20.667 -26 -52 -45.667 -94 -59c-11.333 11.333 -19 27 -23 47c26.667 14 44.667 29.667 54 47s14 43 14 77v434
c0 18.667 -3 31.334 -9 38.001s-16.667 10 -32 10h-18c-2.66699 13.333 -4 22.5 -4 27.5s1.33301 14.167 4 27.5c24.667 3.33301 45 5 61 5h8c20 0 35.667 -6.5 47 -19.5s17 -30.5 17 -52.5z" />
    <glyph glyph-name="circumflex" unicode="&#x2c6;" 
d="M294 543l-95.001 93.999l-101 -99c-16 6.66699 -28 18.334 -36 35.001l106 132c16.667 4.66699 38.334 5 65.001 1l101 -127c-8.66699 -17.333 -22 -29.333 -40 -36z" />
    <glyph glyph-name="caron" unicode="&#x2c7;" 
d="M106 713l95 -93.001l101 98c16 -5.33301 28 -16.666 36 -33.999l-107 -132c-16.667 -6 -38 -6.33301 -64 -1l-101 127c10.667 19.333 24 31 40 35z" />
    <glyph glyph-name="dotaccent" unicode="&#x2d9;" 
d="M154 662c10.667 6.66699 26.001 10 46.001 10c19.333 0 32.666 -3 39.999 -9s11 -18.667 11 -38s-4 -32.166 -12 -38.499s-21 -9.5 -39 -9.5c-16 0 -28.833 2.5 -38.5 7.5s-14.5 18.5 -14.5 40.5c0 15.333 2.33301 27.666 7 36.999z" />
    <glyph glyph-name="ring" unicode="&#x2da;" 
d="M199 536c-16 0 -30.665 2.83301 -43.998 8.5s-24.833 13.167 -34.5 22.5s-17.334 20.5 -23.001 33.5s-8.5 26.5 -8.5 40.5c0 30 10.333 55.167 31 75.5s47 30.5 79 30.5s58.333 -10.167 79 -30.5s31 -45.5 31 -75.5c0 -14 -2.83301 -27.5 -8.5 -40.5
s-13.334 -24.167 -23.001 -33.5s-21.167 -16.833 -34.5 -22.5s-28 -8.5 -44 -8.5zM199.002 698c-14.667 0 -26.834 -5.33301 -36.501 -16s-14.5 -24.334 -14.5 -41.001c0 -16 4.83301 -29.333 14.5 -40s21.834 -16 36.501 -16s26.834 5.33301 36.501 16s14.5 24 14.5 40
c0 16.667 -4.83301 30.334 -14.5 41.001s-21.834 16 -36.501 16z" />
    <glyph glyph-name="tilde" unicode="&#x2dc;" 
d="M216 571l-60.9971 30.001c-12 6 -23 9 -33 9c-7.33301 0 -14.166 -2 -20.499 -6s-13.5 -10.667 -21.5 -20l-13 -16c-20.667 1.33301 -33.334 9.33301 -38.001 24l9 20c19.333 43.333 49.333 65 90 65c16 0 34 -4.66699 54 -14l61 -29
c5.33301 -2.66699 10.666 -4.83398 15.999 -6.50098s10.666 -2.5 15.999 -2.5c13.333 -0.666992 27.666 8 42.999 26l13 15c18 -0.666992 30.667 -8.66699 38 -24l-9 -20c-20 -43.333 -50 -65 -90 -65c-16 0 -34 4.66699 -54 14z" />
    <glyph glyph-name="mu" unicode="&#x3bc;" horiz-adv-x="555" 
d="M465 490l-0.00292969 -351.999c0 -52.667 9.33301 -88.334 28 -107.001c-6.66699 -18 -17.667 -30.667 -33 -38c-32 10.667 -52.667 33.667 -62 69c-38 -48 -84.333 -72 -139 -72c-41.333 0 -74.666 12.667 -99.999 38v-197c0 -32.667 -12.333 -49 -37 -49
c-20 0 -35 5 -45 15c7.33301 18 11 46.333 11 85v608c8.66699 2.66699 20.834 4 36.501 4s27.834 -1.33301 36.501 -4v-319c0 -36 9.83301 -64 29.5 -84s45.167 -30 76.5 -30c49.333 0 91 25 125 75v358c8 2.66699 20.167 4 36.5 4s28.5 -1.33301 36.5 -4z" />
    <glyph glyph-name="germandbls.cap" unicode="&#x1e9e;" horiz-adv-x="611" 
d="M110 0l0.00195312 407.002l-86 -1c-2 10 -3 20.667 -3 32s1 22 3 32l86 -2v42c0 30 5 56.667 15 80s24 43 42 59s39.667 28.167 65 36.5s53.666 12.5 84.999 12.5c30.667 0 58.667 -4.66699 84 -14s46.833 -22.5 64.5 -39.5s31.334 -37.333 41.001 -61
s14.5 -50.167 14.5 -79.5c0 -24 -5 -50 -15 -78h-2l2 -1c-30 -7.33301 -52.667 -18.5 -68 -33.5s-23 -30.5 -23 -46.5c0 -9.33301 3.33301 -19.833 10 -31.5s18.334 -24.167 35.001 -37.5l37 -30c25.333 -20.667 44.166 -41.834 56.499 -63.501s18.5 -41.834 18.5 -60.501
c0 -19.333 -4.16699 -37.166 -12.5 -53.499s-20 -30.5 -35 -42.5s-32.833 -21.333 -53.5 -28s-43 -10 -67 -10c-48 0 -90.667 9.66699 -128 29c0.666992 8.66699 3.83398 18.5 9.50098 29.5s12.5 19.5 20.5 25.5c15.333 -8.66699 30.5 -14.834 45.5 -18.501
s29.5 -5.5 43.5 -5.5c28 0 51.333 6.16699 70 18.5s28 28.5 28 48.5c-0.666992 11.333 -4.33398 23.833 -11.001 37.5s-18.334 27.5 -35.001 41.5l-41 34c-45.333 37.333 -68 74 -68 110c0 26 9.16699 49.5 27.5 70.5s43.5 37.167 75.5 48.5c4 14 6 27.667 6 41
c0 42 -11.167 76.333 -33.5 103s-55.5 40 -99.5 40c-42.667 0 -74.834 -12.167 -96.501 -36.5s-32.5 -58.5 -32.5 -102.5v-502c-11.333 -2 -24 -3 -38 -3c-14.667 0 -27 1 -37 3z" />
    <glyph glyph-name="endash" unicode="&#x2013;" horiz-adv-x="517" 
d="M450 232l-383 -0.000976562c-2 8.66699 -3 18.834 -3 30.501s1 23.167 3 34.5h383c2.66699 -10 4 -21.333 4 -34s-1.33301 -23 -4 -31z" />
    <glyph glyph-name="emdash" unicode="&#x2014;" horiz-adv-x="789" 
d="M707 232l-625 -0.00292969c-2 8.66699 -3 18.834 -3 30.501s1 23.167 3 34.5h625c2 -11.333 3 -22.666 3 -33.999s-1 -21.666 -3 -30.999z" />
    <glyph glyph-name="quoteleft" unicode="&#x2018;" horiz-adv-x="206" 
d="M55 526c-6.66699 14 -10 36.666 -10 67.999c0 30.667 9.5 60 28.5 88s46.5 49.667 82.5 65c7.33301 -4 13 -9.66699 17 -17s6 -14.666 6 -21.999c-40 -22.667 -60.667 -51 -62 -85c12.667 -1.33301 22.5 -3.33301 29.5 -6s11.833 -6.16699 14.5 -10.5
s4.16699 -9.83301 4.5 -16.5s0.5 -14.334 0.5 -23.001c0 -13.333 -1.5 -23.5 -4.5 -30.5s-7.16699 -12.167 -12.5 -15.5s-11.833 -5.16602 -19.5 -5.49902s-16.5 -0.5 -26.5 -0.5c-22.667 0 -38.667 3.66699 -48 11z" />
    <glyph glyph-name="quoteright" unicode="&#x2019;" horiz-adv-x="206" 
d="M151 734c6.66699 -12.667 10 -32.3291 10 -58.9961c0 -77.333 -37.333 -131.333 -112 -162c-7.33301 3.33301 -12.833 8.83301 -16.5 16.5s-5.5 15.167 -5.5 22.5c40 22.667 60.333 51 61 85c-12 1.33301 -21.333 3.16602 -28 5.49902s-11.5 5.66602 -14.5 9.99902
s-4.66699 9.66602 -5 15.999s-0.5 14.166 -0.5 23.499c0 13.333 1.33301 23.5 4 30.5s6.5 12.167 11.5 15.5s11.333 5.33301 19 6s16.5 1 26.5 1c24 0 40.667 -3.66699 50 -11z" />
    <glyph glyph-name="quotesinglbase" unicode="&#x201a;" horiz-adv-x="207" 
d="M158 88c6.66699 -14 10 -36.665 10 -67.998c0 -30.667 -9.5 -60 -28.5 -88s-46.5 -49.667 -82.5 -65c-7.33301 2.66699 -13 7.83398 -17 15.501s-6 15.5 -6 23.5c40 21.333 60.667 49.666 62 84.999c-13.333 1.33301 -23.333 3.16602 -30 5.49902
s-11.334 5.83301 -14.001 10.5s-4.16699 10.167 -4.5 16.5s-0.5 14.166 -0.5 23.499c0 14 1.83301 24.5 5.5 31.5s8.5 12 14.5 15s12.833 4.66699 20.5 5s15.5 0.5 23.5 0.5c20.667 0 36.334 -3.66699 47.001 -11z" />
    <glyph glyph-name="quotedblleft" unicode="&#x201c;" horiz-adv-x="377" 
d="M55 526c-6.66699 14 -10 36.666 -10 67.999c0 30.667 9.5 60 28.5 88s46.5 49.667 82.5 65c7.33301 -4 13 -9.66699 17 -17s6 -14.666 6 -21.999c-40 -22.667 -60.667 -51 -62 -85c12.667 -1.33301 22.5 -3.33301 29.5 -6s11.833 -6.16699 14.5 -10.5
s4.16699 -9.83301 4.5 -16.5s0.5 -14.334 0.5 -23.001c0 -13.333 -1.5 -23.5 -4.5 -30.5s-7.16699 -12.167 -12.5 -15.5s-11.833 -5.16602 -19.5 -5.49902s-16.5 -0.5 -26.5 -0.5c-22.667 0 -38.667 3.66699 -48 11zM226 525.999c-6.66699 14 -10 36.666 -10 67.999
c0 30.667 9.5 60 28.5 88s46.5 49.667 82.5 65c7.33301 -4 13 -9.66699 17 -17s6 -14.666 6 -21.999c-40 -22.667 -60.667 -51 -62 -85c12.667 -1.33301 22.5 -3.33301 29.5 -6s11.833 -6.16699 14.5 -10.5s4.16699 -9.83301 4.5 -16.5s0.5 -14.334 0.5 -23.001
c0 -13.333 -1.5 -23.5 -4.5 -30.5s-7.16699 -12.167 -12.5 -15.5s-11.833 -5.16602 -19.5 -5.49902s-16.5 -0.5 -26.5 -0.5c-22.667 0 -38.667 3.66699 -48 11z" />
    <glyph glyph-name="quotedblright" unicode="&#x201d;" horiz-adv-x="377" 
d="M151 734c6.66699 -12.667 10 -32.3291 10 -58.9961c0 -77.333 -37.333 -131.333 -112 -162c-7.33301 3.33301 -12.833 8.83301 -16.5 16.5s-5.5 15.167 -5.5 22.5c40 22.667 60.333 51 61 85c-12 1.33301 -21.333 3.16602 -28 5.49902s-11.5 5.66602 -14.5 9.99902
s-4.66699 9.66602 -5 15.999s-0.5 14.166 -0.5 23.499c0 13.333 1.33301 23.5 4 30.5s6.5 12.167 11.5 15.5s11.333 5.33301 19 6s16.5 1 26.5 1c24 0 40.667 -3.66699 50 -11zM323 734.005c6.66699 -12.667 10 -32.3291 10 -58.9961c0 -77.333 -37.333 -131.333 -112 -162
c-7.33301 3.33301 -12.833 8.83301 -16.5 16.5s-5.5 15.167 -5.5 22.5c40 22.667 60.333 51 61 85c-12 1.33301 -21.333 3.16602 -28 5.49902s-11.5 5.66602 -14.5 9.99902s-4.66699 9.66602 -5 15.999s-0.5 14.166 -0.5 23.499c0 13.333 1.33301 23.5 4 30.5
s6.5 12.167 11.5 15.5s11.333 5.33301 19 6s16.5 1 26.5 1c24 0 40.667 -3.66699 50 -11z" />
    <glyph glyph-name="quotedblbase" unicode="&#x201e;" horiz-adv-x="378" 
d="M158 88c6.66699 -14 10 -36.665 10 -67.998c0 -30.667 -9.5 -60 -28.5 -88s-46.5 -49.667 -82.5 -65c-7.33301 2.66699 -13 7.83398 -17 15.501s-6 15.5 -6 23.5c40 21.333 60.667 49.666 62 84.999c-13.333 1.33301 -23.333 3.16602 -30 5.49902
s-11.334 5.83301 -14.001 10.5s-4.16699 10.167 -4.5 16.5s-0.5 14.166 -0.5 23.499c0 14 1.83301 24.5 5.5 31.5s8.5 12 14.5 15s12.833 4.66699 20.5 5s15.5 0.5 23.5 0.5c20.667 0 36.334 -3.66699 47.001 -11zM330 88.002c6.66699 -14 10 -36.665 10 -67.998
c0 -30.667 -9.5 -60 -28.5 -88s-46.5 -49.667 -82.5 -65c-7.33301 2.66699 -13 7.83398 -17 15.501s-6 15.5 -6 23.5c40 21.333 60.667 49.666 62 84.999c-13.333 1.33301 -23.333 3.16602 -30 5.49902s-11.334 5.83301 -14.001 10.5s-4.16699 10.167 -4.5 16.5
s-0.5 14.166 -0.5 23.499c0 14 1.83301 24.5 5.5 31.5s8.5 12 14.5 15s12.833 4.66699 20.5 5s15.5 0.5 23.5 0.5c20.667 0 36.334 -3.66699 47.001 -11z" />
    <glyph glyph-name="bullet" unicode="&#x2022;" horiz-adv-x="438" 
d="M131 192c-8.66699 17.333 -12.9971 44.1689 -12.9971 80.502s4.33301 62.166 13 77.499c25.333 13.333 54.666 20 87.999 20c14 0 30.167 -2.16699 48.5 -6.5s31.5 -8.83301 39.5 -13.5c9.33301 -14.667 14 -40.5 14 -77.5s-4.66699 -63.833 -14 -80.5
c-6.66699 -4.66699 -19.334 -8.83398 -38.001 -12.501s-35.334 -5.5 -50.001 -5.5c-36 0 -65.333 6 -88 18z" />
    <glyph glyph-name="guilsinglleft" unicode="&#x2039;" horiz-adv-x="322" 
d="M276 422l-147 -165.999l153 -172c-8 -19.333 -22.333 -33 -43 -41l-196 186c-6 17.333 -6 34.666 0 51.999l190 182c20.667 -8 35 -21.667 43 -41z" />
    <glyph glyph-name="guilsinglright" unicode="&#x203a;" horiz-adv-x="322" 
d="M45 84l148 166.002l-154 172c9.33301 19.333 24 33 44 41l195 -186c2.66699 -6.66699 4 -15.334 4 -26.001s-1.33301 -19.334 -4 -26.001l-189 -182c-20 8 -34.667 21.667 -44 41z" />
    <glyph glyph-name="fraction" unicode="&#x2044;" horiz-adv-x="191" 
d="M-130 0l377.001 683c8 3.33301 20.333 5 37 5s29 -1.66699 37 -5l-376 -683c-8.66699 -3.33301 -21.334 -5 -38.001 -5s-29 1.66699 -37 5z" />
    <glyph glyph-name="uni2074" unicode="&#x2074;" horiz-adv-x="420" 
d="M230 352v82.001h-160c-10 16 -15 28.833 -15 38.5s5 24.5 15 44.5l119 250c10 1.33301 21.333 0.666016 34 -2.00098s21.667 -7 27 -13l-89 -193c-15.333 -32 -27.333 -54 -36 -66l1 -2c14.667 0.666992 34 1 58 1h46v72c0 14 3.66699 25 11 33s17 12 29 12h22l1 -2v-115
h66c2 -7.33301 3 -16.833 3 -28.5s-2 -21.5 -6 -29.5h-63v-82c-6 -2.66699 -16 -4 -30 -4s-25 1.33301 -33 4z" />
    <glyph glyph-name="Euro" unicode="&#x20ac;" horiz-adv-x="569" 
d="M499 533c-54 40 -106 60.0029 -156 60.0029c-86.667 0 -138.667 -57 -156 -171h229c2 -10.667 3 -20.334 3 -29.001s-1 -18 -3 -28h-234c-0.666992 -8.66699 -1 -22.834 -1 -42.501s0.333008 -34.167 1 -43.5h234c2 -10.667 3 -20.334 3 -29.001s-1 -18 -3 -28h-228
c18 -111.333 69.667 -167 155 -167c50 0 102 20 156 60c18.667 -12.667 31.667 -29.667 39 -51c-61.333 -50.667 -129.333 -76 -204 -76c-127.333 0 -202 78 -224 234h-77c-2 10 -3 19.167 -3 27.5s1 18.166 3 29.499h71c-0.666992 10 -1 24.5 -1 43.5
s0.333008 33.167 1 42.5h-71c-2 10 -3 19.333 -3 28s1 18.334 3 29.001h76c22 158.667 97 238 225 238c73.333 0 141.333 -25.667 204 -77c-8 -22 -21 -38.667 -39 -50z" />
    <glyph glyph-name=".notdef.001" horiz-adv-x="186" 
 />
    <glyph glyph-name="nonmarkingreturn" horiz-adv-x="333" 
 />
    <glyph glyph-name="nonbreakingspace" horiz-adv-x="220" 
 />
    <glyph glyph-name="commaaccent" 
d="M245 -58c5.33301 -12 7.99805 -30.167 7.99805 -54.5s-9.66699 -49.166 -29 -74.499s-45.666 -45.666 -78.999 -60.999c-14 5.33301 -22.667 16.666 -26 33.999c37.333 26.667 56 58 56 94c0 18.667 -4.33301 36 -13 52c24.667 15.333 52.334 18.666 83.001 9.99902z" />
    <glyph glyph-name="grave.cap" 
d="M111 882l190.999 -111c-4 -20 -12 -34 -24 -42l-205 86c4.66699 32 17.334 54.333 38.001 67z" />
    <glyph glyph-name="acute.cap" 
d="M111 771l191 111c19.333 -12 32 -34.333 38 -67l-205 -86c-13.333 9.33301 -21.333 23.333 -24 42z" />
    <glyph glyph-name="circumflex.cap" 
d="M308 738l-109 75l-113 -81c-18.667 8 -30 20 -34 36l111 108c23.333 4 47 4 71 0l111 -103c-6 -18 -18.333 -29.667 -37 -35z" />
    <glyph glyph-name="dieresis.cap" 
d="M257 818c4 2.66699 9.66699 4.66699 17 6s15 2 23 2c16.667 0 31 -2.66699 43 -8c4 -13.333 6 -25.666 6 -36.999c0 -6 -0.166992 -11.667 -0.5 -17s-1.83301 -10 -4.5 -14s-7.5 -7.16699 -14.5 -9.5s-16.833 -3.5 -29.5 -3.5s-22.167 1.33301 -28.5 4s-11 6 -14 10
s-4.66699 8.66699 -5 14s-0.5 10.666 -0.5 15.999c0 14 2.66699 26.333 8 37zM58 818c5.33301 2.66699 11.834 4.66699 19.501 6s15.5 2 23.5 2c11.333 0 20.166 -1.16699 26.499 -3.5s11 -5.5 14 -9.5s4.83301 -8.83301 5.5 -14.5s1 -11.5 1 -17.5v-16
c0 -5.33301 -1.5 -10 -4.5 -14s-7.83301 -7.33301 -14.5 -10s-16.334 -4 -29.001 -4c-13.333 0 -23.166 1.33301 -29.499 4s-11 6 -14 10s-4.5 8.66699 -4.5 14v16c0 10.667 2 23 6 37z" />
    <glyph glyph-name="caron.cap" 
d="M89 877l110 -74.999l112 81c7.33301 -2.66699 14.5 -7.5 21.5 -14.5s11.5 -14.167 13.5 -21.5l-112 -108c-28 -2.66699 -51.333 -2.66699 -70 0l-111 104c6 17.333 18 28.666 36 33.999z" />
    <glyph glyph-name="ring.cap" 
d="M199 671c-16 0 -30.665 2.83301 -43.998 8.5s-24.833 13.167 -34.5 22.5s-17.334 20.5 -23.001 33.5s-8.5 26.5 -8.5 40.5c0 30 10.333 55.167 31 75.5s47 30.5 79 30.5s58.333 -10.167 79 -30.5s31 -45.5 31 -75.5c0 -14 -2.83301 -27.5 -8.5 -40.5
s-13.334 -24.167 -23.001 -33.5s-21.167 -16.833 -34.5 -22.5s-28 -8.5 -44 -8.5zM199.002 833c-14.667 0 -26.834 -5.33301 -36.501 -16s-14.5 -24.334 -14.5 -41.001c0 -16 4.83301 -29.333 14.5 -40s21.834 -16 36.501 -16s26.834 5.33301 36.501 16s14.5 24 14.5 40
c0 16.667 -4.83301 30.334 -14.5 41.001s-21.834 16 -36.501 16z" />
    <glyph glyph-name="tilde.cap" 
d="M216 755l-61.002 28.999c-6 2.66699 -11.667 4.83398 -17 6.50098s-10.666 2.5 -15.999 2.5c-6.66699 -0.666992 -13.667 -2.66699 -21 -6s-14.666 -9.66602 -21.999 -18.999l-12 -16c-18 1.33301 -30.667 9 -38 23l8 20c8.66699 21.333 21.5 37.333 38.5 48
s34.833 16 53.5 16c8.66699 0.666992 17.334 -0.333008 26.001 -3s17.667 -6 27 -10l61 -29c5.33301 -2.66699 10.666 -4.83398 15.999 -6.50098s10.666 -2.5 15.999 -2.5c6.66699 0 13.834 1.66699 21.501 5s15.167 10 22.5 20l12 16c16 -0.666992 28.667 -9 38 -25l-8 -19
c-9.33301 -21.333 -21.833 -37.333 -37.5 -48s-33.5 -16 -53.5 -16c-16 0 -34 4.66699 -54 14z" />
    <glyph glyph-name="dotaccent.cap" 
d="M154 754c-2.66699 5.33301 -4.5 11.168 -5.5 17.501s-1.5 12.833 -1.5 19.5c0 19.333 3.83301 32.166 11.5 38.499s21.5 9.5 41.5 9.5c20.667 0 34.334 -3.5 41.001 -10.5s10 -19.5 10 -37.5c0 -15.333 -2.66699 -27 -8 -35s-19.333 -12 -42 -12
c-20.667 0 -36.334 3.33301 -47.001 10z" />
    <glyph glyph-name="caron.alt" horiz-adv-x="402" 
d="M206 566l12.999 203c31.333 4 57 0 77 -12l-44 -194c-15.333 -6 -30.666 -5 -45.999 3z" />
    <glyph glyph-name="commaaccent.cap" 
d="M245 -58c5.33301 -12 7.99805 -30.167 7.99805 -54.5s-9.66699 -49.166 -29 -74.499s-45.666 -45.666 -78.999 -60.999c-14 5.33301 -22.667 16.666 -26 33.999c37.333 26.667 56 58 56 94c0 18.667 -4.33301 36 -13 52c24.667 15.333 52.334 18.666 83.001 9.99902z" />
    <glyph glyph-name="a.smcp" horiz-adv-x="527" 
d="M381 136l-60 -1h-118l-64 1l-50 -137c-10 -2 -21.5 -3 -34.5 -3s-23.167 1 -30.5 3l-6 5l202 538c8.66699 3.33301 23.167 5 43.5 5s34.5 -1.66699 42.5 -5l203 -539c-12 -6 -25.667 -9 -41 -9c-14.667 0 -25 2.5 -31 7.5s-12 15.167 -18 30.5zM161 198l53.999 0.999023
h96c26.667 -0.666992 42.334 -1 47.001 -1l-47 130c-21.333 58.667 -38 107.334 -50 146.001h-4c-10 -36.667 -22.333 -75.667 -37 -117z" />
    <glyph glyph-name="b.smcp" horiz-adv-x="539" 
d="M96 0l-4.99902 5v532l5 6l172 3c127.333 0 191 -47.667 191 -143c0 -26 -7.83301 -49.167 -23.5 -69.5s-36.5 -34.833 -62.5 -43.5c16 -4 31 -10.333 45 -19s26.333 -19 37 -31s19 -25.5 25 -40.5s9 -30.833 9 -47.5c0 -46 -16.833 -83.333 -50.5 -112
s-86.834 -43 -159.501 -43zM166.001 57l117.999 0.998047c47.333 0.666992 80.333 10.334 99 29.001s28 41.334 28 68.001c0 12.667 -2.66699 25.167 -8 37.5s-13.166 23.333 -23.499 33s-24.333 17.167 -42 22.5s-38.5 8 -62.5 8h-109v-199zM166 485.998l0.000976562 -169
h101c76.667 0 115 28.333 115 85c0 24 -6.5 41.667 -19.5 53s-29.833 19 -50.5 23s-43.834 6 -69.501 6s-51.167 0.666992 -76.5 2z" />
    <glyph glyph-name="c.smcp" horiz-adv-x="531" 
d="M420 348c-0.666992 20 -3.66406 38.835 -8.99707 56.502s-13.5 33 -24.5 46s-25.167 23.167 -42.5 30.5s-38.333 11 -63 11c-48.667 0 -86.834 -18.667 -114.501 -56s-41.5 -91.666 -41.5 -162.999c0 -70.667 14.167 -124.834 42.5 -162.501s67.833 -56.5 118.5 -56.5
c51.333 0 105 21 161 63c20.667 -12.667 34 -29.334 40 -50.001c-58.667 -52.667 -128.334 -79 -209.001 -79c-40.667 0 -75.667 7.33301 -105 22s-53.5 35 -72.5 61s-33 56.833 -42 92.5s-13.5 74.834 -13.5 117.501c0 43.333 6.16699 82 18.5 116s29.166 62.667 50.499 86
s46.333 41.166 75 53.499s59.667 18.5 93 18.5c34 0 64.167 -4.83301 90.5 -14.5s48.333 -22.334 66 -38.001s31.167 -33.5 40.5 -53.5s14 -40 14 -60c0 -30.667 -13.667 -46 -41 -46c-8 0 -18.667 1.66699 -32 5z" />
    <glyph glyph-name="d.smcp" horiz-adv-x="571" 
d="M274 -3c-44 0 -103.334 1 -178.001 3l-5 5v532l5 6c76 2 131.333 3 166 3c54.667 0 98.667 -7.33301 132 -22s59.666 -34.5 78.999 -59.5s32.5 -54.167 39.5 -87.5s10.5 -69 10.5 -107c0 -36.667 -3.33301 -71.5 -10 -104.5s-19.167 -62 -37.5 -87
s-43.666 -44.833 -75.999 -59.5s-74.166 -22 -125.499 -22zM166.999 57l106 0.999023c33.333 0 60.833 5.5 82.5 16.5s39.167 26 52.5 45s22.5 41.333 27.5 67s7.5 53.5 7.5 83.5c0 74 -14 127.833 -42 161.5s-70.667 50.834 -128 51.501l-106 1v-427z" />
    <glyph glyph-name="e.smcp" horiz-adv-x="502" 
d="M166 99l-1 -35.999c10 0.666992 28.333 1 55 1h235c0 -12.667 -0.666992 -22.334 -2 -29.001c-4 -23.333 -20 -35 -48 -35h-270c-13.333 0 -24 4.16699 -32 12.5s-12 19.833 -12 34.5v490l5 5h344c1.33301 -6.66699 2 -16.5 2 -29.5s-1.66699 -24.167 -5 -33.5h-272
l1 -50v-122l53 1h173c2.66699 -7.33301 4 -18 4 -32s-1.33301 -24.667 -4 -32h-226v-145z" />
    <glyph glyph-name="f.smcp" horiz-adv-x="458" 
d="M167 303l47 1h174c2 -10 3 -20.333 3 -31s-1 -21 -3 -31h-174c-20 0 -35.667 0.333008 -47 1v-243c-11.333 -2 -24.333 -3 -39 -3s-27 1 -37 3v538l5 4h337c3.33301 -8.66699 5 -18.667 5 -30s-3.16699 -19.833 -9.5 -25.5s-17.5 -8.5 -33.5 -8.5h-134
c-46 0 -77.667 0.333008 -95 1l1 -100v-76z" />
    <glyph glyph-name="g.smcp" horiz-adv-x="551" 
d="M295 279c22 0.666992 41.668 1.16602 59.001 1.49902s32.666 0.5 45.999 0.5c18.667 0 34 -0.666992 46 -2s21.333 -3.66602 28 -6.99902s11.167 -8.16602 13.5 -14.499s3.5 -14.5 3.5 -24.5v-209c-68 -24 -137.333 -36 -208 -36c-43.333 0 -80 7.5 -110 22.5
s-54.333 35.333 -73 61s-32.167 55.5 -40.5 89.5s-12.5 70 -12.5 108c0 50 6.5 93.167 19.5 129.5s31 66 54 89s50.167 40 81.5 51s65 16.5 101 16.5c71.333 0 133.333 -19.667 186 -59c-4.66699 -24 -17.667 -42.667 -39 -56c-45.333 32.667 -95.333 49 -150 49
c-54 0 -96.333 -17.5 -127 -52.5s-46 -91.167 -46 -168.5c0 -144.667 57 -217 171 -217c40 0 79.667 5.66699 119 17v98c0 13.333 1 29.666 3 48.999h-94c-24 0 -36 11.333 -36 34c0 10 1.66699 20 5 30z" />
    <glyph glyph-name="h.smcp" horiz-adv-x="606" 
d="M440 314l-1 59v169c8.66699 2.66699 21 4 37 4s29 -1.33301 39 -4v-542c-11.333 -2 -24.333 -3 -39 -3s-27 1 -37 3v191l1 60l-54 -1h-167l-53 1l1 -60v-191c-11.333 -2 -24.333 -3 -39 -3s-27 1 -37 3v542c8.66699 2.66699 21 4 37 4s29 -1.33301 39 -4v-169l-1 -59
l53 1h167z" />
    <glyph glyph-name="i.smcp" horiz-adv-x="265" 
d="M95 0v542c8.66699 2.66699 21 4 37 4s29 -1.33301 39 -4v-542c-11.333 -2 -24.333 -3 -39 -3s-27 1 -37 3z" />
    <glyph glyph-name="j.smcp" horiz-adv-x="383" 
d="M31 81c33.333 -19.333 67.334 -29 102.001 -29c36 0 61.167 10.333 75.5 31s21.5 54 21.5 100v359c5.33301 1.33301 11.333 2.33301 18 3s13.667 1 21 1s14.166 -0.333008 20.499 -1s11.833 -1.66699 16.5 -3v-359c0 -66.667 -13.5 -115.5 -40.5 -146.5
s-67.167 -46.5 -120.5 -46.5c-52.667 0 -99.667 11.667 -141 35c2 21.333 11 40 27 56z" />
    <glyph glyph-name="k.smcp" horiz-adv-x="531" 
d="M235 248l-68.001 -3.00098v-245c-11.333 -2 -24.333 -3 -39 -3s-27 1 -37 3v542c8.66699 2.66699 21 4 37 4s29 -1.33301 39 -4v-232l58 3c12.667 0.666992 23.667 7.33398 33 20.001l121 179c6 8.66699 10.333 14.667 13 18c8 10 20 15 36 15s31 -1 45 -3l7 -7
l-144 -209c-6.66699 -10 -16 -20.333 -28 -31c24.667 -4 44.834 -13.5 60.501 -28.5s30.167 -36.5 43.5 -64.5l57 -120c14.667 -30 27.667 -50 39 -60c-12.667 -18 -27.167 -27 -43.5 -27s-28 3.5 -35 10.5s-14.833 19.167 -23.5 36.5l-64 133
c-13.333 28 -27.5 47.167 -42.5 57.5s-36.5 15.5 -64.5 15.5z" />
    <glyph glyph-name="l.smcp" horiz-adv-x="457" 
d="M245 66h186c0 -14 -0.666992 -24.333 -2 -31c-5.33301 -23.333 -21.333 -35 -48 -35h-246c-12.667 0 -23.167 4.16699 -31.5 12.5s-12.5 20.166 -12.5 35.499v493l5 5h31c15.333 0 25.833 -3.66699 31.5 -11s8.5 -19.666 8.5 -36.999v-436c24 2.66699 50 4 78 4z" />
    <glyph glyph-name="m.smcp" horiz-adv-x="718" 
d="M76 1l51.002 541c11.333 4 28.666 6 51.999 6s39.666 -2 48.999 -6l94 -272c20.667 -58 32.667 -96 36 -114h4c2 16.667 13.667 54.667 35 114l92 272c11.333 4 28.333 6 51 6s39.667 -2 51 -6l51 -541c-13.333 -3.33301 -26.333 -5 -39 -5s-25 1 -37 3l-26 318
c-4.66699 57.333 -7 105 -7 143h-5l-132 -380c-10.667 -2 -23.167 -3 -37.5 -3s-26.5 1 -36.5 3l-132 380h-5c0 -38 -2.33301 -85.667 -7 -143l-26 -318c-12 -2 -24.833 -3 -38.5 -3s-26.167 1.66699 -37.5 5z" />
    <glyph glyph-name="n.smcp" horiz-adv-x="611" 
d="M515 546l5.00098 -5v-541c-13.333 -2 -28.5 -3 -45.5 -3s-31.5 1 -43.5 3l-208 342c-25.333 41.333 -45.333 76.333 -60 105h-4c3.33301 -56.667 5 -114.667 5 -174v-273c-14 -2 -26.5 -3 -37.5 -3s-22.833 1 -35.5 3v542c17.333 2.66699 33.666 4 48.999 4
s28.333 -1.33301 39 -4l210 -343c0.666992 -1.33301 21 -37.666 61 -108.999l5 1c-6 70.667 -9 129.667 -9 177v230c0 17.333 2.83301 29.666 8.5 36.999s16.167 11 31.5 11h29z" />
    </font>
</defs>
</svg>
